<svg width="10" height="11" viewBox="0 0 10 11" fill="none" xmlns="http://www.w3.org/2000/svg">
<g clip-path="url(#clip0_4574_25483)">
<path d="M6.42955 7.62162C6.40153 7.23655 6.39364 6.85025 6.40591 6.46433L6.40545 6.48129C6.74741 6.1237 6.96073 5.66092 7.01136 5.16679L7.01227 5.15717C7.16636 5.14433 7.40955 4.99308 7.48045 4.39358C7.50169 4.29034 7.49354 4.18314 7.45694 4.08436C7.42035 3.98559 7.3568 3.89926 7.27364 3.83533L7.27227 3.83442C7.52318 3.07358 8.04409 0.719583 6.30818 0.476667C6.12955 0.160417 5.67227 0 5.07773 0C2.69909 0.044 2.41227 1.81088 2.93227 3.83442C2.84822 3.89874 2.78412 3.98591 2.74749 4.08568C2.71085 4.18546 2.70321 4.2937 2.72545 4.39771L2.725 4.39404C2.79773 4.99263 3.03909 5.14479 3.19318 5.15763C3.2473 5.65726 3.46741 6.12375 3.81773 6.48129C3.82896 6.87397 3.82016 7.26698 3.79136 7.65875L3.79364 7.62162C3.32182 8.89762 0.145455 8.53921 0 11H10.2082C10.0618 8.53921 6.9 8.89762 6.42909 7.62162H6.42955Z" fill="#9EA3AB"/>
</g>
<defs>
<clipPath id="clip0_4574_25483">
<rect width="10" height="11" fill="white"/>
</clipPath>
</defs>
</svg>
