<svg width="96" height="40" viewBox="0 0 96 40" fill="none" xmlns="http://www.w3.org/2000/svg">
<g clip-path="url(#clip0_1439_13200)">
<rect width="96" height="40" rx="20" fill="white"/>
<path opacity="0.0227273" d="M70.6908 78.4934C46.6897 95.5177 16.3377 93.0971 2.83155 73.3758C-10.6742 53.6546 -2.40094 23.8368 21.5997 6.81221C45.6007 -10.2124 75.9529 -7.79262 89.4592 11.9284C102.965 31.6497 94.6919 61.4687 70.6908 78.4934Z" stroke="#526FFF"/>
<path opacity="0.0454545" d="M67.087 79.7421C42.1487 94.3223 12.6685 89.3683 1.14954 68.9612C-10.3691 48.554 0.276858 20.1412 25.215 5.56116C50.153 -9.01877 79.6328 -4.06548 91.1519 16.3413C102.671 36.7484 92.0252 65.1619 67.087 79.7421Z" stroke="#526FFF"/>
<path opacity="0.0681818" d="M63.4552 80.6295C37.8125 92.7304 9.40263 85.3789 -0.116313 64.4853C-9.6352 43.5916 3.20724 16.7731 28.8501 4.67217C54.4928 -7.42847 82.9019 -0.076758 92.4208 20.8168C101.939 41.7104 89.0978 68.5285 63.4552 80.6295Z" stroke="#526FFF"/>
<path opacity="0.0909091" d="M59.8316 81.1633C33.7154 90.7726 6.55932 81.173 -0.96542 59.9892C-8.49005 38.8052 6.35691 13.7509 32.4731 4.14154C58.5894 -5.46778 85.7455 4.13167 93.2701 25.3156C100.795 46.4996 85.9477 71.5539 59.8316 81.1633Z" stroke="#526FFF"/>
<path opacity="0.113636" d="M56.2498 81.3476C29.8879 88.4748 4.15003 76.7914 -1.40431 55.5086C-6.95864 34.2258 9.6903 11.0826 36.0522 3.95536C62.414 -3.17183 88.152 8.51156 93.7063 29.7943C99.2606 51.0771 82.6117 74.2203 56.2498 81.3476Z" stroke="#526FFF"/>
<path opacity="0.136364" d="M52.743 81.1978C26.3578 85.8736 2.18422 72.2825 -1.44111 51.0858C-5.06635 29.8891 13.1727 8.78203 39.5578 4.10632C65.9427 -0.569139 90.1156 13.022 93.741 34.2186C97.3663 55.4152 79.1279 76.522 52.743 81.1978Z" stroke="#526FFF"/>
<path opacity="0.159091" d="M49.3391 80.7259C23.1461 83.0007 0.665756 67.6878 -1.08821 46.754C-2.84204 25.8203 16.7659 6.85184 42.9589 4.57672C69.152 2.30176 91.6331 17.6148 93.3872 38.5485C95.1412 59.4824 75.5324 78.451 49.3391 80.7259Z" stroke="#526FFF"/>
<path opacity="0.181818" d="M46.0676 79.9509C20.2725 79.895 -0.407593 63.0542 -0.363208 42.5504C-0.318789 22.0466 20.4341 5.29557 46.2292 5.35146C72.0242 5.40742 92.7044 22.2482 92.66 42.7519C92.6156 63.2557 71.8626 80.0067 46.0676 79.9509Z" stroke="#526FFF"/>
<path opacity="0.204545" d="M42.9534 78.8922C17.7522 76.5934 -1.04004 58.424 0.715601 38.5066C2.47135 18.5892 24.1416 4.11085 49.3428 6.40965C74.544 8.7085 93.3363 26.8778 91.5805 46.7953C89.8247 66.7127 68.1545 81.1911 42.9534 78.8922Z" stroke="#526FFF"/>
<path opacity="0.227273" d="M40.0182 77.5726C15.5947 73.1351 -1.24102 53.8404 2.12619 34.6534C5.4934 15.4664 27.8517 3.29258 52.2753 7.72977C76.699 12.1671 93.5355 31.462 90.1683 50.6491C86.8011 69.8361 64.4419 82.0099 40.0182 77.5726Z" stroke="#526FFF"/>
<path opacity="0.25" d="M37.2852 76.016C13.8095 69.5597 -1.02395 49.3439 3.84357 31.0182C8.71123 12.6926 31.5328 2.83337 55.0085 9.28954C78.484 15.7458 93.3167 35.9605 88.4494 54.2861C83.5819 72.6118 60.7609 82.472 37.2852 76.016Z" stroke="#526FFF"/>
<path opacity="0.272727" d="M34.7728 74.2449C12.4009 65.9031 -0.400568 44.9715 5.84619 27.6238C12.0931 10.2763 35.1536 2.71756 57.5254 11.0594C79.8971 19.4012 92.6989 40.332 86.4523 57.6796C80.2056 75.0273 57.1447 82.5868 34.7728 74.2449Z" stroke="#526FFF"/>
<path opacity="0.295455" d="M32.4926 72.2877C11.3652 62.2054 0.603047 40.7609 8.09938 24.4931C15.596 8.22533 38.68 2.93166 59.8076 13.014C80.9351 23.0964 91.6971 44.5416 84.2005 60.8094C76.7036 77.0769 53.62 82.3698 32.4926 72.2877Z" stroke="#526FFF"/>
<path opacity="0.318182" d="M30.4565 70.174C10.6977 58.5067 1.9645 36.7472 10.5746 21.6459C19.1852 6.54459 42.0833 3.46181 61.8424 15.129C81.6016 26.7964 90.3352 48.5571 81.7246 63.6585C73.1139 78.7595 50.2156 81.8413 30.4565 70.174Z" stroke="#526FFF"/>
<path opacity="0.340909" d="M28.6738 67.9302C19.5556 61.4028 13.2862 52.6533 10.507 43.8032C7.72803 34.9535 8.44369 26.0322 13.2398 19.0938C18.036 12.1555 26.0444 8.45575 35.1679 8.12672C44.292 7.7977 54.5025 10.8455 63.6209 17.373C72.7391 23.9005 79.0086 32.65 81.7877 41.5001C84.5665 50.3495 83.8505 59.2698 79.0546 66.2081C74.2586 73.1465 66.2504 76.8474 57.1268 77.1765C48.0027 77.5056 37.7921 74.4576 28.6738 67.9302Z" stroke="#526FFF"/>
<path opacity="0.363636" d="M27.1574 65.5867C18.8212 58.4368 13.4315 49.3884 11.4406 40.5576C9.45 31.7272 10.8609 23.1464 16.0715 16.8545C21.2823 10.5625 29.3537 7.69348 38.2426 8.19438C47.132 8.69535 56.8077 12.5685 65.1439 19.7184C73.48 26.8682 78.8699 35.9167 80.8607 44.7475C82.8513 53.578 81.44 62.1594 76.2292 68.4513C71.0185 74.743 62.9474 77.6115 54.0587 77.1107C45.1693 76.6097 35.4935 72.7365 27.1574 65.5867Z" stroke="#526FFF"/>
<path opacity="0.386364" d="M25.9025 63.1702C18.3843 55.4858 13.8767 46.2266 12.6496 37.4857C11.4226 28.7452 13.4761 20.5571 19.0283 14.931C24.5807 9.30483 32.6358 7.24994 41.2192 8.53656C49.8028 9.82324 58.8815 14.4506 66.3997 22.135C73.9179 29.8195 78.4255 39.0786 79.6526 47.8195C80.8797 56.5603 78.8256 64.7488 73.2732 70.375C67.7208 76.0009 59.6663 78.0553 51.083 76.7687C42.4994 75.482 33.4208 70.8546 25.9025 63.1702Z" stroke="#526FFF"/>
<path opacity="0.409091" d="M24.9114 60.7095C18.2379 52.5798 14.6069 43.1957 14.113 34.6112C13.6191 26.0268 16.2595 18.2785 22.0802 13.3296C27.901 8.38075 35.8629 7.11511 44.0757 9.13697C52.2884 11.1589 60.7162 16.4647 67.3897 24.5944C74.0633 32.7241 77.6942 42.1082 78.1881 50.6926C78.682 59.2772 76.0417 67.0254 70.2209 71.9743C64.4 76.9231 56.4383 78.1889 48.2254 76.1669C40.0127 74.1449 31.5849 68.8392 24.9114 60.7095Z" stroke="#526FFF"/>
<path opacity="0.431818" d="M24.1824 58.2341C18.3713 49.749 15.6042 40.3225 15.8075 31.9562C16.0108 23.5897 19.179 16.322 25.1958 12.0541C31.2128 7.78607 39.0096 7.27566 46.7931 9.97722C54.5761 12.6786 62.3076 18.5837 68.1187 27.0688C73.9297 35.5539 76.6976 44.9798 76.4943 53.3461C76.2911 61.7128 73.1221 68.9807 67.1052 73.2487C61.0883 77.5166 53.292 78.0264 45.5087 75.3251C37.7258 72.6236 29.9934 66.7191 24.1824 58.2341Z" stroke="#526FFF"/>
<path opacity="0.454545" d="M23.71 55.7714C18.7706 47.0206 16.8456 37.6328 17.7051 29.5414C18.5648 21.449 22.2003 14.6942 28.3425 11.1031C34.4847 7.51199 42.0496 7.71857 49.3515 11.0393C56.6526 14.3597 63.6512 20.7811 68.5907 29.532C73.5301 38.2828 75.4552 47.6705 74.5956 55.762C73.7359 63.8544 70.1005 70.6092 63.9582 74.2003C57.816 77.7913 50.251 77.5848 42.9492 74.2641C35.6481 70.9437 28.6495 64.5222 23.71 55.7714Z" stroke="#526FFF"/>
<path opacity="0.477273" d="M23.4821 53.346C19.4146 44.4178 18.3046 35.1438 19.7755 27.3782C21.2467 19.6113 25.2862 13.3962 31.4851 10.4709C37.684 7.54559 44.9549 8.42335 51.7302 12.2987C58.5043 16.1735 64.7429 23.0272 68.8105 31.9554C72.8782 40.8838 73.9876 50.1588 72.5167 57.9245C71.0454 65.6913 67.006 71.9066 60.8071 74.8318C54.6082 77.757 47.3372 76.8794 40.562 73.004C33.7878 69.1292 27.5498 62.2744 23.4821 53.346Z" stroke="#526FFF"/>
<path opacity="0.5" d="M23.4958 50.9862C20.2921 41.9669 19.9632 32.8782 21.9967 25.4836C24.0308 18.0871 28.4105 12.4293 34.6006 10.1517C40.7907 7.87412 47.7127 9.37351 53.9236 13.7362C60.1331 18.0979 65.5906 25.2996 68.7943 34.3188C71.9981 43.3384 72.3273 52.4277 70.2936 59.8224C68.2596 67.2188 63.8795 72.8758 57.6894 75.1534C51.4994 77.4309 44.5777 75.9324 38.3667 71.5698C32.1571 67.2081 26.6995 60.0057 23.4958 50.9862Z" stroke="#526FFF"/>
<path opacity="0.522727" d="M23.7407 48.7102C21.3849 39.6832 21.7965 30.8448 24.3412 23.8602C26.8867 16.8736 31.5442 11.7868 37.6632 10.1324C43.7823 8.47815 50.3059 10.5419 55.9222 15.3219C61.5369 20.1005 66.2034 27.566 68.5593 36.593C70.9152 45.6201 70.5036 54.4584 67.9588 61.4431C65.4134 68.4298 60.7559 73.5164 54.6368 75.1708C48.5177 76.8252 41.9942 74.7614 36.3778 69.9814C30.7631 65.2027 26.0966 57.7374 23.7407 48.7102Z" stroke="#526FFF"/>
<path opacity="0.545455" d="M24.1892 46.5435C22.6577 37.5888 23.765 29.0622 26.7669 22.5205C29.77 15.9764 34.642 11.4652 40.6323 10.4036C46.6226 9.34222 52.7057 11.9119 57.7048 17.038C62.702 22.1621 66.574 29.8064 68.1056 38.761C69.6371 47.7158 68.531 56.2431 65.529 62.7848C62.5259 69.3289 57.6538 73.84 51.6636 74.9017C45.6733 75.9632 39.5902 73.3933 34.5911 68.2673C29.5939 63.1431 25.7208 55.4982 24.1892 46.5435Z" stroke="#526FFF"/>
<path opacity="0.568182" d="M24.835 44.5022C24.0971 35.6956 25.8492 27.5347 29.2529 21.4623C32.6582 15.3872 37.6834 11.4494 43.4917 10.9448C49.3003 10.4403 54.9087 13.4545 59.2756 18.8548C63.6402 24.2524 66.7247 31.9932 67.4626 40.7999C68.2005 49.6065 66.4483 57.7674 63.0447 63.8397C59.6393 69.915 54.6134 73.8529 48.8049 74.3574C42.9965 74.8617 37.3888 71.8474 33.022 66.4473C28.6573 61.0497 25.5729 53.3088 24.835 44.5022Z" stroke="#526FFF"/>
<path opacity="0.590909" d="M25.654 42.6066C25.6726 34.0187 28.0169 26.2709 31.7659 20.6882C35.5173 15.102 40.6363 11.7298 46.215 11.7419C51.7936 11.7541 56.8972 15.1485 60.6243 20.7507C64.3492 26.3497 66.6598 34.1074 66.6412 42.6954C66.6225 51.2832 64.2783 59.0302 60.5292 64.6129C56.7779 70.199 51.6597 73.5711 46.0811 73.5592C40.5024 73.5471 35.3981 70.1527 31.6709 64.5504C27.9462 58.9515 25.6354 51.1943 25.654 42.6066Z" stroke="#526FFF"/>
<path opacity="0.613636" d="M26.6285 40.8712C27.3605 32.5672 30.2405 25.274 34.2783 20.1946C38.3191 15.1116 43.4744 12.2913 48.7807 12.7754C54.087 13.2595 58.6668 16.9676 61.7541 22.7009C64.8391 28.4301 66.3977 36.1282 65.6657 44.4322C64.9336 52.736 62.0536 60.0285 58.0159 65.1078C53.9751 70.1909 48.8199 73.011 43.5135 72.5271C38.2071 72.043 33.6275 68.3349 30.5401 62.6015C27.4551 56.8724 25.8966 49.1751 26.6285 40.8712Z" stroke="#526FFF"/>
<path opacity="0.636364" d="M27.7395 39.3069C29.1366 31.3463 32.4927 24.5425 36.7628 19.9741C41.0369 15.4017 46.1748 13.1146 51.1723 14.0225C56.1698 14.9305 60.2123 18.8855 62.6669 24.6804C65.1193 30.4702 65.9537 38.0353 64.5567 45.9959C63.1597 53.9565 59.8035 60.7603 55.5333 65.3287C51.2593 69.9013 46.1212 72.1892 41.1237 71.2813C36.1261 70.3733 32.0839 66.4175 29.6293 60.6224C27.1769 54.8326 26.3424 47.2676 27.7395 39.3069Z" stroke="#526FFF"/>
<path opacity="0.659091" d="M28.9623 37.9243C30.9716 30.3599 34.7428 24.0724 39.19 20.0166C43.6422 15.9563 48.713 14.1768 53.3712 15.4579C58.0293 16.7389 61.5288 20.8754 63.3648 26.665C65.1986 32.4483 65.3437 39.8128 63.3346 47.3772C61.3254 54.9415 57.5541 61.2289 53.1069 65.2849C48.6547 69.3453 43.5837 71.1256 38.9255 69.8446C34.2673 68.5635 30.7681 64.4262 28.9322 58.6365C27.0984 52.8531 26.9532 45.4886 28.9623 37.9243Z" stroke="#526FFF"/>
<path opacity="0.681818" d="M30.2751 36.7338C32.8397 29.6116 36.9645 23.8606 41.5352 20.3129C46.112 16.7606 51.0695 15.4598 55.3642 17.0611C59.6588 18.6624 62.6167 22.9147 63.8544 28.6352C65.0905 34.348 64.5873 41.4494 62.0227 48.5716C59.4581 55.6935 55.3334 61.4439 50.7629 64.9915C46.186 68.5439 41.2283 69.8456 36.9336 68.2443C32.6389 66.6429 29.6814 62.3897 28.4436 56.6693C27.2076 50.9565 27.7105 43.8557 30.2751 36.7338Z" stroke="#526FFF"/>
<path opacity="0.704545" d="M31.6552 35.7353C34.7154 29.0948 39.1319 23.8948 43.7744 20.8457C48.4245 17.7916 53.2274 16.9348 57.1407 18.8022C61.054 20.6697 63.478 24.9753 64.1442 30.5663C64.8092 36.1482 63.7048 42.9288 60.6446 49.5694C57.5845 56.2099 53.1679 61.4099 48.5254 64.459C43.8754 67.5131 39.0724 68.3699 35.1591 66.5025C31.2458 64.635 28.8219 60.3294 28.1557 54.7384C27.4907 49.1565 28.5951 42.3759 31.6552 35.7353Z" stroke="#526FFF"/>
<path opacity="0.727273" d="M33.0784 34.933C36.5721 28.8057 41.2189 24.1622 45.8845 21.5968C50.5592 19.0264 55.1706 18.5787 58.6911 20.6574C62.2113 22.7363 64.1171 27.0322 64.244 32.4377C64.3706 37.8328 62.7151 44.2425 59.2213 50.3699C55.7276 56.4972 51.0808 61.1407 46.4152 63.7061C41.7406 66.2764 37.1299 66.7245 33.6095 64.646C30.089 62.5672 28.1826 58.2709 28.0557 52.8652C27.9291 47.4701 29.5847 41.0604 33.0784 34.933Z" stroke="#526FFF"/>
<path opacity="0.75" d="M34.5196 34.3288C38.3832 28.7394 43.2008 24.6534 47.8436 22.5521C52.4976 20.446 56.8847 20.3663 60.0071 22.6015C63.1296 24.8368 64.5385 29.0655 64.1634 34.2348C63.7891 39.3918 61.6383 45.3868 57.7747 50.9762C53.9111 56.5656 49.0935 60.6516 44.4507 62.7528C39.7968 64.859 35.4096 64.9387 32.2872 62.7035C29.1648 60.4682 27.7559 56.2393 28.1309 51.0702C28.5052 45.9132 30.656 39.9181 34.5196 34.3288Z" stroke="#526FFF"/>
<path opacity="0.772727" d="M35.9642 33.9154C40.1333 28.8813 45.0629 25.3459 49.6409 23.685C54.2324 22.0193 58.3696 22.266 61.0952 24.6037C63.8208 26.9415 64.7605 31.0491 63.925 35.9364C63.0919 40.8093 60.5031 46.3524 56.334 51.3865C52.165 56.4204 47.2359 59.9552 42.6579 61.6161C38.0664 63.2819 33.9293 63.0352 31.2037 60.6974C28.478 58.3597 27.5384 54.2521 28.3738 49.3648C29.2069 44.4919 31.7953 38.9494 35.9642 33.9154Z" stroke="#526FFF"/>
<path opacity="0.795455" d="M37.3814 33.6932C41.7915 29.2244 46.7772 26.2282 51.2523 24.98C55.7437 23.7273 59.6094 24.2566 61.9454 26.6442C64.2813 29.0319 64.7848 32.9682 63.5344 37.5335C62.2885 42.0823 59.3227 47.1431 54.9126 51.6119C50.5025 56.0804 45.5174 59.0761 41.0424 60.3244C36.551 61.5772 32.6853 61.0477 30.3493 58.6601C28.0133 56.2724 27.5098 52.3362 28.7603 47.7708C30.0062 43.2221 32.9714 38.1618 37.3814 33.6932Z" stroke="#526FFF"/>
<path opacity="0.818182" d="M38.7583 33.6496C43.3459 29.7493 48.3341 27.2745 52.6724 26.4081C57.0305 25.5377 60.6086 26.3055 62.568 28.6924C64.5274 31.0794 64.6332 34.7994 63.0163 39.009C61.4066 43.1994 58.1262 47.7547 53.5387 51.655C48.9512 55.5553 43.9629 58.0301 39.6246 58.8965C35.2666 59.7669 31.6884 58.999 29.729 56.6122C27.7696 54.2252 27.6638 50.5052 29.2807 46.2956C30.8904 42.1051 34.1708 37.5499 38.7583 33.6496Z" stroke="#526FFF"/>
<path opacity="0.840909" d="M40.073 33.777C44.7757 30.4414 49.7176 28.4643 53.8897 27.9462C58.0858 27.425 61.3657 28.387 62.9671 30.7252C64.5681 33.0634 64.3194 36.5275 62.3868 40.3535C60.4652 44.1577 56.9324 48.1921 52.2297 51.5279C47.5269 54.8638 42.5844 56.8412 38.4122 57.3594C34.2163 57.8805 30.9368 56.919 29.3354 54.5811C27.7341 52.243 27.9824 48.7783 29.9151 44.952C31.8367 41.1477 35.3702 37.1129 40.073 33.777Z" stroke="#526FFF"/>
<path opacity="0.863636" d="M41.3014 34.0614C46.0593 31.2797 50.9098 29.7738 54.8912 29.5682C58.9018 29.361 61.8769 30.4708 63.144 32.7151C64.4109 34.9596 63.8545 38.1349 61.6583 41.5567C59.4781 44.9535 55.7565 48.4592 50.9986 51.241C46.2405 54.0228 41.3894 55.5291 37.4079 55.7347C33.3972 55.9418 30.4216 54.8314 29.1547 52.5869C27.8881 50.3425 28.4448 47.1677 30.6409 43.7461C32.8211 40.3493 36.5433 36.8432 41.3014 34.0614Z" stroke="#526FFF"/>
<path opacity="0.886364" d="M42.4306 34.4929C47.1867 32.2486 51.9049 31.1819 55.676 31.2516C59.4831 31.322 62.1536 32.5367 63.1146 34.6463C64.0754 36.7557 63.2607 39.6144 60.8539 42.617C58.4697 45.5914 54.6213 48.5674 49.8653 50.8118C45.1093 53.0561 40.391 54.1227 36.6199 54.0531C32.8131 53.9827 30.1429 52.7686 29.1817 50.6593C28.2206 48.5498 29.035 45.6905 31.442 42.6877C33.8263 39.7133 37.6747 36.7373 42.4306 34.4929Z" stroke="#526FFF"/>
<path opacity="0.909091" d="M43.4503 35.0519C48.1505 33.3226 52.7005 32.6598 56.2465 32.9667C59.8368 33.2775 62.2043 34.5546 62.8924 36.4918C63.5804 38.429 62.5627 40.9517 59.9977 43.5273C57.4643 46.0711 53.5497 48.5229 48.8496 50.2523C44.1493 51.9818 39.5985 52.6448 36.0525 52.3379C32.4623 52.027 30.0947 50.7498 29.4065 48.8128C28.7185 46.8757 29.7364 44.3528 32.3013 41.7773C34.8348 39.2334 38.7501 36.7814 43.4503 35.0519Z" stroke="#526FFF"/>
<path opacity="0.931818" d="M44.3426 35.7229C48.9371 34.4807 53.2882 34.1836 56.5994 34.6893C58.2558 34.9422 59.6278 35.3926 60.6376 36.0051C61.6445 36.6158 62.2646 37.3703 62.4901 38.2345C62.7155 39.0986 62.5449 40.0662 61.9686 41.1048C61.3905 42.1465 60.4189 43.2306 59.1042 44.2868C56.4759 46.3982 52.5536 48.3379 47.959 49.5801C43.3646 50.8222 39.0134 51.1194 35.7022 50.6138C34.046 50.3608 32.6737 49.9104 31.664 49.298C30.6573 48.6874 30.0374 47.9334 29.8118 47.0695C29.5863 46.2053 29.7567 45.237 30.3331 44.1983C30.9111 43.1565 31.8829 42.0724 33.1975 41.0163C35.8257 38.9048 39.7482 36.9651 44.3426 35.7229Z" stroke="#526FFF"/>
<path opacity="0.954545" d="M45.0936 36.4878C49.5368 35.7004 53.6631 35.7293 56.7347 36.3955C58.2718 36.7289 59.5199 37.2169 60.4092 37.8201C61.2965 38.422 61.7924 39.1125 61.9196 39.8563C62.0468 40.6002 61.8098 41.4213 61.1743 42.2932C60.5375 43.1668 59.5247 44.0545 58.1887 44.8971C55.519 46.5807 51.6452 48.0273 47.2019 48.8147C42.7589 49.602 38.6333 49.5729 35.5618 48.9068C34.0248 48.5734 32.7767 48.0862 31.8874 47.4832C30.9998 46.8811 30.5041 46.1899 30.3769 45.446C30.2497 44.7021 30.4869 43.8818 31.1224 43.01C31.7591 42.1364 32.7717 41.2477 34.1077 40.4052C36.7774 38.7218 40.6507 37.2752 45.0936 36.4878Z" stroke="#526FFF"/>
<path opacity="0.977273" d="M45.7019 37.327C49.9532 36.9578 53.8338 37.2714 56.6657 38.0607C58.0836 38.4559 59.2124 38.9633 59.9914 39.5422C60.7708 40.1215 61.1526 40.7338 61.2037 41.3435C61.2547 41.9532 60.9804 42.6225 60.3086 43.3278C59.6371 44.0326 58.609 44.7273 57.2774 45.3613C54.6177 46.6276 50.8453 47.6059 46.5941 47.9752C42.3427 48.3445 38.4614 48.0309 35.6294 47.2415C34.2116 46.8463 33.0836 46.3388 32.3046 45.76C31.525 45.1806 31.1426 44.5686 31.0914 43.9588C31.0403 43.349 31.3154 42.6799 31.9875 41.9744C32.6589 41.2696 33.6861 40.5749 35.0177 39.9409C37.6774 38.6746 41.4505 37.6962 45.7019 37.327Z" stroke="#526FFF"/>
<path d="M46.1581 38.2213C50.182 38.2301 53.8031 38.785 56.4001 39.6615C57.7012 40.1006 58.7181 40.6116 59.3988 41.1533C60.0847 41.6992 60.3633 42.2198 60.3623 42.6828C60.3612 43.1457 60.0805 43.6651 59.3922 44.208C58.7091 44.7468 57.6899 45.2524 56.387 45.6859C53.7863 46.5511 50.1628 47.0904 46.1389 47.0817C42.1149 47.0729 38.4939 46.518 35.8968 45.6415C34.5959 45.2024 33.5789 44.6923 32.8981 44.1506C32.2121 43.6047 31.9337 43.0841 31.9346 42.6212C31.9356 42.1582 32.2163 41.6389 32.9047 41.0959C33.5878 40.5572 34.6069 40.0506 35.9099 39.6171C38.5107 38.7519 42.1342 38.2126 46.1581 38.2213Z" stroke="#526FFF"/>
</g>
<defs>
<clipPath id="clip0_1439_13200">
<rect width="96" height="40" rx="20" fill="white"/>
</clipPath>
</defs>
</svg>
