<svg width="22" height="22" viewBox="0 0 22 22" fill="none" xmlns="http://www.w3.org/2000/svg">
<path d="M7.33502 13.5026C7.33502 14.7913 8.37969 15.8359 9.66835 15.8359H11.835C13.2157 15.8359 14.335 14.7167 14.335 13.3359C14.335 11.9552 13.2157 10.8359 11.835 10.8359H9.83502C8.45431 10.8359 7.33502 9.71665 7.33502 8.33594C7.33502 6.95523 8.45431 5.83594 9.83502 5.83594H12.0017C13.2904 5.83594 14.335 6.88061 14.335 8.16927M10.835 4.33594V5.83594M10.835 15.8359V17.3359M20.835 10.8359C20.835 16.3588 16.3579 20.8359 10.835 20.8359C5.31217 20.8359 0.835022 16.3588 0.835022 10.8359C0.835022 5.31309 5.31217 0.835938 10.835 0.835938C16.3579 0.835938 20.835 5.31309 20.835 10.8359Z" stroke="#111A2D" stroke-width="1.67" stroke-linecap="round" stroke-linejoin="round"/>
</svg>
