<svg width="20" height="22" viewBox="0 0 20 22" fill="none" xmlns="http://www.w3.org/2000/svg">
<path d="M18.835 8.83496H0.835022M13.835 0.834961V4.83496M5.83502 0.834961V4.83496M5.63502 20.835H14.035C15.7152 20.835 16.5553 20.835 17.197 20.508C17.7615 20.2204 18.2204 19.7614 18.508 19.1969C18.835 18.5552 18.835 17.7151 18.835 16.035V7.63496C18.835 5.9548 18.835 5.11472 18.508 4.47299C18.2204 3.9085 17.7615 3.44956 17.197 3.16194C16.5553 2.83496 15.7152 2.83496 14.035 2.83496H5.63502C3.95486 2.83496 3.11479 2.83496 2.47305 3.16194C1.90856 3.44956 1.44962 3.9085 1.162 4.47299C0.835022 5.11472 0.835022 5.9548 0.835022 7.63496V16.035C0.835022 17.7151 0.835022 18.5552 1.162 19.1969C1.44962 19.7614 1.90856 20.2204 2.47305 20.508C3.11479 20.835 3.95486 20.835 5.63502 20.835Z" stroke="#667085" stroke-width="1.67" stroke-linecap="round" stroke-linejoin="round"/>
</svg>
