<svg width="21" height="21" viewBox="0 0 21 21" fill="none" xmlns="http://www.w3.org/2000/svg">
<path d="M6.28561 7.13363C6.98161 8.58325 7.9304 9.94189 9.13198 11.1435C10.3336 12.345 11.6922 13.2938 13.1418 13.9898C13.2665 14.0497 13.3288 14.0796 13.4077 14.1026C13.6881 14.1844 14.0324 14.1256 14.2698 13.9556C14.3366 13.9078 14.3938 13.8506 14.5081 13.7363C14.8577 13.3867 15.0325 13.2119 15.2083 13.0976C15.8711 12.6666 16.7257 12.6666 17.3886 13.0976C17.5644 13.2119 17.7392 13.3867 18.0888 13.7363L18.2837 13.9312C18.8151 14.4626 19.0808 14.7284 19.2252 15.0137C19.5122 15.5813 19.5122 16.2516 19.2252 16.8191C19.0808 17.1045 18.8151 17.3702 18.2837 17.9017L18.126 18.0593C17.5964 18.5889 17.3316 18.8537 16.9716 19.056C16.5721 19.2804 15.9516 19.4418 15.4933 19.4404C15.0804 19.4392 14.7982 19.3591 14.2337 19.1989C11.2003 18.3379 8.33797 16.7134 5.94999 14.3254C3.56201 11.9375 1.93754 9.0751 1.07657 6.04171C0.916363 5.47726 0.836259 5.19504 0.835031 4.78209C0.833667 4.32387 0.995029 3.70338 1.21945 3.30387C1.4217 2.94384 1.68651 2.67903 2.21613 2.14941L2.37377 1.99177C2.90521 1.46033 3.17093 1.19461 3.45631 1.05026C4.02387 0.763193 4.69414 0.763193 5.2617 1.05026C5.54708 1.19461 5.8128 1.46033 6.34424 1.99177L6.53911 2.18664C6.88872 2.53625 7.06352 2.71105 7.17781 2.88683C7.6088 3.54972 7.6088 4.4043 7.17781 5.06719C7.06352 5.24297 6.88872 5.41777 6.53911 5.76738C6.4248 5.88169 6.36764 5.93885 6.3198 6.00566C6.14979 6.24309 6.09109 6.58735 6.17281 6.8677C6.19581 6.94659 6.22574 7.00894 6.28561 7.13363Z" stroke="#111A2D" stroke-width="1.67" stroke-linecap="round" stroke-linejoin="round"/>
</svg>
