<svg width="15" height="15" viewBox="0 0 15 15" fill="none" xmlns="http://www.w3.org/2000/svg">
<path d="M3.47958 6.90253C3.43814 6.63548 3.41664 6.3619 3.41664 6.08333C3.41664 3.13781 5.82017 0.75 8.78506 0.75C11.75 0.75 14.1535 3.13781 14.1535 6.08333C14.1535 6.74871 14.0308 7.38564 13.8068 7.973C13.7602 8.09499 13.737 8.15599 13.7264 8.20361C13.7159 8.25079 13.7119 8.28398 13.7108 8.3323C13.7096 8.38107 13.7162 8.43478 13.7294 8.54221L13.9978 10.7223C14.0269 10.9584 14.0414 11.0764 14.0022 11.1621C13.9678 11.2373 13.9067 11.297 13.8307 11.3297C13.7441 11.3669 13.6264 11.3497 13.3911 11.3152L11.2676 11.0039C11.1568 10.9877 11.1013 10.9796 11.0508 10.9798C11.0009 10.9801 10.9663 10.9838 10.9174 10.9941C10.868 11.0045 10.8049 11.0281 10.6787 11.0754C10.0898 11.296 9.45161 11.4167 8.78506 11.4167C8.50627 11.4167 8.23244 11.3956 7.96511 11.3549M4.50439 14.0833C6.48098 14.0833 8.08333 12.4417 8.08333 10.4167C8.08333 8.39162 6.48098 6.75 4.50439 6.75C2.52779 6.75 0.925439 8.39162 0.925439 10.4167C0.925439 10.8237 0.990184 11.2153 1.1097 11.5812C1.16022 11.7358 1.18548 11.8131 1.19377 11.866C1.20243 11.9211 1.20394 11.9521 1.20072 12.0078C1.19763 12.0612 1.18428 12.1215 1.15756 12.2422L0.75 14.0833L2.74653 13.8107C2.85551 13.7958 2.91 13.7883 2.95758 13.7887C3.00768 13.789 3.03427 13.7917 3.08341 13.8015C3.13007 13.8108 3.19944 13.8353 3.33818 13.8843C3.70373 14.0133 4.09607 14.0833 4.50439 14.0833Z" stroke="#111A2D" stroke-width="1.5" stroke-linecap="round" stroke-linejoin="round"/>
</svg>
