<svg width="120" height="93" viewBox="0 0 120 93" fill="none" xmlns="http://www.w3.org/2000/svg">
<g clip-path="url(#clip0_872_18402)">
<path d="M0 24C0 10.7452 10.7452 0 24 0H96C109.255 0 120 10.7452 120 24V69C120 82.2548 109.255 93 96 93H24C10.7452 93 0 82.2548 0 69V24Z" fill="#D0E1F5"/>
<path d="M146.332 61.6629C127.515 69.9245 114.226 103.854 119.443 122.481C125.208 143.051 174.733 145.302 180.893 141.093C187.052 136.884 208.065 119.885 216.3 102.401C225.444 82.9963 195.044 83.3962 195.005 74.6896C194.968 66.123 168.084 52.1147 146.332 61.6629Z" stroke="url(#paint0_linear_872_18402)" stroke-opacity="0.2" stroke-miterlimit="10"/>
<path d="M141.044 58.5882C119.313 65.2191 105.782 106.561 112.819 127.469C120.797 151.15 175.147 148.484 183.464 145.758C190.632 143.413 212.478 120.602 220.126 99.231C228.43 76.0114 196.482 72.8901 194.705 67.1077C192.793 60.9083 166.541 50.8321 141.044 58.5882Z" stroke="url(#paint1_linear_872_18402)" stroke-opacity="0.2" stroke-miterlimit="10"/>
<path d="M135.755 55.5173C111.147 60.4935 97.3546 109.263 106.196 132.449C116.407 159.265 175.144 151.548 186.035 150.427C193.954 149.594 215.614 119.14 222.636 93.8371C230.129 66.8508 198.666 62.1487 194.401 59.5629C191.448 55.4728 165.085 49.5794 135.755 55.5173Z" stroke="url(#paint2_linear_872_18402)" stroke-opacity="0.2" stroke-miterlimit="10"/>
<path d="M130.472 52.4269C102.997 55.8054 88.9501 111.947 99.5945 137.423C112.066 167.321 175.476 158.687 188.628 155.084C196.867 152.825 220.878 122.728 227.249 93.5085C233.957 62.7585 200.496 51.5227 194.119 52.0003C189.692 50.1467 163.623 48.3619 130.472 52.4269Z" stroke="url(#paint3_linear_872_18402)" stroke-opacity="0.2" stroke-miterlimit="10"/>
<path d="M125.18 49.3672C94.8485 51.1658 80.5495 114.652 92.9513 142.424C107.686 175.427 174.758 161.987 191.181 159.762C200.397 158.508 232.571 118.922 238.282 85.7667C244.201 51.2524 202.733 42.3699 193.797 44.4538C188.074 45.7841 162.165 47.1707 125.18 49.3672Z" stroke="url(#paint4_linear_872_18402)" stroke-opacity="0.2" stroke-miterlimit="10"/>
<path d="M119.902 46.292C86.7049 46.5378 72.1618 117.347 86.3332 147.405C103.35 183.509 174.777 159.377 193.76 164.455C203.598 167.076 216.373 121.753 221.403 84.6554C226.602 46.3954 204.752 31.4991 193.497 36.9206C186.496 40.2679 160.717 45.9973 119.902 46.292Z" stroke="url(#paint5_linear_872_18402)" stroke-opacity="0.2" stroke-miterlimit="10"/>
<path d="M114.613 43.2231C78.5556 41.9166 63.7775 120.017 79.7038 152.392C99.0135 191.588 174.771 161.681 196.329 169.098C206.876 172.728 218.581 122.692 222.925 81.6506C227.374 39.6193 206.587 20.6329 193.192 29.3385C184.79 34.8016 159.263 44.8363 114.613 43.2231Z" stroke="url(#paint6_linear_872_18402)" stroke-opacity="0.2" stroke-miterlimit="10"/>
<path d="M109.325 40.1488C70.4058 37.3066 55.4069 122.721 73.0807 157.38C94.6671 199.666 174.834 163.909 198.9 173.769C210.186 178.39 217.341 123.863 220.99 78.8937C224.704 33.115 208.368 9.85051 192.89 21.7847C183.042 29.3699 157.796 43.6908 109.325 40.1488Z" stroke="url(#paint7_linear_872_18402)" stroke-opacity="0.2" stroke-miterlimit="10"/>
<path d="M104.038 37.0732C62.2559 32.701 47.0109 125.404 66.4581 162.367C90.3323 207.743 174.952 166.108 201.472 178.444C213.525 184.053 190.316 128.138 193.262 79.2292C196.246 29.6927 210.134 -0.884509 192.588 14.2297C181.269 23.9678 156.346 42.5513 104.038 37.0732Z" stroke="url(#paint8_linear_872_18402)" stroke-opacity="0.2" stroke-miterlimit="10"/>
<path d="M98.747 34.0049C54.0722 28.1216 38.6289 128.086 59.8329 167.35C85.9845 215.81 175.117 168.252 204.042 183.105C216.885 189.698 196.328 129.586 198.568 76.743C200.83 23.4492 211.906 -11.6056 192.278 6.66465C179.486 18.5834 154.88 41.4234 98.747 34.0049Z" stroke="url(#paint9_linear_872_18402)" stroke-opacity="0.2" stroke-miterlimit="10"/>
<path d="M93.4646 30.9291C45.9451 23.5064 30.244 130.764 53.2153 172.336C81.6774 223.884 175.347 170.395 206.62 187.774C220.27 195.349 202.358 131.039 203.888 74.2611C205.427 17.2045 213.662 -22.3033 191.982 -0.890585C177.704 13.2075 153.416 40.2985 93.4646 30.9291Z" stroke="url(#paint10_linear_872_18402)" stroke-opacity="0.2" stroke-miterlimit="10"/>
<path d="M88.1758 27.8545C37.787 18.9122 21.8858 133.447 46.5912 177.324C77.3534 231.953 175.549 172.521 209.192 192.429C223.654 200.996 208.375 132.498 209.198 71.7631C210.018 10.9499 215.422 -33.0042 191.68 -8.46125C175.921 7.839 151.946 39.1749 88.1758 27.8545Z" stroke="url(#paint11_linear_872_18402)" stroke-opacity="0.2" stroke-miterlimit="10"/>
<path d="M82.8881 24.7849C29.6245 14.3223 13.5104 136.15 39.9694 182.306C73.0311 240.021 175.798 174.644 211.769 197.111C227.059 206.661 214.407 133.941 214.512 69.2929C214.617 4.64493 217.181 -43.6725 191.379 -16.0215C174.133 2.4748 150.477 38.0616 82.8881 24.7849Z" stroke="url(#paint12_linear_872_18402)" stroke-opacity="0.2" stroke-miterlimit="10"/>
<path d="M77.5997 21.7092C21.4608 9.73183 5.13907 138.803 33.3402 187.292C68.7051 248.111 176.066 176.786 214.335 201.78C230.465 212.32 220.431 135.388 219.82 66.8104C219.206 -1.52724 218.944 -54.3407 191.07 -23.5662C172.343 -2.88437 149.007 36.9424 77.5997 21.7092Z" stroke="url(#paint13_linear_872_18402)" stroke-opacity="0.2" stroke-miterlimit="10"/>
<path d="M72.3115 18.6333C13.2971 5.14126 -3.13955 141.426 26.7333 192.28C64.5201 256.086 176.374 178.877 216.924 206.446C233.892 217.981 226.478 136.838 225.145 64.3296C223.819 -7.76967 220.724 -65.0128 190.784 -31.1252C170.553 -8.2437 147.524 35.8329 72.3115 18.6333Z" stroke="url(#paint14_linear_872_18402)" stroke-opacity="0.2" stroke-miterlimit="10"/>
<path d="M67.0269 15.5637C5.13718 0.556922 -11.515 144.106 20.0986 197.254C60.1714 264.168 176.653 180.953 219.484 211.103C237.303 223.63 232.497 138.274 230.444 61.8238C228.412 -14.042 222.477 -75.6988 190.472 -38.7093C168.768 -13.6023 146.052 34.7191 67.0269 15.5637Z" stroke="url(#paint15_linear_872_18402)" stroke-opacity="0.2" stroke-miterlimit="10"/>
<path d="M61.7381 12.4896C-3.05526 -4.02928 -19.9014 146.792 13.474 202.248C55.8399 272.203 176.949 183.1 222.054 215.78C240.745 229.311 238.66 139.732 235.75 59.3596C233.141 -20.2703 224.237 -86.3432 190.167 -46.2407C166.977 -18.9543 144.57 33.6114 61.7381 12.4896Z" stroke="url(#paint16_linear_872_18402)" stroke-opacity="0.2" stroke-miterlimit="10"/>
<path d="M56.4514 9.4141C-11.2309 -8.49236 -28.2856 149.477 6.85206 207.235C51.5029 280.308 177.261 185.213 224.633 220.45C244.152 234.971 244.665 141.177 241.066 56.8779C237.717 -26.5165 226.001 -97.0002 189.861 -53.8019C165.188 -24.3078 143.05 32.6547 56.4514 9.4141Z" stroke="url(#paint17_linear_872_18402)" stroke-opacity="0.2" stroke-miterlimit="10"/>
<path d="M51.1628 6.34393C-19.3918 -13.1049 -36.6595 152.157 0.228823 212.221C47.1625 288.379 177.578 187.322 227.204 225.12C247.58 240.638 250.674 142.612 246.375 54.3955C242.292 -32.763 227.769 -107.662 189.558 -61.3571C163.379 -29.6356 141.577 31.5127 51.1628 6.34393Z" stroke="url(#paint18_linear_872_18402)" stroke-opacity="0.2" stroke-miterlimit="10"/>
<path d="M45.8737 3.26996C-27.554 -17.7157 -45.0518 154.843 -6.39497 217.204C42.8283 296.436 177.904 189.438 229.775 229.786C251.011 246.307 256.707 144.079 251.68 51.9313C246.836 -38.994 229.446 -118.371 189.254 -68.8995C161.545 -35.0592 140.104 30.3669 45.8737 3.26996Z" stroke="url(#paint19_linear_872_18402)" stroke-opacity="0.2" stroke-miterlimit="10"/>
<path d="M40.5881 0.194131C-35.7109 -22.345 -53.4522 157.531 -13.0159 222.191C38.4941 304.525 178.234 191.553 232.352 234.434C254.454 251.959 262.693 145.499 257.001 49.4106C251.443 -45.2597 231.259 -129.007 188.956 -76.4769C159.787 -40.3818 138.642 29.2481 40.5881 0.194131Z" stroke="url(#paint20_linear_872_18402)" stroke-opacity="0.2" stroke-miterlimit="10"/>
<path d="M188.647 -84.0318C158.028 -45.7089 137.155 28.0776 35.2989 -2.87521C-43.8798 -26.9407 -61.8206 160.207 -19.6453 227.178C34.158 312.603 178.56 193.669 234.921 239.121C280.497 275.883 278.191 -196.11 188.647 -84.0318Z" stroke="url(#paint21_linear_872_18402)" stroke-opacity="0.2" stroke-miterlimit="10"/>
</g>
<defs>
<linearGradient id="paint0_linear_872_18402" x1="160.364" y1="57.9932" x2="151.452" y2="141.558" gradientUnits="userSpaceOnUse">
<stop stop-color="#0A3A9B"/>
<stop offset="1" stop-color="#0A6CCD" stop-opacity="0"/>
</linearGradient>
<linearGradient id="paint1_linear_872_18402" x1="156.535" y1="54.9391" x2="146.78" y2="146.403" gradientUnits="userSpaceOnUse">
<stop stop-color="#0A3A9B"/>
<stop offset="1" stop-color="#0A6CCD" stop-opacity="0"/>
</linearGradient>
<linearGradient id="paint2_linear_872_18402" x1="153.722" y1="51.508" x2="143.038" y2="151.679" gradientUnits="userSpaceOnUse">
<stop stop-color="#0A3A9B"/>
<stop offset="1" stop-color="#0A6CCD" stop-opacity="0"/>
</linearGradient>
<linearGradient id="paint3_linear_872_18402" x1="152.067" y1="46.9898" x2="140.167" y2="158.561" gradientUnits="userSpaceOnUse">
<stop stop-color="#0A3A9B"/>
<stop offset="1" stop-color="#0A6CCD" stop-opacity="0"/>
</linearGradient>
<linearGradient id="paint4_linear_872_18402" x1="150.802" y1="39.4839" x2="137.486" y2="164.332" gradientUnits="userSpaceOnUse">
<stop stop-color="#0A3A9B"/>
<stop offset="1" stop-color="#0A6CCD" stop-opacity="0"/>
</linearGradient>
<linearGradient id="paint5_linear_872_18402" x1="149.667" y1="30.9635" x2="134.982" y2="168.655" gradientUnits="userSpaceOnUse">
<stop stop-color="#0A3A9B"/>
<stop offset="1" stop-color="#0A6CCD" stop-opacity="0"/>
</linearGradient>
<linearGradient id="paint6_linear_872_18402" x1="148.529" y1="22.239" x2="132.293" y2="174.476" gradientUnits="userSpaceOnUse">
<stop stop-color="#0A3A9B"/>
<stop offset="1" stop-color="#0A6CCD" stop-opacity="0"/>
</linearGradient>
<linearGradient id="paint7_linear_872_18402" x1="147.419" y1="13.4861" x2="129.622" y2="180.354" gradientUnits="userSpaceOnUse">
<stop stop-color="#0A3A9B"/>
<stop offset="1" stop-color="#0A6CCD" stop-opacity="0"/>
</linearGradient>
<linearGradient id="paint8_linear_872_18402" x1="146.338" y1="4.70763" x2="126.973" y2="186.279" gradientUnits="userSpaceOnUse">
<stop stop-color="#0A3A9B"/>
<stop offset="1" stop-color="#0A6CCD" stop-opacity="0"/>
</linearGradient>
<linearGradient id="paint9_linear_872_18402" x1="145.288" y1="-4.09521" x2="124.349" y2="192.232" gradientUnits="userSpaceOnUse">
<stop stop-color="#0A3A9B"/>
<stop offset="1" stop-color="#0A6CCD" stop-opacity="0"/>
</linearGradient>
<linearGradient id="paint10_linear_872_18402" x1="144.289" y1="-12.897" x2="121.773" y2="198.224" gradientUnits="userSpaceOnUse">
<stop stop-color="#0A3A9B"/>
<stop offset="1" stop-color="#0A6CCD" stop-opacity="0"/>
</linearGradient>
<linearGradient id="paint11_linear_872_18402" x1="143.331" y1="-21.7172" x2="119.232" y2="204.24" gradientUnits="userSpaceOnUse">
<stop stop-color="#0A3A9B"/>
<stop offset="1" stop-color="#0A6CCD" stop-opacity="0"/>
</linearGradient>
<linearGradient id="paint12_linear_872_18402" x1="142.421" y1="-30.5287" x2="116.738" y2="210.279" gradientUnits="userSpaceOnUse">
<stop stop-color="#0A3A9B"/>
<stop offset="1" stop-color="#0A6CCD" stop-opacity="0"/>
</linearGradient>
<linearGradient id="paint13_linear_872_18402" x1="141.553" y1="-39.3207" x2="114.285" y2="216.352" gradientUnits="userSpaceOnUse">
<stop stop-color="#0A3A9B"/>
<stop offset="1" stop-color="#0A6CCD" stop-opacity="0"/>
</linearGradient>
<linearGradient id="paint14_linear_872_18402" x1="140.773" y1="-48.1272" x2="111.922" y2="222.384" gradientUnits="userSpaceOnUse">
<stop stop-color="#0A3A9B"/>
<stop offset="1" stop-color="#0A6CCD" stop-opacity="0"/>
</linearGradient>
<linearGradient id="paint15_linear_872_18402" x1="140.016" y1="-56.9536" x2="109.574" y2="228.475" gradientUnits="userSpaceOnUse">
<stop stop-color="#0A3A9B"/>
<stop offset="1" stop-color="#0A6CCD" stop-opacity="0"/>
</linearGradient>
<linearGradient id="paint16_linear_872_18402" x1="139.333" y1="-65.7309" x2="107.304" y2="234.581" gradientUnits="userSpaceOnUse">
<stop stop-color="#0A3A9B"/>
<stop offset="1" stop-color="#0A6CCD" stop-opacity="0"/>
</linearGradient>
<linearGradient id="paint17_linear_872_18402" x1="138.684" y1="-74.5269" x2="105.062" y2="240.72" gradientUnits="userSpaceOnUse">
<stop stop-color="#0A3A9B"/>
<stop offset="1" stop-color="#0A6CCD" stop-opacity="0"/>
</linearGradient>
<linearGradient id="paint18_linear_872_18402" x1="138.092" y1="-83.3189" x2="102.878" y2="246.857" gradientUnits="userSpaceOnUse">
<stop stop-color="#0A3A9B"/>
<stop offset="1" stop-color="#0A6CCD" stop-opacity="0"/>
</linearGradient>
<linearGradient id="paint19_linear_872_18402" x1="137.55" y1="-92.1144" x2="100.743" y2="252.997" gradientUnits="userSpaceOnUse">
<stop stop-color="#0A3A9B"/>
<stop offset="1" stop-color="#0A6CCD" stop-opacity="0"/>
</linearGradient>
<linearGradient id="paint20_linear_872_18402" x1="137.041" y1="-100.906" x2="98.6394" y2="259.16" gradientUnits="userSpaceOnUse">
<stop stop-color="#0A3A9B"/>
<stop offset="1" stop-color="#0A6CCD" stop-opacity="0"/>
</linearGradient>
<linearGradient id="paint21_linear_872_18402" x1="136.574" y1="-109.674" x2="96.579" y2="265.329" gradientUnits="userSpaceOnUse">
<stop stop-color="#0A3A9B"/>
<stop offset="1" stop-color="#0A6CCD" stop-opacity="0"/>
</linearGradient>
<clipPath id="clip0_872_18402">
<path d="M0 24C0 10.7452 10.7452 0 24 0H96C109.255 0 120 10.7452 120 24V69C120 82.2548 109.255 93 96 93H24C10.7452 93 0 82.2548 0 69V24Z" fill="white"/>
</clipPath>
</defs>
</svg>
