<svg width="20" height="20" viewBox="0 0 20 20" fill="none" xmlns="http://www.w3.org/2000/svg">
<path d="M6.23502 0.834961H2.43502C1.87497 0.834961 1.59494 0.834961 1.38103 0.943954C1.19287 1.03983 1.03989 1.19281 0.944015 1.38097C0.835022 1.59488 0.835022 1.87491 0.835022 2.43496V6.23496C0.835022 6.79501 0.835022 7.07504 0.944015 7.28895C1.03989 7.47711 1.19287 7.63009 1.38103 7.72597C1.59494 7.83496 1.87497 7.83496 2.43502 7.83496H6.23502C6.79507 7.83496 7.0751 7.83496 7.28901 7.72597C7.47717 7.63009 7.63016 7.47711 7.72603 7.28895C7.83502 7.07504 7.83502 6.79501 7.83502 6.23496V2.43496C7.83502 1.87491 7.83502 1.59488 7.72603 1.38097C7.63016 1.19281 7.47717 1.03983 7.28901 0.943954C7.0751 0.834961 6.79507 0.834961 6.23502 0.834961Z" stroke="#171C35" stroke-width="1.67" stroke-linecap="round" stroke-linejoin="round"/>
<path d="M17.235 0.834961H13.435C12.875 0.834961 12.5949 0.834961 12.381 0.943954C12.1929 1.03983 12.0399 1.19281 11.944 1.38097C11.835 1.59488 11.835 1.87491 11.835 2.43496V6.23496C11.835 6.79501 11.835 7.07504 11.944 7.28895C12.0399 7.47711 12.1929 7.63009 12.381 7.72597C12.5949 7.83496 12.875 7.83496 13.435 7.83496H17.235C17.7951 7.83496 18.0751 7.83496 18.289 7.72597C18.4772 7.63009 18.6302 7.47711 18.726 7.28895C18.835 7.07504 18.835 6.79501 18.835 6.23496V2.43496C18.835 1.87491 18.835 1.59488 18.726 1.38097C18.6302 1.19281 18.4772 1.03983 18.289 0.943954C18.0751 0.834961 17.7951 0.834961 17.235 0.834961Z" stroke="#171C35" stroke-width="1.67" stroke-linecap="round" stroke-linejoin="round"/>
<path d="M17.235 11.835H13.435C12.875 11.835 12.5949 11.835 12.381 11.944C12.1929 12.0398 12.0399 12.1928 11.944 12.381C11.835 12.5949 11.835 12.8749 11.835 13.435V17.235C11.835 17.795 11.835 18.075 11.944 18.289C12.0399 18.4771 12.1929 18.6301 12.381 18.726C12.5949 18.835 12.875 18.835 13.435 18.835H17.235C17.7951 18.835 18.0751 18.835 18.289 18.726C18.4772 18.6301 18.6302 18.4771 18.726 18.289C18.835 18.075 18.835 17.795 18.835 17.235V13.435C18.835 12.8749 18.835 12.5949 18.726 12.381C18.6302 12.1928 18.4772 12.0398 18.289 11.944C18.0751 11.835 17.7951 11.835 17.235 11.835Z" stroke="#171C35" stroke-width="1.67" stroke-linecap="round" stroke-linejoin="round"/>
<path d="M6.23502 11.835H2.43502C1.87497 11.835 1.59494 11.835 1.38103 11.944C1.19287 12.0398 1.03989 12.1928 0.944015 12.381C0.835022 12.5949 0.835022 12.8749 0.835022 13.435V17.235C0.835022 17.795 0.835022 18.075 0.944015 18.289C1.03989 18.4771 1.19287 18.6301 1.38103 18.726C1.59494 18.835 1.87497 18.835 2.43502 18.835H6.23502C6.79507 18.835 7.0751 18.835 7.28901 18.726C7.47717 18.6301 7.63016 18.4771 7.72603 18.289C7.83502 18.075 7.83502 17.795 7.83502 17.235V13.435C7.83502 12.8749 7.83502 12.5949 7.72603 12.381C7.63016 12.1928 7.47717 12.0398 7.28901 11.944C7.0751 11.835 6.79507 11.835 6.23502 11.835Z" stroke="#171C35" stroke-width="1.67" stroke-linecap="round" stroke-linejoin="round"/>
</svg>
