<svg width="14" height="15" viewBox="0 0 14 15" fill="none" xmlns="http://www.w3.org/2000/svg">
<path d="M9.5026 3.50163V2.96829C9.5026 2.22156 9.5026 1.84819 9.35728 1.56297C9.22945 1.31209 9.02547 1.10812 8.77459 0.980286C8.48938 0.834961 8.11601 0.834961 7.36927 0.834961H6.3026C5.55587 0.834961 5.1825 0.834961 4.89728 0.980286C4.6464 1.10812 4.44243 1.31209 4.3146 1.56297C4.16927 1.84819 4.16927 2.22156 4.16927 2.96829V3.50163M5.5026 7.16829V10.5016M8.16927 7.16829V10.5016M0.835938 3.50163H12.8359M11.5026 3.50163V10.9683C11.5026 12.0884 11.5026 12.6485 11.2846 13.0763C11.0929 13.4526 10.7869 13.7586 10.4106 13.9503C9.98276 14.1683 9.42271 14.1683 8.3026 14.1683H5.36927C4.24917 14.1683 3.68911 14.1683 3.26129 13.9503C2.88497 13.7586 2.579 13.4526 2.38726 13.0763C2.16927 12.6485 2.16927 12.0884 2.16927 10.9683V3.50163" stroke="#111A2D" stroke-width="1.67" stroke-linecap="round" stroke-linejoin="round"/>
</svg>
