<svg width="1115" height="266" viewBox="0 0 1115 266" fill="none" xmlns="http://www.w3.org/2000/svg">
<path d="M0.000118017 261V17.4H80.7361C97.5561 17.4 113.274 20.59 127.89 26.97C142.622 33.234 155.556 41.992 166.692 53.244C177.944 64.38 186.702 77.314 192.966 92.046C199.346 106.662 202.536 122.38 202.536 139.2C202.536 156.02 199.346 171.796 192.966 186.528C186.702 201.144 177.944 214.078 166.692 225.33C155.556 236.466 142.622 245.224 127.89 251.604C113.274 257.868 97.5561 261 80.7361 261H0.000118017ZM42.4561 218.544H80.7361C91.5241 218.544 101.674 216.514 111.186 212.454C120.814 208.278 129.282 202.594 136.59 195.402C143.898 188.094 149.64 179.684 153.816 170.172C157.992 160.544 160.08 150.22 160.08 139.2C160.08 128.18 157.992 117.914 153.816 108.402C149.64 98.89 143.898 90.48 136.59 83.172C129.282 75.864 120.872 70.18 111.36 66.12C101.848 61.944 91.6401 59.856 80.7361 59.856H42.4561V218.544ZM304.935 265.524C288.927 265.524 274.311 261.406 261.087 253.17C247.979 244.934 237.481 233.914 229.593 220.11C221.821 206.19 217.935 190.82 217.935 174C217.935 161.24 220.197 149.35 224.721 138.33C229.245 127.194 235.451 117.45 243.339 109.098C251.343 100.63 260.623 94.018 271.179 89.262C281.735 84.506 292.987 82.128 304.935 82.128C320.943 82.128 335.501 86.246 348.609 94.482C361.833 102.718 372.331 113.796 380.103 127.716C387.991 141.636 391.935 157.064 391.935 174C391.935 186.644 389.673 198.476 385.149 209.496C380.625 220.516 374.361 230.26 366.357 238.728C358.469 247.08 349.247 253.634 338.691 258.39C328.251 263.146 316.999 265.524 304.935 265.524ZM304.935 223.068C313.403 223.068 321.001 220.806 327.729 216.282C334.457 211.758 339.735 205.784 343.563 198.36C347.507 190.936 349.479 182.816 349.479 174C349.479 164.952 347.449 156.716 343.389 149.292C339.445 141.752 334.051 135.778 327.207 131.37C320.479 126.846 313.055 124.584 304.935 124.584C296.583 124.584 289.043 126.846 282.315 131.37C275.587 135.894 270.251 141.926 266.307 149.466C262.363 157.006 260.391 165.184 260.391 174C260.391 183.164 262.421 191.458 266.481 198.882C270.541 206.306 275.935 212.222 282.663 216.63C289.507 220.922 296.931 223.068 304.935 223.068ZM527.587 208.626L565.867 229.332C557.863 240.236 547.829 248.994 535.765 255.606C523.701 262.218 510.535 265.524 496.267 265.524C480.259 265.524 465.643 261.406 452.419 253.17C439.311 244.934 428.813 233.914 420.925 220.11C413.153 206.19 409.267 190.82 409.267 174C409.267 161.24 411.529 149.35 416.053 138.33C420.577 127.194 426.783 117.45 434.671 109.098C442.675 100.63 451.955 94.018 462.511 89.262C473.067 84.506 484.319 82.128 496.267 82.128C510.535 82.128 523.701 85.434 535.765 92.046C547.829 98.658 557.863 107.532 565.867 118.668L527.587 139.2C523.527 134.56 518.713 130.964 513.145 128.412C507.693 125.86 502.067 124.584 496.267 124.584C487.915 124.584 480.375 126.904 473.647 131.544C466.919 136.068 461.583 142.1 457.639 149.64C453.695 157.064 451.723 165.184 451.723 174C451.723 182.7 453.695 190.82 457.639 198.36C461.583 205.784 466.919 211.758 473.647 216.282C480.375 220.806 487.915 223.068 496.267 223.068C502.299 223.068 508.041 221.792 513.493 219.24C518.945 216.572 523.643 213.034 527.587 208.626ZM591.668 261V-2.07424e-05H634.124V261H591.668ZM675.949 87H718.405V261H675.949V87ZM697.525 64.554C691.261 64.554 685.983 62.524 681.691 58.464C677.399 54.288 675.253 49.068 675.253 42.804C675.253 36.656 677.399 31.494 681.691 27.318C685.983 23.142 691.203 21.054 697.351 21.054C703.499 21.054 708.661 23.142 712.837 27.318C717.129 31.494 719.275 36.656 719.275 42.804C719.275 49.068 717.187 54.288 713.011 58.464C708.835 62.524 703.673 64.554 697.525 64.554ZM918.255 151.032V261H875.799V162.168C875.799 155.324 874.117 149.118 870.753 143.55C867.389 137.866 862.865 133.4 857.181 130.152C851.613 126.788 845.407 125.106 838.563 125.106C831.719 125.106 825.455 126.788 819.771 130.152C814.203 133.4 809.737 137.866 806.373 143.55C803.125 149.118 801.501 155.324 801.501 162.168V261H759.045L758.871 87H801.327L801.501 102.486C807.417 96.222 814.493 91.292 822.729 87.696C830.965 83.984 839.839 82.128 849.351 82.128C861.995 82.128 873.537 85.26 883.977 91.524C894.417 97.672 902.711 105.966 908.859 116.406C915.123 126.73 918.255 138.272 918.255 151.032ZM1026.08 265.524C1010.08 265.524 995.46 261.406 982.236 253.17C969.128 244.934 958.63 233.856 950.742 219.936C942.97 206.016 939.084 190.646 939.084 173.826C939.084 161.182 941.346 149.35 945.87 138.33C950.394 127.194 956.6 117.45 964.488 109.098C972.492 100.63 981.772 94.018 992.328 89.262C1002.88 84.506 1014.14 82.128 1026.08 82.128C1039.66 82.128 1052.07 85.028 1063.32 90.828C1074.69 96.512 1084.32 104.342 1092.2 114.318C1100.09 124.294 1105.83 135.662 1109.43 148.422C1113.03 161.182 1113.84 174.522 1111.87 188.442H984.672C986.296 194.938 988.964 200.796 992.676 206.016C996.388 211.12 1001.09 215.238 1006.77 218.37C1012.45 221.386 1018.89 222.952 1026.08 223.068C1033.51 223.184 1040.24 221.444 1046.27 217.848C1052.42 214.136 1057.52 209.148 1061.58 202.884L1104.91 212.976C1097.83 228.404 1087.27 241.048 1073.24 250.908C1059.2 260.652 1043.48 265.524 1026.08 265.524ZM983.28 156.6H1068.89C1067.61 149.64 1064.89 143.376 1060.71 137.808C1056.65 132.124 1051.6 127.6 1045.57 124.236C1039.54 120.872 1033.04 119.19 1026.08 119.19C1019.12 119.19 1012.69 120.872 1006.77 124.236C1000.85 127.484 995.808 131.95 991.632 137.634C987.572 143.202 984.788 149.524 983.28 156.6Z" fill="#171C35"/>
</svg>
