<svg width="10" height="17" viewBox="0 0 10 17" fill="none" xmlns="http://www.w3.org/2000/svg">
<path d="M4.58333 16.6667C3.30556 16.6667 2.22222 16.2222 1.33333 15.3333C0.444444 14.4444 0 13.3611 0 12.0833V3.33333C0 2.41667 0.326389 1.63194 0.979167 0.979167C1.63194 0.326389 2.41667 0 3.33333 0C4.25 0 5.03472 0.326389 5.6875 0.979167C6.34028 1.63194 6.66667 2.41667 6.66667 3.33333V11.25C6.66667 11.8333 6.46528 12.3264 6.0625 12.7292C5.65972 13.1319 5.16667 13.3333 4.58333 13.3333C4 13.3333 3.50694 13.1319 3.10417 12.7292C2.70139 12.3264 2.5 11.8333 2.5 11.25V3.33333H3.75V11.25C3.75 11.4861 3.83 11.6839 3.99 11.8433C4.14944 12.0033 4.34722 12.0833 4.58333 12.0833C4.81944 12.0833 5.0175 12.0033 5.1775 11.8433C5.33695 11.6839 5.41667 11.4861 5.41667 11.25V3.33333C5.41667 2.75 5.21528 2.25694 4.8125 1.85417C4.40972 1.45139 3.91667 1.25 3.33333 1.25C2.75 1.25 2.25694 1.45139 1.85417 1.85417C1.45139 2.25694 1.25 2.75 1.25 3.33333V12.0833C1.25 13 1.57639 13.7847 2.22917 14.4375C2.88194 15.0903 3.66667 15.4167 4.58333 15.4167C5.5 15.4167 6.28472 15.0903 6.9375 14.4375C7.59028 13.7847 7.91667 13 7.91667 12.0833V3.33333H9.16667V12.0833C9.16667 13.3611 8.72222 14.4444 7.83333 15.3333C6.94444 16.2222 5.86111 16.6667 4.58333 16.6667Z" fill="#171C35"/>
</svg>
