<svg width="17" height="16" viewBox="0 0 17 16" fill="none" xmlns="http://www.w3.org/2000/svg">
<path d="M8.33518 15.1027H15.8352M0.835205 15.1027H2.23066C2.63831 15.1027 2.84213 15.1027 3.03395 15.0567C3.20401 15.0159 3.36658 14.9485 3.5157 14.8571C3.6839 14.7541 3.82802 14.6099 4.11628 14.3217L14.5852 3.85273C15.2756 3.16237 15.2756 2.04308 14.5852 1.35273C13.8949 0.662372 12.7756 0.662373 12.0852 1.35273L1.61626 11.8217C1.328 12.1099 1.18388 12.2541 1.08081 12.4223C0.989424 12.5714 0.922083 12.7339 0.881255 12.904C0.835205 13.0958 0.835205 13.2996 0.835205 13.7073V15.1027Z" stroke="#171C35" stroke-width="1.67" stroke-linecap="round" stroke-linejoin="round"/>
</svg>
