<svg width="16" height="16" viewBox="0 0 16 16" fill="none" xmlns="http://www.w3.org/2000/svg">
<path d="M6.83594 2.24918H4.03594C2.91583 2.24918 2.35578 2.24918 1.92796 2.46716C1.55163 2.65891 1.24567 2.96487 1.05392 3.34119C0.835938 3.76902 0.835938 4.32907 0.835938 5.44918V11.0492C0.835938 12.1693 0.835938 12.7293 1.05392 13.1572C1.24567 13.5335 1.55163 13.8394 1.92796 14.0312C2.35578 14.2492 2.91583 14.2492 4.03594 14.2492H9.63594C10.756 14.2492 11.3161 14.2492 11.7439 14.0312C12.1202 13.8394 12.4262 13.5335 12.618 13.1572C12.8359 12.7293 12.8359 12.1693 12.8359 11.0492V8.24918M4.83592 10.2492H5.95228C6.2784 10.2492 6.44146 10.2492 6.59491 10.2123C6.73096 10.1797 6.86102 10.1258 6.98032 10.0527C7.11487 9.97024 7.23017 9.85494 7.46078 9.62434L13.8359 3.24918C14.3882 2.69689 14.3882 1.80146 13.8359 1.24917C13.2837 0.69689 12.3882 0.69689 11.8359 1.24917L5.46076 7.62434C5.23016 7.85494 5.11486 7.97024 5.0324 8.1048C4.9593 8.22409 4.90542 8.35415 4.87276 8.4902C4.83592 8.64365 4.83592 8.80671 4.83592 9.13283V10.2492Z" stroke="#111A2D" stroke-width="1.67" stroke-linecap="round" stroke-linejoin="round"/>
</svg>
