<svg width="19" height="14" viewBox="0 0 19 14" fill="none" xmlns="http://www.w3.org/2000/svg">
<path d="M1.05485 7.26261C0.941366 7.08291 0.884621 6.99306 0.852856 6.85447C0.828996 6.75038 0.828996 6.58621 0.852856 6.48211C0.884621 6.34353 0.941366 6.25368 1.05485 6.07398C1.99269 4.58899 4.78425 0.834961 9.03842 0.834961C13.2926 0.834961 16.0842 4.58899 17.022 6.07398C17.1355 6.25368 17.1922 6.34353 17.224 6.48211C17.2478 6.58621 17.2478 6.75038 17.224 6.85447C17.1922 6.99306 17.1355 7.08291 17.022 7.26261C16.0842 8.74759 13.2926 12.5016 9.03842 12.5016C4.78425 12.5016 1.99269 8.74759 1.05485 7.26261Z" stroke="#111A2D" stroke-width="1.67" stroke-linecap="round" stroke-linejoin="round"/>
<path d="M9.03842 9.16829C10.4191 9.16829 11.5384 8.04901 11.5384 6.66829C11.5384 5.28758 10.4191 4.16829 9.03842 4.16829C7.65771 4.16829 6.53842 5.28758 6.53842 6.66829C6.53842 8.04901 7.65771 9.16829 9.03842 9.16829Z" stroke="#111A2D" stroke-width="1.67" stroke-linecap="round" stroke-linejoin="round"/>
</svg>
