<svg width="19" height="17" viewBox="0 0 19 17" fill="none" xmlns="http://www.w3.org/2000/svg">
<path d="M7.99054 2.57856C8.32922 2.52849 8.67859 2.50163 9.03843 2.50163C13.2926 2.50163 16.0842 6.25566 17.022 7.74065C17.1355 7.92038 17.1923 8.01024 17.224 8.14886C17.2479 8.25295 17.2479 8.41718 17.224 8.52127C17.1922 8.65988 17.1351 8.75034 17.0207 8.93127C16.7709 9.32675 16.3899 9.88255 15.8852 10.4853M4.64169 3.93082C2.83996 5.15304 1.61679 6.85111 1.05567 7.73936C0.941657 7.91985 0.884648 8.0101 0.852869 8.1487C0.829 8.25279 0.828991 8.417 0.852847 8.52109C0.884611 8.65969 0.941362 8.74956 1.05486 8.92928C1.9927 10.4143 4.78426 14.1683 9.03843 14.1683C10.7538 14.1683 12.2313 13.558 13.4454 12.7321M1.53843 0.834961L16.5384 15.835M7.27067 6.56719C6.81825 7.0196 6.53843 7.6446 6.53843 8.33496C6.53843 9.71567 7.65772 10.835 9.03843 10.835C9.72879 10.835 10.3538 10.5551 10.8062 10.1027" stroke="#111A2D" stroke-width="1.67" stroke-linecap="round" stroke-linejoin="round"/>
</svg>
