<svg width="17" height="18" viewBox="0 0 17 18" fill="none" xmlns="http://www.w3.org/2000/svg">
<path d="M5.00016 13.1106H11.6668M7.51491 1.2473L1.86299 5.64324C1.48518 5.93709 1.29628 6.08402 1.16019 6.26802C1.03963 6.43101 0.949831 6.61462 0.895186 6.80985C0.833496 7.03024 0.833496 7.26955 0.833496 7.74818V13.7773C0.833496 14.7107 0.833496 15.1774 1.01515 15.5339C1.17494 15.8475 1.42991 16.1025 1.74351 16.2623C2.10003 16.444 2.56674 16.444 3.50016 16.444H13.1668C14.1003 16.444 14.567 16.444 14.9235 16.2623C15.2371 16.1025 15.4921 15.8475 15.6518 15.5339C15.8335 15.1774 15.8335 14.7107 15.8335 13.7773V7.74818C15.8335 7.26955 15.8335 7.03024 15.7718 6.80985C15.7172 6.61462 15.6274 6.43101 15.5068 6.26802C15.3707 6.08402 15.1818 5.93709 14.804 5.64324L9.15208 1.2473C8.85931 1.01959 8.71293 0.905736 8.55129 0.86197C8.40866 0.823354 8.25833 0.823354 8.11571 0.86197C7.95407 0.905736 7.80768 1.01959 7.51491 1.2473Z" stroke="#667085" stroke-width="1.66667" stroke-linecap="round" stroke-linejoin="round"/>
</svg>
