<svg width="358" height="89" viewBox="0 0 358 89" fill="none" xmlns="http://www.w3.org/2000/svg">
<rect width="438" height="44.094" rx="22.047" fill="#526FFF" fill-opacity="0.5"/>
<g clip-path="url(#clip0_1439_13651)">
<rect x="7.34961" y="7.34961" width="70.5503" height="29.396" rx="14.698" fill="white"/>
<g clip-path="url(#clip1_1439_13651)">
<rect x="-10.2871" y="-12.8594" width="752.537" height="752.537" rx="73.4899" fill="#F0F4FE"/>
<circle opacity="0.0227273" cx="50.5674" cy="29.6559" r="27.2944" transform="rotate(118.254 50.5674 29.6559)" stroke="#526FFF" stroke-width="0.36745"/>
<circle opacity="0.0454545" cx="48.0693" cy="29.5843" r="27.2944" transform="rotate(-61.7463 48.0693 29.5843)" stroke="#526FFF" stroke-width="0.36745"/>
<circle opacity="0.0681818" cx="45.5713" cy="29.5094" r="27.2944" transform="rotate(118.254 45.5713 29.5094)" stroke="#526FFF" stroke-width="0.36745"/>
<circle opacity="0.0909091" cx="43.0732" cy="29.4339" r="27.2944" transform="rotate(-61.7463 43.0732 29.4339)" stroke="#526FFF" stroke-width="0.36745"/>
<circle opacity="0.113636" cx="40.5752" cy="29.359" r="27.2944" transform="rotate(118.254 40.5752 29.359)" stroke="#526FFF" stroke-width="0.36745"/>
<circle opacity="0.136364" cx="38.0771" cy="29.2875" r="27.2944" transform="rotate(-61.7463 38.0771 29.2875)" stroke="#526FFF" stroke-width="0.36745"/>
<circle opacity="0.159091" cx="35.5791" cy="29.2125" r="27.2944" transform="rotate(118.254 35.5791 29.2125)" stroke="#526FFF" stroke-width="0.36745"/>
<circle opacity="0.181818" cx="33.081" cy="29.139" r="27.2944" transform="rotate(-61.7463 33.081 29.139)" stroke="#526FFF" stroke-width="0.36745"/>
<circle opacity="0.204545" cx="30.583" cy="29.0641" r="27.2944" transform="rotate(118.254 30.583 29.0641)" stroke="#526FFF" stroke-width="0.36745"/>
<circle opacity="0.227273" cx="28.0849" cy="28.9906" r="27.2944" transform="rotate(-61.7463 28.0849 28.9906)" stroke="#526FFF" stroke-width="0.36745"/>
<circle opacity="0.25" cx="25.5869" cy="28.9157" r="27.2944" transform="rotate(118.254 25.5869 28.9157)" stroke="#526FFF" stroke-width="0.36745"/>
<circle opacity="0.272727" cx="23.0889" cy="28.8421" r="27.2944" transform="rotate(-61.7463 23.0889 28.8421)" stroke="#526FFF" stroke-width="0.36745"/>
<circle opacity="0.295455" cx="20.5908" cy="28.7672" r="27.2944" transform="rotate(118.254 20.5908 28.7672)" stroke="#526FFF" stroke-width="0.36745"/>
<circle opacity="0.318182" cx="18.0928" cy="28.6957" r="27.2944" transform="rotate(-61.7463 18.0928 28.6957)" stroke="#526FFF" stroke-width="0.36745"/>
<circle opacity="0.340909" cx="15.5947" cy="28.6207" r="27.2944" transform="rotate(118.254 15.5947 28.6207)" stroke="#526FFF" stroke-width="0.36745"/>
<circle opacity="0.363636" cx="13.0967" cy="28.5472" r="27.2944" transform="rotate(-61.7463 13.0967 28.5472)" stroke="#526FFF" stroke-width="0.36745"/>
<circle opacity="0.386364" cx="10.5986" cy="28.4723" r="27.2944" transform="rotate(118.254 10.5986 28.4723)" stroke="#526FFF" stroke-width="0.36745"/>
<circle opacity="0.409091" cx="8.10057" cy="28.3988" r="27.2944" transform="rotate(-61.7463 8.10057 28.3988)" stroke="#526FFF" stroke-width="0.36745"/>
<circle opacity="0.431818" cx="5.60255" cy="28.3239" r="27.2944" transform="rotate(118.254 5.60255 28.3239)" stroke="#526FFF" stroke-width="0.36745"/>
<circle opacity="0.477273" cx="3.10646" cy="28.2438" r="27.2944" transform="rotate(118.254 3.10646 28.2438)" stroke="#526FFF" stroke-width="0.36745"/>
<circle opacity="0.5" cx="0.608384" cy="28.1722" r="27.2944" transform="rotate(-61.7463 0.608384 28.1722)" stroke="#526FFF" stroke-width="0.36745"/>
<circle opacity="0.522727" cx="-1.89354" cy="28.0954" r="27.2944" transform="rotate(118.254 -1.89354 28.0954)" stroke="#526FFF" stroke-width="0.36745"/>
<circle opacity="0.545455" cx="-4.38771" cy="28.0238" r="27.2944" transform="rotate(-61.7463 -4.38771 28.0238)" stroke="#526FFF" stroke-width="0.36745"/>
<circle opacity="0.568182" cx="-6.88573" cy="27.9489" r="27.2944" transform="rotate(118.254 -6.88573 27.9489)" stroke="#526FFF" stroke-width="0.36745"/>
<circle opacity="0.590909" cx="-9.38771" cy="27.8754" r="27.2944" transform="rotate(-61.7463 -9.38771 27.8754)" stroke="#526FFF" stroke-width="0.36745"/>
<circle opacity="0.613636" cx="-11.8857" cy="27.8004" r="27.2944" transform="rotate(118.254 -11.8857 27.8004)" stroke="#526FFF" stroke-width="0.36745"/>
<circle opacity="0.636364" cx="-14.3799" cy="27.7269" r="27.2944" transform="rotate(-61.7463 -14.3799 27.7269)" stroke="#526FFF" stroke-width="0.36745"/>
<circle opacity="0.659091" cx="-16.8779" cy="27.652" r="27.2944" transform="rotate(118.254 -16.8779 27.652)" stroke="#526FFF" stroke-width="0.36745"/>
<circle opacity="0.681818" cx="-19.376" cy="27.5804" r="27.2944" transform="rotate(-61.7463 -19.376 27.5804)" stroke="#526FFF" stroke-width="0.36745"/>
<circle opacity="0.704545" cx="-21.874" cy="27.5055" r="27.2944" transform="rotate(118.254 -21.874 27.5055)" stroke="#526FFF" stroke-width="0.36745"/>
<circle opacity="0.727273" cx="-24.376" cy="27.43" r="27.2944" transform="rotate(-61.7463 -24.376 27.43)" stroke="#526FFF" stroke-width="0.36745"/>
<circle opacity="0.75" cx="-26.874" cy="27.3571" r="27.2944" transform="rotate(118.254 -26.874 27.3571)" stroke="#526FFF" stroke-width="0.36745"/>
<circle opacity="0.772727" cx="-29.3682" cy="27.2836" r="27.2944" transform="rotate(-61.7463 -29.3682 27.2836)" stroke="#526FFF" stroke-width="0.36745"/>
</g>
</g>
<g clip-path="url(#clip2_1439_13651)">
<rect x="77.8984" y="7.34961" width="70.5503" height="29.396" rx="14.698" fill="white"/>
<path opacity="0.0227273" d="M129.845 65.0334C112.207 77.5448 89.901 75.7662 79.9752 61.2734C70.0495 46.7802 76.1294 24.8659 93.7678 12.3545C111.406 -0.156983 133.713 1.62214 143.638 16.1153C153.564 30.6085 147.483 52.5221 129.845 65.0334Z" stroke="#526FFF" stroke-width="0.734899"/>
<path opacity="0.0454545" d="M127.196 65.9531C108.869 76.6678 87.2041 73.0271 78.7388 58.03C70.2737 43.0329 78.0976 22.1526 96.4244 11.4376C114.751 0.72269 136.417 4.36229 144.882 19.3594C153.347 34.3566 145.523 55.2381 127.196 65.9531Z" stroke="#526FFF" stroke-width="0.734899"/>
<path opacity="0.0681818" d="M124.529 66.6049C105.684 75.4978 84.8055 70.0948 77.8101 54.74C70.8147 39.3853 80.2521 19.6762 99.097 10.7832C117.942 1.89044 138.82 7.29339 145.816 22.6481C152.811 38.0028 143.373 57.7118 124.529 66.6049Z" stroke="#526FFF" stroke-width="0.734899"/>
<path opacity="0.0909091" d="M121.867 66.9962C102.674 74.0581 82.7167 67.0032 77.1867 51.4352C71.6569 35.8671 82.5679 17.4545 101.761 10.3926C120.953 3.33084 140.911 10.3856 146.441 25.9536C151.97 41.5216 141.059 59.9343 121.867 66.9962Z" stroke="#526FFF" stroke-width="0.734899"/>
<path opacity="0.113636" d="M119.233 67.1326C99.86 72.3704 80.9452 63.7839 76.8633 48.1432C72.7815 32.5025 85.0169 15.4951 104.39 10.2573C123.763 5.01969 142.678 13.6052 146.76 29.2458C150.842 44.8864 138.606 61.8947 119.233 67.1326Z" stroke="#526FFF" stroke-width="0.734899"/>
<path opacity="0.136364" d="M116.657 67.0211C97.2664 70.4572 79.5017 60.4692 76.8372 44.892C74.1729 29.3145 87.5764 13.8024 106.967 10.3662C126.357 6.93016 144.122 16.9189 146.786 32.4963C149.45 48.0735 136.047 63.5849 116.657 67.0211Z" stroke="#526FFF" stroke-width="0.734899"/>
<path opacity="0.159091" d="M114.154 66.6751C94.9048 68.347 78.3837 57.0934 77.0947 41.7092C75.8057 26.3249 90.2159 12.3849 109.465 10.713C128.715 9.04124 145.236 20.2947 146.525 35.6789C147.814 51.0632 133.403 65.0032 114.154 66.6751Z" stroke="#526FFF" stroke-width="0.734899"/>
<path opacity="0.181818" d="M111.753 66.1068C92.796 66.0657 77.598 53.6889 77.6307 38.6207C77.6634 23.5526 92.9149 11.2426 111.872 11.2837C130.828 11.3248 146.026 23.7007 145.994 38.7688C145.961 53.837 130.71 66.1478 111.753 66.1068Z" stroke="#526FFF" stroke-width="0.734899"/>
<path opacity="0.204545" d="M109.461 65.3286C90.9412 63.6391 77.1313 50.2862 78.4215 35.649C79.7118 21.0117 95.6368 10.3712 114.157 12.0606C132.677 13.75 146.488 27.103 145.198 41.7403C143.908 56.3776 127.982 67.018 109.461 65.3286Z" stroke="#526FFF" stroke-width="0.734899"/>
<path opacity="0.227273" d="M107.304 64.3591C89.3551 61.0981 76.9822 46.9176 79.4568 32.817C81.9316 18.7168 98.3631 9.77026 116.312 13.0312C134.26 16.2923 146.634 30.472 144.159 44.5723C141.685 58.6728 125.253 67.62 107.304 64.3591Z" stroke="#526FFF" stroke-width="0.734899"/>
<path opacity="0.25" d="M105.296 63.2127C88.0438 58.4679 77.1433 43.6115 80.7204 30.144C84.2975 16.6765 101.069 9.43025 118.321 14.1747C135.573 18.9193 146.474 33.776 142.897 47.2436C139.32 60.7112 122.548 67.9573 105.296 63.2127Z" stroke="#526FFF" stroke-width="0.734899"/>
<path opacity="0.272727" d="M103.45 61.9137C87.0092 55.7832 77.6018 40.4003 82.1925 27.6515C86.7834 14.903 103.73 9.34779 120.171 15.478C136.612 21.6084 146.021 36.9908 141.43 49.7396C136.839 62.4884 119.891 68.0441 103.45 61.9137Z" stroke="#526FFF" stroke-width="0.734899"/>
<path opacity="0.295455" d="M101.773 60.4744C86.2463 53.065 78.3371 37.3051 83.8463 25.3499C89.3555 13.3947 106.32 9.50482 121.847 16.9143C137.373 24.3239 145.282 40.0837 139.773 52.0389C134.264 63.9938 117.299 67.8838 101.773 60.4744Z" stroke="#526FFF" stroke-width="0.734899"/>
<path opacity="0.318182" d="M100.28 58.9217C85.7589 50.3474 79.3409 34.356 85.6686 23.258C91.9964 12.1601 108.824 9.89493 123.345 18.4691C137.866 27.0434 144.285 43.0352 137.957 54.1332C131.629 65.2311 114.801 67.496 100.28 58.9217Z" stroke="#526FFF" stroke-width="0.734899"/>
<path opacity="0.340909" d="M98.969 57.2719C92.268 52.4748 87.66 46.044 85.6176 39.54C83.5755 33.0366 84.1019 26.4806 87.6264 21.3817C91.1511 16.2828 97.0363 13.563 103.741 13.3211C110.446 13.0793 117.951 15.3203 124.652 20.1173C131.352 24.9143 135.96 31.3439 138.003 37.8478C140.045 44.3513 139.518 50.9071 135.994 56.0061C132.469 61.1051 126.584 63.8248 119.879 64.0667C113.174 64.3085 105.67 62.0687 98.969 57.2719Z" stroke="#526FFF" stroke-width="0.734899"/>
<path opacity="0.363636" d="M97.8543 55.5481C91.728 50.2936 87.7672 43.644 86.3042 37.1542C84.8412 30.6646 85.8779 24.3583 89.7073 19.7343C93.5367 15.1103 99.4685 13.0024 106.001 13.3705C112.534 13.7387 119.644 16.5849 125.771 21.8393C131.897 27.0938 135.858 33.7434 137.321 40.2332C138.784 46.7227 137.747 53.0291 133.918 57.6531C130.088 62.277 124.156 64.385 117.624 64.0169C111.091 63.6487 103.98 60.8024 97.8543 55.5481Z" stroke="#526FFF" stroke-width="0.734899"/>
<path opacity="0.386364" d="M96.932 53.7731C91.407 48.126 88.0946 41.3217 87.1927 34.8982C86.2909 28.4747 87.7999 22.4565 91.8802 18.3218C95.9606 14.1871 101.881 12.6777 108.189 13.6233C114.497 14.5689 121.168 17.9693 126.693 23.6166C132.218 29.2638 135.531 36.0679 136.432 42.4915C137.334 48.9151 135.825 54.9332 131.745 59.0678C127.665 63.2024 121.744 64.7119 115.437 63.7663C109.129 62.8206 102.457 59.4202 96.932 53.7731Z" stroke="#526FFF" stroke-width="0.734899"/>
<path opacity="0.409091" d="M96.2049 51.9662C91.3006 45.9917 88.6332 39.0952 88.2702 32.7866C87.9072 26.4777 89.8476 20.7836 94.1254 17.1467C98.4031 13.5099 104.254 12.5795 110.29 14.0655C116.325 15.5515 122.519 19.4505 127.423 25.4248C132.327 31.3993 134.996 38.2959 135.359 44.6046C135.722 50.9133 133.781 56.6075 129.504 60.2444C125.226 63.8813 119.375 64.8115 113.339 63.3257C107.304 61.8397 101.109 57.9407 96.2049 51.9662Z" stroke="#526FFF" stroke-width="0.734899"/>
<path opacity="0.431818" d="M95.6689 50.1469C91.3984 43.9112 89.3653 36.9839 89.5146 30.8355C89.664 24.6868 91.9921 19.3454 96.414 16.2089C100.836 13.0724 106.566 12.6979 112.286 14.6833C118.005 16.6686 123.687 21.0079 127.958 27.2436C132.228 33.4793 134.262 40.4061 134.113 46.5545C133.963 52.7032 131.635 58.0445 127.213 61.1811C122.792 64.3176 117.062 64.692 111.342 62.7067C105.622 60.7214 99.9394 56.3826 95.6689 50.1469Z" stroke="#526FFF" stroke-width="0.734899"/>
<path opacity="0.454545" d="M95.3188 48.3368C91.6888 41.9059 90.275 35.0068 90.9067 29.0604C91.5384 23.1133 94.2094 18.1486 98.7234 15.5095C103.237 12.8704 108.797 13.0231 114.163 15.4635C119.529 17.9037 124.672 22.6221 128.302 29.053C131.932 35.4841 133.347 42.3839 132.715 48.3303C132.083 54.2772 129.412 59.2413 124.898 61.8803C120.384 64.5194 114.825 64.3674 109.459 61.9272C104.093 59.487 98.9489 54.7679 95.3188 48.3368Z" stroke="#526FFF" stroke-width="0.734899"/>
<path opacity="0.477273" d="M95.1515 46.5549C92.1623 39.9936 91.3467 33.178 92.4275 27.471C93.5087 21.7632 96.4773 17.1954 101.033 15.0455C105.588 12.8957 110.933 13.5407 115.912 16.3888C120.89 19.2364 125.474 24.2736 128.464 30.8348C131.453 37.3962 132.268 44.2117 131.188 49.9187C130.106 55.6266 127.137 60.1948 122.582 62.3446C118.026 64.4942 112.682 63.8489 107.703 61.001C102.725 58.1533 98.1408 53.1162 95.1515 46.5549Z" stroke="#526FFF" stroke-width="0.734899"/>
<path opacity="0.5" d="M95.1636 44.8183C92.8091 38.1899 92.567 31.5098 94.0615 26.0754C95.5563 20.6398 98.7759 16.4829 103.325 14.8091C107.874 13.1354 112.96 14.2364 117.525 17.4423C122.088 20.6477 126.099 25.9411 128.453 32.5695C130.808 39.1979 131.05 45.8771 129.555 51.3115C128.06 56.747 124.842 60.9046 120.293 62.5784C115.744 64.2522 110.656 63.1508 106.092 59.9446C101.529 56.7392 97.518 51.4465 95.1636 44.8183Z" stroke="#526FFF" stroke-width="0.734899"/>
<path opacity="0.522727" d="M95.3411 43.1462C93.6098 36.5123 93.9126 30.017 95.7827 24.884C97.6534 19.7498 101.076 16.0119 105.573 14.796C110.07 13.5802 114.864 15.0965 118.991 18.6093C123.118 22.1211 126.547 27.6073 128.279 34.2412C130.01 40.8751 129.707 47.3703 127.837 52.5033C125.966 57.6379 122.543 61.3768 118.046 62.5926C113.55 63.8082 108.756 62.2909 104.628 58.7781C100.502 55.2662 97.0724 49.7802 95.3411 43.1462Z" stroke="#526FFF" stroke-width="0.734899"/>
<path opacity="0.545455" d="M95.672 41.5539C94.5465 34.973 95.3603 28.7066 97.5664 23.8991C99.7734 19.0897 103.354 15.7746 107.756 14.9944C112.158 14.2142 116.629 16.1027 120.303 19.8699C123.975 23.6357 126.821 29.2538 127.946 35.8345C129.072 42.4153 128.259 48.6817 126.053 53.4892C123.846 58.2985 120.265 61.6139 115.863 62.394C111.461 63.174 106.99 61.2852 103.316 57.5183C99.644 53.7526 96.7976 48.1346 95.672 41.5539Z" stroke="#526FFF" stroke-width="0.734899"/>
<path opacity="0.568182" d="M96.1485 40.0551C95.6062 33.583 96.894 27.5854 99.3954 23.1228C101.898 18.6581 105.591 15.7642 109.86 15.3935C114.129 15.0227 118.25 17.2379 121.459 21.2065C124.667 25.1732 126.934 30.8621 127.476 37.3342C128.018 43.8063 126.73 49.8039 124.229 54.2665C121.726 58.7311 118.033 61.625 113.764 61.9958C109.496 62.3665 105.375 60.1513 102.165 56.1827C98.9578 52.216 96.6907 46.5271 96.1485 40.0551Z" stroke="#526FFF" stroke-width="0.734899"/>
<path opacity="0.590909" d="M96.7492 38.661C96.7629 32.3498 98.486 26.6563 101.241 22.5535C103.998 18.4482 107.76 15.97 111.86 15.9788C115.96 15.9879 119.71 18.4824 122.449 22.5995C125.187 26.7141 126.885 32.415 126.871 38.7263C126.858 45.0375 125.134 50.731 122.379 54.8338C119.622 58.9389 115.861 61.4172 111.762 61.4084C107.662 61.3995 103.91 58.905 101.171 54.7878C98.434 50.6732 96.7356 44.9722 96.7492 38.661Z" stroke="#526FFF" stroke-width="0.734899"/>
<path opacity="0.613636" d="M97.4662 37.3855C98.0041 31.2831 100.12 25.9237 103.088 22.1909C106.057 18.4553 109.847 16.3825 113.746 16.7382C117.646 17.0941 121.011 19.8195 123.28 24.0328C125.547 28.2432 126.693 33.9 126.155 40.0025C125.617 46.105 123.5 51.4643 120.533 55.1972C117.564 58.9326 113.775 61.0055 109.875 60.6499C105.976 60.2942 102.609 57.5687 100.341 53.3552C98.0735 49.1449 96.9282 43.488 97.4662 37.3855Z" stroke="#526FFF" stroke-width="0.734899"/>
<path opacity="0.636364" d="M98.2812 36.2365C99.3079 30.3862 101.775 25.3857 104.913 22.0283C108.054 18.6682 111.83 16.9874 115.502 17.6546C119.175 18.3218 122.146 21.2282 123.95 25.487C125.752 29.742 126.365 35.3019 125.338 41.1522C124.312 47.0023 121.846 52.0023 118.708 55.3596C115.567 58.72 111.79 60.4014 108.117 59.7341C104.445 59.0668 101.474 56.1596 99.6705 51.9009C97.8683 47.646 97.2546 42.0866 98.2812 36.2365Z" stroke="#526FFF" stroke-width="0.734899"/>
<path opacity="0.659091" d="M99.1784 35.2206C100.655 29.6615 103.427 25.0413 106.695 22.0606C109.967 19.0766 113.694 17.7679 117.117 18.7094C120.54 19.651 123.111 22.6917 124.46 26.9464C125.808 31.1965 125.915 36.6085 124.439 42.1676C122.962 47.7267 120.19 52.3468 116.922 55.3275C113.65 58.3114 109.924 59.6203 106.501 58.679C103.078 57.7375 100.506 54.6967 99.1568 50.4418C97.8091 46.1916 97.7018 40.7796 99.1784 35.2206Z" stroke="#526FFF" stroke-width="0.734899"/>
<path opacity="0.681818" d="M100.143 34.3439C102.028 29.11 105.06 24.8846 108.419 22.2775C111.782 19.6669 115.425 18.71 118.581 19.8866C121.737 21.0635 123.911 24.1892 124.821 28.3932C125.729 32.5915 125.359 37.8096 123.475 43.0435C121.59 48.2776 118.559 52.5041 115.2 55.1113C111.836 57.7219 108.193 58.6786 105.036 57.5017C101.88 56.3248 99.7076 53.1993 98.798 48.9955C97.8895 44.7971 98.2586 39.578 100.143 34.3439Z" stroke="#526FFF" stroke-width="0.734899"/>
<path opacity="0.704545" d="M101.16 33.6099C103.409 28.7297 106.655 24.9082 110.067 22.6674C113.484 20.423 117.013 19.7937 119.889 21.1658C122.765 22.5382 124.547 25.7022 125.036 29.8111C125.525 33.9132 124.714 38.8967 122.465 43.7768C120.216 48.6569 116.97 52.4786 113.558 54.7193C110.141 56.9636 106.611 57.5928 103.735 56.2204C100.859 54.848 99.0778 51.6841 98.5882 47.5756C98.0994 43.4735 98.9109 38.49 101.16 33.6099Z" stroke="#526FFF" stroke-width="0.734899"/>
<path opacity="0.727273" d="M102.206 33.0225C104.774 28.5195 108.19 25.107 111.619 23.2217C115.054 21.3329 118.442 21.0038 121.029 22.5314C123.616 24.059 125.017 27.2157 125.11 31.1882C125.203 35.153 123.987 39.8644 121.42 44.3674C118.852 48.8703 115.436 52.2821 112.008 54.1674C108.572 56.0563 105.184 56.3862 102.597 54.8585C100.01 53.3309 98.6096 50.1735 98.5163 46.2009C98.4232 42.2361 99.639 37.5254 102.206 33.0225Z" stroke="#526FFF" stroke-width="0.734899"/>
<path opacity="0.75" d="M103.263 32.5767C106.103 28.469 109.643 25.4657 113.055 23.9215C116.475 22.3736 119.7 22.315 121.994 23.9575C124.289 25.6002 125.324 28.7085 125.049 32.5072C124.774 36.2971 123.193 40.7031 120.353 44.8107C117.514 48.9182 113.974 51.921 110.562 53.4652C107.142 55.013 103.917 55.0718 101.623 53.4291C99.3281 51.7863 98.2926 48.6782 98.5683 44.8794C98.8434 41.0897 100.424 36.6842 103.263 32.5767Z" stroke="#526FFF" stroke-width="0.734899"/>
<path opacity="0.772727" d="M104.325 32.2734C107.389 28.574 111.011 25.9767 114.375 24.7561C117.75 23.5319 120.79 23.7131 122.793 25.4312C124.796 27.1493 125.487 30.1683 124.873 33.7599C124.261 37.3408 122.358 41.4135 119.295 45.1128C116.231 48.8123 112.609 51.4108 109.244 52.6315C105.87 53.8557 102.829 53.6743 100.826 51.9564C98.8232 50.2383 98.1326 47.2193 98.7467 43.6276C99.3589 40.0465 101.261 35.9729 104.325 32.2734Z" stroke="#526FFF" stroke-width="0.734899"/>
<path opacity="0.795455" d="M105.367 32.11C108.608 28.826 112.272 26.6237 115.561 25.7063C118.861 24.7857 121.702 25.1758 123.419 26.9305C125.135 28.6852 125.506 31.5775 124.587 34.9323C123.671 38.2752 121.492 41.9945 118.251 45.2786C115.01 48.5625 111.346 50.7642 108.057 51.6816C104.757 52.6022 101.916 52.2132 100.199 50.4588C98.4824 48.7041 98.112 45.8107 99.031 42.4555C99.9466 39.1127 102.126 35.394 105.367 32.11Z" stroke="#526FFF" stroke-width="0.734899"/>
<path opacity="0.818182" d="M106.381 32.0776C109.752 29.2113 113.418 27.3923 116.606 26.7556C119.809 26.1161 122.438 26.6808 123.878 28.4348C125.318 30.1889 125.397 32.9228 124.208 36.0164C123.026 39.096 120.614 42.4432 117.242 45.3095C113.871 48.1758 110.206 49.9955 107.017 50.6322C103.815 51.2719 101.184 50.7071 99.7445 48.953C98.3047 47.1988 98.227 44.4649 99.4153 41.3714C100.598 38.2918 103.009 34.9439 106.381 32.0776Z" stroke="#526FFF" stroke-width="0.734899"/>
<path opacity="0.840909" d="M107.346 32.1722C110.802 29.7207 114.434 28.2677 117.5 27.8869C120.584 27.5039 122.994 28.2111 124.171 29.9294C125.348 31.6477 125.165 34.1935 123.745 37.0053C122.332 39.8011 119.736 42.7662 116.28 45.2177C112.824 47.6692 109.192 49.1222 106.125 49.503C103.042 49.8859 100.632 49.1793 99.4548 47.4613C98.278 45.743 98.4604 43.1965 99.8807 40.3846C101.293 37.5889 103.889 34.6237 107.346 32.1722Z" stroke="#526FFF" stroke-width="0.734899"/>
<path opacity="0.863636" d="M108.249 32.3811C111.745 30.3369 115.31 29.2305 118.236 29.0793C121.183 28.9271 123.37 29.7428 124.301 31.3922C125.232 33.0417 124.823 35.3751 123.209 37.8898C121.607 40.386 118.872 42.9624 115.376 45.0067C111.879 47.051 108.314 48.1579 105.388 48.309C102.44 48.4612 100.254 47.6455 99.3225 45.996C98.3915 44.3466 98.8007 42.0131 100.415 39.4985C102.017 37.0022 104.752 34.4255 108.249 32.3811Z" stroke="#526FFF" stroke-width="0.734899"/>
<path opacity="0.886364" d="M109.078 32.6978C112.573 31.0485 116.041 30.2644 118.812 30.3156C121.61 30.3673 123.572 31.2604 124.278 32.8107C124.985 34.361 124.386 36.4616 122.617 38.6683C120.865 40.8542 118.037 43.0412 114.542 44.6906C111.046 46.3399 107.579 47.1241 104.807 47.0728C102.01 47.021 100.048 46.1286 99.3414 44.5786C98.6351 43.0283 99.2332 40.9268 101.002 38.7201C102.754 36.5342 105.583 34.3472 109.078 32.6978Z" stroke="#526FFF" stroke-width="0.734899"/>
<path opacity="0.909091" d="M109.827 33.1077C113.281 31.8368 116.625 31.3501 119.231 31.5756C121.87 31.804 123.61 32.7424 124.116 34.166C124.621 35.5897 123.873 37.4441 121.988 39.3369C120.126 41.2063 117.249 43.0075 113.795 44.2784C110.341 45.5493 106.997 46.0369 104.391 45.8115C101.753 45.5831 100.012 44.6445 99.5063 43.221C99.0006 41.7974 99.7493 39.9431 101.634 38.0502C103.496 36.1808 106.373 34.3787 109.827 33.1077Z" stroke="#526FFF" stroke-width="0.734899"/>
<path opacity="0.931818" d="M110.483 33.6027C113.859 32.6899 117.057 32.4721 119.49 32.8437C120.707 33.0296 121.716 33.3604 122.458 33.8105C123.198 34.2593 123.653 34.8135 123.819 35.4485C123.985 36.0835 123.86 36.7947 123.436 37.558C123.011 38.3236 122.297 39.1203 121.331 39.8966C119.399 41.4482 116.517 42.8741 113.141 43.787C109.764 44.6999 106.566 44.9179 104.133 44.5462C102.916 44.3603 101.907 44.0292 101.165 43.5792C100.425 43.1304 99.9692 42.5765 99.8035 41.9414C99.6377 41.3064 99.7638 40.5951 100.187 39.8317C100.612 39.0662 101.326 38.2695 102.292 37.4934C104.223 35.9417 107.106 34.5156 110.483 33.6027Z" stroke="#526FFF" stroke-width="0.734899"/>
<path opacity="0.954545" d="M111.034 34.1638C114.299 33.5852 117.331 33.6073 119.588 34.0968C120.718 34.3418 121.635 34.6994 122.289 35.1426C122.941 35.585 123.305 36.0931 123.399 36.6398C123.492 37.1864 123.318 37.7892 122.851 38.4299C122.383 39.0718 121.639 39.7248 120.657 40.344C118.695 41.5812 115.848 42.644 112.583 43.2226C109.318 43.8013 106.285 43.7803 104.028 43.2907C102.898 43.0457 101.981 42.6872 101.328 42.244C100.676 41.8016 100.311 41.2943 100.218 40.7477C100.124 40.201 100.298 39.5975 100.765 38.9567C101.233 38.3147 101.978 37.6627 102.96 37.0436C104.922 35.8063 107.769 34.7424 111.034 34.1638Z" stroke="#526FFF" stroke-width="0.734899"/>
<path opacity="0.977273" d="M111.481 34.7813C114.605 34.51 117.457 34.7405 119.538 35.3205C120.58 35.6109 121.41 35.9837 121.982 36.409C122.555 36.8348 122.836 37.2852 122.873 37.7334C122.911 38.1814 122.709 38.673 122.216 39.1913C121.722 39.7092 120.966 40.2196 119.988 40.6855C118.033 41.6161 115.261 42.3351 112.136 42.6064C109.012 42.8778 106.16 42.6473 104.079 42.0672C103.037 41.7768 102.208 41.404 101.636 40.9787C101.063 40.553 100.781 40.1035 100.744 39.6554C100.706 39.2072 100.909 38.7149 101.403 38.1964C101.896 37.6786 102.651 37.1681 103.629 36.7023C105.584 35.7717 108.357 35.0527 111.481 34.7813Z" stroke="#526FFF" stroke-width="0.734899"/>
<path d="M111.817 35.4394C114.773 35.4459 117.434 35.8537 119.343 36.4977C120.299 36.8204 121.046 37.1963 121.546 37.5943C122.05 37.9954 122.255 38.3777 122.255 38.7179C122.254 39.0582 122.047 39.4404 121.541 39.8394C121.039 40.2353 120.29 40.607 119.333 40.9255C117.422 41.5612 114.759 41.9575 111.802 41.9511C108.845 41.9447 106.184 41.5369 104.275 40.8928C103.319 40.5702 102.572 40.1953 102.072 39.7972C101.568 39.396 101.363 39.0129 101.363 38.6727C101.364 38.3325 101.571 37.9511 102.077 37.5521C102.579 37.1562 103.328 36.7837 104.285 36.4651C106.196 35.8293 108.86 35.433 111.817 35.4394Z" stroke="#526FFF" stroke-width="0.734899"/>
</g>
<g clip-path="url(#clip3_1439_13651)">
<rect x="148.449" y="7.34961" width="70.5503" height="29.396" rx="14.698" fill="white"/>
<g clip-path="url(#clip4_1439_13651)">
<rect x="130.812" y="-12.8594" width="752.537" height="752.537" rx="73.4899" fill="#F0F4FE"/>
<circle opacity="0.0227273" cx="191.667" cy="29.6559" r="27.2944" transform="rotate(118.254 191.667 29.6559)" stroke="#526FFF" stroke-width="0.36745"/>
<circle opacity="0.0454545" cx="189.169" cy="29.5843" r="27.2944" transform="rotate(-61.7463 189.169 29.5843)" stroke="#526FFF" stroke-width="0.36745"/>
<circle opacity="0.0681818" cx="186.671" cy="29.5094" r="27.2944" transform="rotate(118.254 186.671 29.5094)" stroke="#526FFF" stroke-width="0.36745"/>
<circle opacity="0.0909091" cx="184.173" cy="29.4339" r="27.2944" transform="rotate(-61.7463 184.173 29.4339)" stroke="#526FFF" stroke-width="0.36745"/>
<circle opacity="0.113636" cx="181.675" cy="29.359" r="27.2944" transform="rotate(118.254 181.675 29.359)" stroke="#526FFF" stroke-width="0.36745"/>
<circle opacity="0.136364" cx="179.177" cy="29.2875" r="27.2944" transform="rotate(-61.7463 179.177 29.2875)" stroke="#526FFF" stroke-width="0.36745"/>
<circle opacity="0.159091" cx="176.679" cy="29.2125" r="27.2944" transform="rotate(118.254 176.679 29.2125)" stroke="#526FFF" stroke-width="0.36745"/>
<circle opacity="0.181818" cx="174.181" cy="29.139" r="27.2944" transform="rotate(-61.7463 174.181 29.139)" stroke="#526FFF" stroke-width="0.36745"/>
<circle opacity="0.204545" cx="171.683" cy="29.0641" r="27.2944" transform="rotate(118.254 171.683 29.0641)" stroke="#526FFF" stroke-width="0.36745"/>
<circle opacity="0.227273" cx="169.185" cy="28.9906" r="27.2944" transform="rotate(-61.7463 169.185 28.9906)" stroke="#526FFF" stroke-width="0.36745"/>
<circle opacity="0.25" cx="166.687" cy="28.9157" r="27.2944" transform="rotate(118.254 166.687 28.9157)" stroke="#526FFF" stroke-width="0.36745"/>
<circle opacity="0.272727" cx="164.188" cy="28.8421" r="27.2944" transform="rotate(-61.7463 164.188 28.8421)" stroke="#526FFF" stroke-width="0.36745"/>
<circle opacity="0.295455" cx="161.69" cy="28.7672" r="27.2944" transform="rotate(118.254 161.69 28.7672)" stroke="#526FFF" stroke-width="0.36745"/>
<circle opacity="0.318182" cx="159.192" cy="28.6957" r="27.2944" transform="rotate(-61.7463 159.192 28.6957)" stroke="#526FFF" stroke-width="0.36745"/>
<circle opacity="0.340909" cx="156.694" cy="28.6207" r="27.2944" transform="rotate(118.254 156.694 28.6207)" stroke="#526FFF" stroke-width="0.36745"/>
<circle opacity="0.363636" cx="154.196" cy="28.5472" r="27.2944" transform="rotate(-61.7463 154.196 28.5472)" stroke="#526FFF" stroke-width="0.36745"/>
<circle opacity="0.386364" cx="151.698" cy="28.4723" r="27.2944" transform="rotate(118.254 151.698 28.4723)" stroke="#526FFF" stroke-width="0.36745"/>
<circle opacity="0.409091" cx="149.2" cy="28.3988" r="27.2944" transform="rotate(-61.7463 149.2 28.3988)" stroke="#526FFF" stroke-width="0.36745"/>
<circle opacity="0.431818" cx="146.702" cy="28.3239" r="27.2944" transform="rotate(118.254 146.702 28.3239)" stroke="#526FFF" stroke-width="0.36745"/>
<circle opacity="0.477273" cx="144.206" cy="28.2438" r="27.2944" transform="rotate(118.254 144.206 28.2438)" stroke="#526FFF" stroke-width="0.36745"/>
<circle opacity="0.5" cx="141.704" cy="28.1722" r="27.2944" transform="rotate(-61.7463 141.704 28.1722)" stroke="#526FFF" stroke-width="0.36745"/>
<circle opacity="0.522727" cx="139.206" cy="28.0954" r="27.2944" transform="rotate(118.254 139.206 28.0954)" stroke="#526FFF" stroke-width="0.36745"/>
<circle opacity="0.545455" cx="136.712" cy="28.0238" r="27.2944" transform="rotate(-61.7463 136.712 28.0238)" stroke="#526FFF" stroke-width="0.36745"/>
<circle opacity="0.568182" cx="134.214" cy="27.9489" r="27.2944" transform="rotate(118.254 134.214 27.9489)" stroke="#526FFF" stroke-width="0.36745"/>
<circle opacity="0.590909" cx="131.712" cy="27.8754" r="27.2944" transform="rotate(-61.7463 131.712 27.8754)" stroke="#526FFF" stroke-width="0.36745"/>
<circle opacity="0.613636" cx="129.214" cy="27.8004" r="27.2944" transform="rotate(118.254 129.214 27.8004)" stroke="#526FFF" stroke-width="0.36745"/>
<circle opacity="0.636364" cx="126.716" cy="27.7269" r="27.2944" transform="rotate(-61.7463 126.716 27.7269)" stroke="#526FFF" stroke-width="0.36745"/>
<circle opacity="0.659091" cx="124.218" cy="27.652" r="27.2944" transform="rotate(118.254 124.218 27.652)" stroke="#526FFF" stroke-width="0.36745"/>
<circle opacity="0.681818" cx="121.724" cy="27.5804" r="27.2944" transform="rotate(-61.7463 121.724 27.5804)" stroke="#526FFF" stroke-width="0.36745"/>
<circle opacity="0.704545" cx="119.226" cy="27.5055" r="27.2944" transform="rotate(118.254 119.226 27.5055)" stroke="#526FFF" stroke-width="0.36745"/>
<circle opacity="0.727273" cx="116.724" cy="27.43" r="27.2944" transform="rotate(-61.7463 116.724 27.43)" stroke="#526FFF" stroke-width="0.36745"/>
<circle opacity="0.75" cx="114.226" cy="27.3571" r="27.2944" transform="rotate(118.254 114.226 27.3571)" stroke="#526FFF" stroke-width="0.36745"/>
<circle opacity="0.772727" cx="111.731" cy="27.2836" r="27.2944" transform="rotate(-61.7463 111.731 27.2836)" stroke="#526FFF" stroke-width="0.36745"/>
</g>
</g>
<g clip-path="url(#clip5_1439_13651)">
<rect x="219" y="7.34961" width="70.5503" height="29.396" rx="14.698" fill="white"/>
<g clip-path="url(#clip6_1439_13651)">
<rect x="201.363" y="-12.8594" width="752.537" height="752.537" rx="73.4899" fill="#F0F4FE"/>
<circle opacity="0.0227273" cx="262.218" cy="29.6559" r="27.2944" transform="rotate(118.254 262.218 29.6559)" stroke="#526FFF" stroke-width="0.36745"/>
<circle opacity="0.0454545" cx="259.72" cy="29.5843" r="27.2944" transform="rotate(-61.7463 259.72 29.5843)" stroke="#526FFF" stroke-width="0.36745"/>
<circle opacity="0.0681818" cx="257.222" cy="29.5094" r="27.2944" transform="rotate(118.254 257.222 29.5094)" stroke="#526FFF" stroke-width="0.36745"/>
<circle opacity="0.0909091" cx="254.724" cy="29.4339" r="27.2944" transform="rotate(-61.7463 254.724 29.4339)" stroke="#526FFF" stroke-width="0.36745"/>
<circle opacity="0.113636" cx="252.222" cy="29.359" r="27.2944" transform="rotate(118.254 252.222 29.359)" stroke="#526FFF" stroke-width="0.36745"/>
<circle opacity="0.136364" cx="249.728" cy="29.2875" r="27.2944" transform="rotate(-61.7463 249.728 29.2875)" stroke="#526FFF" stroke-width="0.36745"/>
<circle opacity="0.159091" cx="247.23" cy="29.2125" r="27.2944" transform="rotate(118.254 247.23 29.2125)" stroke="#526FFF" stroke-width="0.36745"/>
<circle opacity="0.181818" cx="244.731" cy="29.139" r="27.2944" transform="rotate(-61.7463 244.731 29.139)" stroke="#526FFF" stroke-width="0.36745"/>
<circle opacity="0.204545" cx="242.233" cy="29.0641" r="27.2944" transform="rotate(118.254 242.233 29.0641)" stroke="#526FFF" stroke-width="0.36745"/>
<circle opacity="0.227273" cx="239.735" cy="28.9906" r="27.2944" transform="rotate(-61.7463 239.735 28.9906)" stroke="#526FFF" stroke-width="0.36745"/>
<circle opacity="0.25" cx="237.237" cy="28.9157" r="27.2944" transform="rotate(118.254 237.237 28.9157)" stroke="#526FFF" stroke-width="0.36745"/>
<circle opacity="0.272727" cx="234.739" cy="28.8421" r="27.2944" transform="rotate(-61.7463 234.739 28.8421)" stroke="#526FFF" stroke-width="0.36745"/>
<circle opacity="0.295455" cx="232.241" cy="28.7672" r="27.2944" transform="rotate(118.254 232.241 28.7672)" stroke="#526FFF" stroke-width="0.36745"/>
<circle opacity="0.318182" cx="229.739" cy="28.6957" r="27.2944" transform="rotate(-61.7463 229.739 28.6957)" stroke="#526FFF" stroke-width="0.36745"/>
<circle opacity="0.340909" cx="227.245" cy="28.6207" r="27.2944" transform="rotate(118.254 227.245 28.6207)" stroke="#526FFF" stroke-width="0.36745"/>
<circle opacity="0.363636" cx="224.747" cy="28.5472" r="27.2944" transform="rotate(-61.7463 224.747 28.5472)" stroke="#526FFF" stroke-width="0.36745"/>
<circle opacity="0.386364" cx="222.249" cy="28.4723" r="27.2944" transform="rotate(118.254 222.249 28.4723)" stroke="#526FFF" stroke-width="0.36745"/>
<circle opacity="0.409091" cx="219.751" cy="28.3988" r="27.2944" transform="rotate(-61.7463 219.751 28.3988)" stroke="#526FFF" stroke-width="0.36745"/>
<circle opacity="0.431818" cx="217.253" cy="28.3239" r="27.2944" transform="rotate(118.254 217.253 28.3239)" stroke="#526FFF" stroke-width="0.36745"/>
<circle opacity="0.477273" cx="214.757" cy="28.2438" r="27.2944" transform="rotate(118.254 214.757 28.2438)" stroke="#526FFF" stroke-width="0.36745"/>
<circle opacity="0.5" cx="212.255" cy="28.1722" r="27.2944" transform="rotate(-61.7463 212.255 28.1722)" stroke="#526FFF" stroke-width="0.36745"/>
<circle opacity="0.522727" cx="209.757" cy="28.0954" r="27.2944" transform="rotate(118.254 209.757 28.0954)" stroke="#526FFF" stroke-width="0.36745"/>
<circle opacity="0.545455" cx="207.259" cy="28.0238" r="27.2944" transform="rotate(-61.7463 207.259 28.0238)" stroke="#526FFF" stroke-width="0.36745"/>
<circle opacity="0.568182" cx="204.761" cy="27.9489" r="27.2944" transform="rotate(118.254 204.761 27.9489)" stroke="#526FFF" stroke-width="0.36745"/>
<circle opacity="0.590909" cx="202.263" cy="27.8754" r="27.2944" transform="rotate(-61.7463 202.263 27.8754)" stroke="#526FFF" stroke-width="0.36745"/>
<circle opacity="0.613636" cx="199.765" cy="27.8004" r="27.2944" transform="rotate(118.254 199.765 27.8004)" stroke="#526FFF" stroke-width="0.36745"/>
<circle opacity="0.636364" cx="197.267" cy="27.7269" r="27.2944" transform="rotate(-61.7463 197.267 27.7269)" stroke="#526FFF" stroke-width="0.36745"/>
<circle opacity="0.659091" cx="194.769" cy="27.652" r="27.2944" transform="rotate(118.254 194.769 27.652)" stroke="#526FFF" stroke-width="0.36745"/>
<circle opacity="0.681818" cx="192.274" cy="27.5804" r="27.2944" transform="rotate(-61.7463 192.274 27.5804)" stroke="#526FFF" stroke-width="0.36745"/>
<circle opacity="0.704545" cx="189.772" cy="27.5055" r="27.2944" transform="rotate(118.254 189.772 27.5055)" stroke="#526FFF" stroke-width="0.36745"/>
<circle opacity="0.727273" cx="187.274" cy="27.43" r="27.2944" transform="rotate(-61.7463 187.274 27.43)" stroke="#526FFF" stroke-width="0.36745"/>
<circle opacity="0.75" cx="184.776" cy="27.3571" r="27.2944" transform="rotate(118.254 184.776 27.3571)" stroke="#526FFF" stroke-width="0.36745"/>
<circle opacity="0.772727" cx="182.278" cy="27.2836" r="27.2944" transform="rotate(-61.7463 182.278 27.2836)" stroke="#526FFF" stroke-width="0.36745"/>
</g>
</g>
<g clip-path="url(#clip7_1439_13651)">
<rect x="289.551" y="7.34961" width="70.5503" height="29.396" rx="14.698" fill="white"/>
<g clip-path="url(#clip8_1439_13651)">
<rect x="271.914" y="-12.8594" width="752.537" height="752.537" rx="73.4899" fill="#F0F4FE"/>
<circle opacity="0.0227273" cx="332.769" cy="29.6559" r="27.2944" transform="rotate(118.254 332.769 29.6559)" stroke="#526FFF" stroke-width="0.36745"/>
<circle opacity="0.0454545" cx="330.271" cy="29.5843" r="27.2944" transform="rotate(-61.7463 330.271 29.5843)" stroke="#526FFF" stroke-width="0.36745"/>
<circle opacity="0.0681818" cx="327.772" cy="29.5094" r="27.2944" transform="rotate(118.254 327.772 29.5094)" stroke="#526FFF" stroke-width="0.36745"/>
<circle opacity="0.0909091" cx="325.271" cy="29.4339" r="27.2944" transform="rotate(-61.7463 325.271 29.4339)" stroke="#526FFF" stroke-width="0.36745"/>
<circle opacity="0.113636" cx="322.772" cy="29.359" r="27.2944" transform="rotate(118.254 322.772 29.359)" stroke="#526FFF" stroke-width="0.36745"/>
<circle opacity="0.136364" cx="320.278" cy="29.2875" r="27.2944" transform="rotate(-61.7463 320.278 29.2875)" stroke="#526FFF" stroke-width="0.36745"/>
<circle opacity="0.159091" cx="317.78" cy="29.2125" r="27.2944" transform="rotate(118.254 317.78 29.2125)" stroke="#526FFF" stroke-width="0.36745"/>
<circle opacity="0.181818" cx="315.282" cy="29.139" r="27.2944" transform="rotate(-61.7463 315.282 29.139)" stroke="#526FFF" stroke-width="0.36745"/>
<circle opacity="0.204545" cx="312.784" cy="29.0641" r="27.2944" transform="rotate(118.254 312.784 29.0641)" stroke="#526FFF" stroke-width="0.36745"/>
<circle opacity="0.227273" cx="310.286" cy="28.9906" r="27.2944" transform="rotate(-61.7463 310.286 28.9906)" stroke="#526FFF" stroke-width="0.36745"/>
<circle opacity="0.25" cx="307.784" cy="28.9157" r="27.2944" transform="rotate(118.254 307.784 28.9157)" stroke="#526FFF" stroke-width="0.36745"/>
<circle opacity="0.272727" cx="305.29" cy="28.8421" r="27.2944" transform="rotate(-61.7463 305.29 28.8421)" stroke="#526FFF" stroke-width="0.36745"/>
<circle opacity="0.295455" cx="302.792" cy="28.7672" r="27.2944" transform="rotate(118.254 302.792 28.7672)" stroke="#526FFF" stroke-width="0.36745"/>
<circle opacity="0.318182" cx="300.29" cy="28.6957" r="27.2944" transform="rotate(-61.7463 300.29 28.6957)" stroke="#526FFF" stroke-width="0.36745"/>
<circle opacity="0.340909" cx="297.796" cy="28.6207" r="27.2944" transform="rotate(118.254 297.796 28.6207)" stroke="#526FFF" stroke-width="0.36745"/>
<circle opacity="0.363636" cx="295.298" cy="28.5472" r="27.2944" transform="rotate(-61.7463 295.298 28.5472)" stroke="#526FFF" stroke-width="0.36745"/>
<circle opacity="0.386364" cx="292.8" cy="28.4723" r="27.2944" transform="rotate(118.254 292.8 28.4723)" stroke="#526FFF" stroke-width="0.36745"/>
<circle opacity="0.409091" cx="290.302" cy="28.3988" r="27.2944" transform="rotate(-61.7463 290.302 28.3988)" stroke="#526FFF" stroke-width="0.36745"/>
<circle opacity="0.431818" cx="287.804" cy="28.3239" r="27.2944" transform="rotate(118.254 287.804 28.3239)" stroke="#526FFF" stroke-width="0.36745"/>
<circle opacity="0.477273" cx="285.304" cy="28.2438" r="27.2944" transform="rotate(118.254 285.304 28.2438)" stroke="#526FFF" stroke-width="0.36745"/>
<circle opacity="0.5" cx="282.806" cy="28.1722" r="27.2944" transform="rotate(-61.7463 282.806 28.1722)" stroke="#526FFF" stroke-width="0.36745"/>
<circle opacity="0.522727" cx="280.308" cy="28.0954" r="27.2944" transform="rotate(118.254 280.308 28.0954)" stroke="#526FFF" stroke-width="0.36745"/>
<circle opacity="0.545455" cx="277.81" cy="28.0238" r="27.2944" transform="rotate(-61.7463 277.81 28.0238)" stroke="#526FFF" stroke-width="0.36745"/>
<circle opacity="0.568182" cx="275.312" cy="27.9489" r="27.2944" transform="rotate(118.254 275.312 27.9489)" stroke="#526FFF" stroke-width="0.36745"/>
<circle opacity="0.590909" cx="272.813" cy="27.8754" r="27.2944" transform="rotate(-61.7463 272.813 27.8754)" stroke="#526FFF" stroke-width="0.36745"/>
<circle opacity="0.613636" cx="270.315" cy="27.8004" r="27.2944" transform="rotate(118.254 270.315 27.8004)" stroke="#526FFF" stroke-width="0.36745"/>
<circle opacity="0.636364" cx="267.817" cy="27.7269" r="27.2944" transform="rotate(-61.7463 267.817 27.7269)" stroke="#526FFF" stroke-width="0.36745"/>
<circle opacity="0.659091" cx="265.319" cy="27.652" r="27.2944" transform="rotate(118.254 265.319 27.652)" stroke="#526FFF" stroke-width="0.36745"/>
<circle opacity="0.681818" cx="262.821" cy="27.5804" r="27.2944" transform="rotate(-61.7463 262.821 27.5804)" stroke="#526FFF" stroke-width="0.36745"/>
<circle opacity="0.704545" cx="260.323" cy="27.5055" r="27.2944" transform="rotate(118.254 260.323 27.5055)" stroke="#526FFF" stroke-width="0.36745"/>
<circle opacity="0.727273" cx="257.825" cy="27.43" r="27.2944" transform="rotate(-61.7463 257.825 27.43)" stroke="#526FFF" stroke-width="0.36745"/>
<circle opacity="0.75" cx="255.327" cy="27.3571" r="27.2944" transform="rotate(118.254 255.327 27.3571)" stroke="#526FFF" stroke-width="0.36745"/>
<circle opacity="0.772727" cx="252.829" cy="27.2836" r="27.2944" transform="rotate(-61.7463 252.829 27.2836)" stroke="#526FFF" stroke-width="0.36745"/>
</g>
</g>
<path d="M3.52164 77.6411C3.0317 77.6411 2.59273 77.5314 2.2047 77.3119C1.81667 77.0885 1.48352 76.7808 1.20523 76.3889C0.926953 75.9969 0.715302 75.5442 0.570282 75.0308C0.425262 74.5134 0.352752 73.9608 0.352752 73.3728C0.352752 72.7849 0.425262 72.2323 0.570282 71.7149C0.715302 71.1975 0.926953 70.7448 1.20523 70.3568C1.48352 69.9649 1.81667 69.6592 2.2047 69.4397C2.59273 69.2163 3.0317 69.1045 3.52164 69.1045C4.00765 69.1045 4.44467 69.2163 4.8327 69.4397C5.22464 69.6592 5.55584 69.9649 5.82628 70.3568C6.10064 70.7448 6.31034 71.1975 6.45536 71.7149C6.6043 72.2323 6.67877 72.7849 6.67877 73.3728C6.67877 73.9608 6.6043 74.5134 6.45536 75.0308C6.31034 75.5442 6.10064 75.9969 5.82628 76.3889C5.55584 76.7808 5.22464 77.0885 4.8327 77.3119C4.44467 77.5314 4.00765 77.6411 3.52164 77.6411ZM3.52164 76.6534C4.01157 76.6534 4.42115 76.5025 4.75039 76.2007C5.08354 75.895 5.33243 75.4933 5.49705 74.9955C5.66166 74.4977 5.74397 73.9568 5.74397 73.3728C5.74397 72.7575 5.65775 72.2029 5.48529 71.709C5.31675 71.2113 5.06591 70.8174 4.73275 70.5273C4.40352 70.2373 3.99981 70.0923 3.52164 70.0923C3.14537 70.0923 2.81613 70.1804 2.53393 70.3568C2.25565 70.5332 2.0244 70.7742 1.84019 71.08C1.65597 71.3857 1.51683 71.7365 1.42277 72.1323C1.33262 72.5243 1.28754 72.9378 1.28754 73.3728C1.28754 73.9568 1.37181 74.4997 1.54035 75.0014C1.70889 75.4992 1.95777 75.8989 2.28701 76.2007C2.62016 76.5025 3.0317 76.6534 3.52164 76.6534ZM8.03282 72.6909C7.88388 72.6909 7.7565 72.6379 7.65067 72.5321C7.54876 72.4263 7.49781 72.297 7.49781 72.1441C7.49781 71.9991 7.54876 71.8737 7.65067 71.7678C7.7565 71.662 7.88388 71.6091 8.03282 71.6091C8.18568 71.6091 8.31502 71.662 8.42084 71.7678C8.52667 71.8737 8.57958 71.9991 8.57958 72.1441C8.57958 72.297 8.52667 72.4263 8.42084 72.5321C8.31502 72.6379 8.18568 72.6909 8.03282 72.6909ZM8.03282 77.6411C7.88388 77.6411 7.7565 77.5882 7.65067 77.4824C7.54876 77.3766 7.49781 77.2472 7.49781 77.0944C7.49781 76.9494 7.54876 76.8239 7.65067 76.7181C7.7565 76.6123 7.88388 76.5594 8.03282 76.5594C8.18568 76.5594 8.31502 76.6123 8.42084 76.7181C8.52667 76.8239 8.57958 76.9494 8.57958 77.0944C8.57958 77.2472 8.52667 77.3766 8.42084 77.4824C8.31502 77.5882 8.18568 77.6411 8.03282 77.6411ZM12.2057 77.6411C11.7079 77.6411 11.265 77.5294 10.877 77.306C10.4929 77.0787 10.1911 76.7769 9.97157 76.4006C9.75208 76.0204 9.64234 75.5991 9.64234 75.1366H10.63C10.63 75.4149 10.6947 75.6697 10.8241 75.9009C10.9534 76.1282 11.1357 76.3105 11.3708 76.4477C11.606 76.5848 11.8843 76.6534 12.2057 76.6534C12.4839 76.6534 12.7426 76.5848 12.9817 76.4477C13.2247 76.3105 13.4207 76.1282 13.5696 75.9009C13.7186 75.6697 13.7931 75.4149 13.7931 75.1366C13.7931 74.7878 13.7029 74.4977 13.5226 74.2665C13.3462 74.0313 13.0993 73.8569 12.7818 73.7432C12.4683 73.6257 12.1096 73.5669 11.7059 73.5669V72.7732C12.2625 72.7732 12.7074 72.6575 13.0405 72.4263C13.3776 72.195 13.5461 71.8541 13.5461 71.4033C13.5461 71.1642 13.4815 70.9447 13.3521 70.7448C13.2228 70.545 13.0523 70.3862 12.8406 70.2686C12.6329 70.1471 12.4095 70.0864 12.1704 70.0864C11.9274 70.0864 11.6942 70.1471 11.4708 70.2686C11.2474 70.3862 11.0651 70.545 10.924 70.7448C10.7829 70.9447 10.7124 71.1642 10.7124 71.4033H9.72465C9.72465 71.0858 9.78932 70.788 9.91866 70.5097C10.0519 70.2314 10.2322 69.9864 10.4595 69.7748C10.6908 69.5631 10.9514 69.3985 11.2415 69.2809C11.5315 69.1594 11.8372 69.0987 12.1586 69.0987C12.578 69.0987 12.968 69.2025 13.3286 69.4103C13.6892 69.618 13.9792 69.8963 14.1987 70.2451C14.4221 70.5939 14.5338 70.98 14.5338 71.4033C14.5338 71.7835 14.4378 72.1343 14.2457 72.4557C14.0537 72.7771 13.7931 73.0025 13.4638 73.1318C13.7499 73.2298 13.991 73.3826 14.187 73.5904C14.3829 73.7942 14.5299 74.0294 14.6279 74.2959C14.7298 74.5624 14.7808 74.8426 14.7808 75.1366C14.7808 75.5952 14.6612 76.0146 14.4221 76.3948C14.187 76.7749 13.8734 77.0787 13.4815 77.306C13.0934 77.5294 12.6682 77.6411 12.2057 77.6411ZM18.656 77.6411C18.166 77.6411 17.7271 77.5314 17.339 77.3119C16.951 77.0885 16.6178 76.7808 16.3396 76.3889C16.0613 75.9969 15.8496 75.5442 15.7046 75.0308C15.5596 74.5134 15.4871 73.9608 15.4871 73.3728C15.4871 72.7849 15.5596 72.2323 15.7046 71.7149C15.8496 71.1975 16.0613 70.7448 16.3396 70.3568C16.6178 69.9649 16.951 69.6592 17.339 69.4397C17.7271 69.2163 18.166 69.1045 18.656 69.1045C19.142 69.1045 19.579 69.2163 19.967 69.4397C20.359 69.6592 20.6902 69.9649 20.9606 70.3568C21.235 70.7448 21.4447 71.1975 21.5897 71.7149C21.7386 72.2323 21.8131 72.7849 21.8131 73.3728C21.8131 73.9608 21.7386 74.5134 21.5897 75.0308C21.4447 75.5442 21.235 75.9969 20.9606 76.3889C20.6902 76.7808 20.359 77.0885 19.967 77.3119C19.579 77.5314 19.142 77.6411 18.656 77.6411ZM18.656 76.6534C19.1459 76.6534 19.5555 76.5025 19.8847 76.2007C20.2179 75.895 20.4668 75.4933 20.6314 74.9955C20.796 74.4977 20.8783 73.9568 20.8783 73.3728C20.8783 72.7575 20.7921 72.2029 20.6196 71.709C20.4511 71.2113 20.2002 70.8174 19.8671 70.5273C19.5378 70.2373 19.1341 70.0923 18.656 70.0923C18.2797 70.0923 17.9505 70.1804 17.6683 70.3568C17.39 70.5332 17.1587 70.7742 16.9745 71.08C16.7903 71.3857 16.6512 71.7365 16.5571 72.1323C16.467 72.5243 16.4219 72.9378 16.4219 73.3728C16.4219 73.9568 16.5061 74.4997 16.6747 75.0014C16.8432 75.4992 17.0921 75.8989 17.4213 76.2007C17.7545 76.5025 18.166 76.6534 18.656 76.6534Z" fill="#171C35"/>
<path d="M182.99 78.6323V68.3438M191.368 69.1372L187.078 72.5699C186.685 72.8837 186.489 73.0407 186.418 73.2302C186.356 73.3965 186.356 73.5796 186.418 73.7458C186.489 73.9354 186.685 74.0924 187.078 74.4062L191.368 77.8389C191.98 78.3282 192.286 78.5728 192.543 78.5731C192.767 78.5733 192.979 78.4716 193.118 78.2967C193.279 78.0955 193.279 77.7039 193.279 76.9208V70.0553C193.279 69.2721 193.279 68.8806 193.118 68.6794C192.979 68.5045 192.767 68.4028 192.543 68.403C192.286 68.4033 191.98 68.6479 191.368 69.1372Z" stroke="#111A2D" stroke-width="1.4698" stroke-linecap="round" stroke-linejoin="round"/>
<rect x="204.303" y="58.791" width="29.396" height="29.396" rx="14.698" fill="#526FFF" fill-opacity="0.19"/>
<path d="M224.147 74.7618C225.127 74.1961 225.127 72.7817 224.147 72.216L217.533 68.3974C216.553 67.8316 215.328 68.5388 215.328 69.6702V77.3075C215.328 78.439 216.553 79.1462 217.533 78.5804L224.147 74.7618Z" fill="#526FFF"/>
<path d="M255.008 78.6323V68.3438M246.63 69.1372L250.92 72.5699C251.313 72.8837 251.509 73.0407 251.58 73.2302C251.642 73.3965 251.642 73.5796 251.58 73.7458C251.509 73.9354 251.313 74.0924 250.92 74.4062L246.63 77.8389C246.018 78.3282 245.712 78.5728 245.455 78.5731C245.231 78.5733 245.019 78.4716 244.88 78.2967C244.719 78.0955 244.719 77.7039 244.719 76.9208V70.0553C244.719 69.2721 244.719 68.8806 244.88 68.6794C245.019 68.5045 245.231 68.4028 245.455 68.403C245.712 68.4033 246.018 68.6479 246.63 69.1372Z" stroke="#111A2D" stroke-width="1.4698" stroke-linecap="round" stroke-linejoin="round"/>
<path d="M355.916 73.4669H359.679V74.4546H355.916V73.4669ZM361.783 77.4883V70.2451H360.86L361.136 69.2574H362.771V77.4883H361.783ZM364.714 72.6909C364.565 72.6909 364.437 72.6379 364.331 72.5321C364.229 72.4263 364.179 72.297 364.179 72.1441C364.179 71.9991 364.229 71.8737 364.331 71.7678C364.437 71.662 364.565 71.6091 364.714 71.6091C364.866 71.6091 364.996 71.662 365.102 71.7678C365.207 71.8737 365.26 71.9991 365.26 72.1441C365.26 72.297 365.207 72.4263 365.102 72.5321C364.996 72.6379 364.866 72.6909 364.714 72.6909ZM364.714 77.6411C364.565 77.6411 364.437 77.5882 364.331 77.4824C364.229 77.3766 364.179 77.2472 364.179 77.0944C364.179 76.9494 364.229 76.8239 364.331 76.7181C364.437 76.6123 364.565 76.5594 364.714 76.5594C364.866 76.5594 364.996 76.6123 365.102 76.7181C365.207 76.8239 365.26 76.9494 365.26 77.0944C365.26 77.2472 365.207 77.3766 365.102 77.4824C364.996 77.5882 364.866 77.6411 364.714 77.6411ZM366.441 77.4883V76.6123C366.742 76.3418 367.081 76.04 367.458 75.7069C367.834 75.3698 368.208 75.019 368.581 74.6545C368.957 74.2861 369.302 73.9216 369.615 73.561C369.929 73.2004 370.182 72.8594 370.374 72.538C370.566 72.2127 370.662 71.9285 370.662 71.6855C370.662 71.3955 370.591 71.1309 370.45 70.8918C370.309 70.6488 370.119 70.4548 369.88 70.3098C369.645 70.1648 369.382 70.0923 369.092 70.0923C368.802 70.0923 368.536 70.1648 368.293 70.3098C368.054 70.4548 367.861 70.6488 367.716 70.8918C367.575 71.1309 367.505 71.3955 367.505 71.6855H366.517C366.517 71.2034 366.635 70.7684 366.87 70.3803C367.105 69.9884 367.417 69.6788 367.805 69.4514C368.193 69.2202 368.622 69.1045 369.092 69.1045C369.563 69.1045 369.99 69.2202 370.374 69.4514C370.762 69.6827 371.072 69.9943 371.303 70.3862C371.534 70.7742 371.65 71.2073 371.65 71.6855C371.65 71.9599 371.583 72.2558 371.45 72.5733C371.316 72.8868 371.134 73.2102 370.903 73.5433C370.672 73.8765 370.409 74.2136 370.115 74.5546C369.821 74.8916 369.512 75.2248 369.186 75.554C368.861 75.8833 368.538 76.1988 368.216 76.5006H371.755V77.4883H366.441ZM375.374 77.6411C374.876 77.6411 374.434 77.5294 374.045 77.306C373.661 77.0787 373.36 76.7769 373.14 76.4006C372.921 76.0204 372.811 75.5991 372.811 75.1366H373.799C373.799 75.4149 373.863 75.6697 373.993 75.9009C374.122 76.1282 374.304 76.3105 374.539 76.4477C374.775 76.5848 375.053 76.6534 375.374 76.6534C375.652 76.6534 375.911 76.5848 376.15 76.4477C376.393 76.3105 376.589 76.1282 376.738 75.9009C376.887 75.6697 376.962 75.4149 376.962 75.1366C376.962 74.7878 376.871 74.4977 376.691 74.2665C376.515 74.0313 376.268 73.8569 375.95 73.7432C375.637 73.6257 375.278 73.5669 374.874 73.5669V72.7732C375.431 72.7732 375.876 72.6575 376.209 72.4263C376.546 72.195 376.715 71.8541 376.715 71.4033C376.715 71.1642 376.65 70.9447 376.521 70.7448C376.391 70.545 376.221 70.3862 376.009 70.2686C375.801 70.1471 375.578 70.0864 375.339 70.0864C375.096 70.0864 374.863 70.1471 374.639 70.2686C374.416 70.3862 374.234 70.545 374.093 70.7448C373.951 70.9447 373.881 71.1642 373.881 71.4033H372.893C372.893 71.0858 372.958 70.788 373.087 70.5097C373.22 70.2314 373.401 69.9864 373.628 69.7748C373.859 69.5631 374.12 69.3985 374.41 69.2809C374.7 69.1594 375.006 69.0987 375.327 69.0987C375.747 69.0987 376.137 69.2025 376.497 69.4103C376.858 69.618 377.148 69.8963 377.367 70.2451C377.591 70.5939 377.702 70.98 377.702 71.4033C377.702 71.7835 377.606 72.1343 377.414 72.4557C377.222 72.7771 376.962 73.0025 376.632 73.1318C376.918 73.2298 377.16 73.3826 377.355 73.5904C377.551 73.7942 377.698 74.0294 377.796 74.2959C377.898 74.5624 377.949 74.8426 377.949 75.1366C377.949 75.5952 377.83 76.0146 377.591 76.3948C377.355 76.7749 377.042 77.0787 376.65 77.306C376.262 77.5294 375.837 77.6411 375.374 77.6411Z" fill="#171C35"/>
<defs>
<clipPath id="clip0_1439_13651">
<rect x="7.34961" y="7.34961" width="70.5503" height="29.396" rx="14.698" fill="white"/>
</clipPath>
<clipPath id="clip1_1439_13651">
<rect x="-10.2871" y="-12.8594" width="752.537" height="752.537" rx="73.4899" fill="white"/>
</clipPath>
<clipPath id="clip2_1439_13651">
<rect x="77.8984" y="7.34961" width="70.5503" height="29.396" rx="14.698" fill="white"/>
</clipPath>
<clipPath id="clip3_1439_13651">
<rect x="148.449" y="7.34961" width="70.5503" height="29.396" rx="14.698" fill="white"/>
</clipPath>
<clipPath id="clip4_1439_13651">
<rect x="130.812" y="-12.8594" width="752.537" height="752.537" rx="73.4899" fill="white"/>
</clipPath>
<clipPath id="clip5_1439_13651">
<rect x="219" y="7.34961" width="70.5503" height="29.396" rx="14.698" fill="white"/>
</clipPath>
<clipPath id="clip6_1439_13651">
<rect x="201.363" y="-12.8594" width="752.537" height="752.537" rx="73.4899" fill="white"/>
</clipPath>
<clipPath id="clip7_1439_13651">
<rect x="289.551" y="7.34961" width="70.5503" height="29.396" rx="14.698" fill="white"/>
</clipPath>
<clipPath id="clip8_1439_13651">
<rect x="271.914" y="-12.8594" width="752.537" height="752.537" rx="73.4899" fill="white"/>
</clipPath>
</defs>
</svg>
