<svg width="113" height="139" viewBox="0 0 113 139" fill="none" xmlns="http://www.w3.org/2000/svg">
<path d="M59.3413 122.297H90.9185C92.7591 122.297 94.3018 121.694 95.5468 120.487C96.7917 119.28 97.4142 117.783 97.4142 115.993V93.1889C97.4142 91.4049 96.7917 89.9096 95.5468 88.7029C94.3018 87.4963 92.7564 86.8929 90.9104 86.8929H89.5179V79.0912C89.5179 75.1956 88.1495 71.9189 85.4128 69.2611C82.6761 66.6085 79.2981 65.2822 75.2788 65.2822C71.2596 65.2822 67.8816 66.6085 65.1448 69.2611C62.4081 71.9137 61.0397 75.1904 61.0397 79.0912V86.8929H59.3333C57.4927 86.8929 55.9499 87.4963 54.705 88.7029C53.46 89.9096 52.8376 91.4049 52.8376 93.1889V115.993C52.8376 117.783 53.46 119.28 54.705 120.487C55.9499 121.694 57.4954 122.297 59.3413 122.297ZM67.2296 62.5L62 73C62 70.7895 67.4545 70.759 69 69.2611C70.5455 67.7632 73.7248 67.5 76 67.5C78.2752 67.5 80.9492 68.5021 82.5 70C84.0508 71.4979 85.4235 65.7895 85.4128 68L83.328 62.5H67.2296ZM75.1259 162.772C74.3961 162.772 73.626 162.707 72.8158 162.577C72.0055 162.447 71.2542 162.252 70.562 161.992C54.7157 156.141 42.124 146.217 32.7869 132.221C23.4498 118.225 18.7812 103.074 18.7812 86.7681V53.3534C18.7812 50.68 19.5674 48.2719 21.1397 46.129C22.7066 43.9862 24.7377 42.4336 27.2329 41.4714L70.5781 25.868C72.145 25.3167 73.6609 25.041 75.1259 25.041C76.5908 25.041 78.1095 25.3167 79.6817 25.868L123.019 41.4714C125.509 42.4388 127.54 43.9914 129.112 46.129C130.684 48.2719 131.471 50.68 131.471 53.3534V86.7681C131.471 103.074 126.802 118.225 117.465 132.221C108.128 146.217 95.5387 156.141 79.6978 161.992C78.9949 162.252 78.2409 162.447 77.436 162.577C76.6311 162.707 75.861 162.772 75.1259 162.772Z" fill="#526FFF" fill-opacity="0.3"/>
<path d="M44.8135 64.0495H107.323V126.463H44.8135V64.0495Z" fill="#526FFF" fill-opacity="0.3"/>
<path d="M54.0801 132.622H96.183C98.6371 132.622 100.694 131.799 102.354 130.154C104.014 128.508 104.844 126.466 104.844 124.026V92.929C104.844 90.4962 104.014 88.4572 102.354 86.8117C100.694 85.1663 98.6335 84.3435 96.1722 84.3435H94.3155V73.7049C94.3155 68.3926 92.4911 63.9243 88.8421 60.3001C85.1931 56.6829 80.6891 54.8744 75.3301 54.8744C69.9711 54.8744 65.4671 56.6829 61.8181 60.3001C58.1691 63.9173 56.3446 68.3855 56.3446 73.7049V84.3435H54.0694C51.6153 84.3435 49.5582 85.1663 47.8983 86.8117C46.2384 88.4572 45.4084 90.4962 45.4084 92.929V124.026C45.4084 126.466 46.2384 128.508 47.8983 130.154C49.5582 131.799 51.6188 132.622 54.0801 132.622ZM64.5978 64.3435V73.7049C64.5978 70.6906 65.6281 68.1621 67.6887 66.1195C69.7493 64.0768 72.2964 63.0555 75.3301 63.0555C78.3638 63.0555 80.9145 64.0768 82.9822 66.1195C85.05 68.1621 86.0767 70.6906 86.0624 73.7049V64.3435H64.5978ZM75.1262 187.815C74.1531 187.815 73.1264 187.727 72.046 187.549C70.9656 187.372 69.9639 187.106 69.0409 186.752C47.9126 178.773 31.1237 165.24 18.6742 146.154C6.22474 127.069 0 106.408 0 84.1733V38.6078C0 34.9623 1.04819 31.6785 3.14457 28.7564C5.23379 25.8343 7.94191 23.7172 11.2689 22.4051L69.0624 1.1277C71.1516 0.3759 73.1729 0 75.1262 0C77.0795 0 79.1043 0.3759 81.2007 1.1277L138.983 22.4051C142.303 23.7243 145.011 25.8414 147.108 28.7564C149.204 31.6785 150.252 34.9623 150.252 38.6078V86.8117C150.252 109.047 147.108 130.154 133.5 150.5C121.051 169.586 102.343 178.773 81.2221 186.752C80.2848 187.106 79.2796 187.372 78.2063 187.549C77.1331 187.727 76.1064 187.815 75.1262 187.815Z" fill="#526FFF" fill-opacity="0.2"/>
<path d="M41.3322 53.1935H108.122L106.5 60.3001H39.7106L41.3322 53.1935Z" fill="#526FFF" fill-opacity="0.2"/>
<path d="M62.8514 116.696H87.4114C88.843 116.696 90.0429 116.212 91.0112 115.243C91.9795 114.275 92.4636 113.073 92.4636 111.637V93.3379C92.4636 91.9064 91.9795 90.7064 91.0112 89.7381C90.0429 88.7698 88.8409 88.2857 87.4052 88.2857H86.3221V82.0252C86.3221 78.8991 85.2578 76.2697 83.1292 74.1369C81.0006 72.0084 78.3733 70.9441 75.2472 70.9441C72.1212 70.9441 69.4938 72.0084 67.3652 74.1369C65.2367 76.2655 64.1724 78.8949 64.1724 82.0252V88.2857H62.8452C61.4136 88.2857 60.2137 88.7698 59.2454 89.7381C58.2771 90.7064 57.7929 91.9064 57.7929 93.3379V111.637C57.7929 113.073 58.2771 114.275 59.2454 115.243C60.2137 116.212 61.4157 116.696 62.8514 116.696ZM68.9867 88.2857V82.0252C68.9867 80.2514 69.5877 78.7635 70.7898 77.5614C71.9918 76.3594 73.4776 75.7584 75.2472 75.7584C77.0169 75.7584 78.5048 76.3594 79.711 77.5614C80.9172 78.7635 81.5161 80.2514 81.5078 82.0252V88.2857H68.9867ZM75.1283 149.175C74.5607 149.175 73.9617 149.123 73.3315 149.019C72.7013 148.915 72.117 148.758 71.5786 148.549C59.2537 143.854 49.4602 135.891 42.198 124.659C34.9358 113.428 31.3047 101.27 31.3047 88.1855V61.3717C31.3047 59.2265 31.9161 57.2941 33.139 55.5745C34.3577 53.855 35.9375 52.6091 37.8782 51.837L71.5911 39.316C72.8098 38.8735 73.9889 38.6523 75.1283 38.6523C76.2677 38.6523 77.4488 38.8735 78.6717 39.316L112.378 51.837C114.315 52.6133 115.895 53.8591 117.118 55.5745C118.34 57.2941 118.952 59.2265 118.952 61.3717V88.1855C118.952 101.27 115.321 113.428 108.059 124.659C100.796 135.891 91.005 143.854 78.6843 148.549C78.1375 148.758 77.5511 148.915 76.9251 149.019C76.299 149.123 75.7001 149.175 75.1283 149.175Z" fill="#526FFF"/>
</svg>
