<svg width="113" height="139" viewBox="0 0 113 139" fill="none" xmlns="http://www.w3.org/2000/svg">
<path d="M54.0801 132.622H96.183C98.6371 132.622 100.694 131.799 102.354 130.154C104.014 128.508 104.844 126.466 104.844 124.026V92.929C104.844 90.4962 104.014 88.4572 102.354 86.8117C100.694 85.1663 98.6335 84.3435 96.1722 84.3435H94.3155V73.7049C94.3155 68.3926 92.4911 63.9243 88.8421 60.3001C85.1931 56.6829 80.6891 54.8744 75.3301 54.8744C69.9711 54.8744 65.4671 56.6829 61.8181 60.3001C58.1691 63.9173 56.3446 68.3855 56.3446 73.7049V84.3435H54.0694C51.6153 84.3435 49.5582 85.1663 47.8983 86.8117C46.2384 88.4572 45.4084 90.4962 45.4084 92.929V124.026C45.4084 126.466 46.2384 128.508 47.8983 130.154C49.5582 131.799 51.6188 132.622 54.0801 132.622ZM64.5978 64.3435V73.7049C64.5978 70.6906 65.6281 68.1621 67.6887 66.1195C69.7493 64.0768 72.2964 63.0555 75.3301 63.0555C78.3638 63.0555 80.9145 64.0768 82.9822 66.1195C85.05 68.1621 86.0767 70.6906 86.0624 73.7049V64.3435H64.5978ZM75.1262 187.815C74.1531 187.815 73.1264 187.727 72.046 187.549C70.9656 187.372 69.9639 187.106 69.0409 186.752C47.9126 178.773 31.1237 165.24 18.6742 146.154C6.22474 127.069 0 106.408 0 84.1733V38.6078C0 34.9623 1.04819 31.6785 3.14457 28.7564C5.23379 25.8343 7.94191 23.7172 11.2689 22.4051L69.0624 1.1277C71.1516 0.3759 73.1729 0 75.1262 0C77.0795 0 79.1043 0.3759 81.2007 1.1277L138.983 22.4051C142.303 23.7243 145.011 25.8414 147.108 28.7564C149.204 31.6785 150.252 34.9623 150.252 38.6078V86.8117C150.252 109.047 147.108 130.154 133.5 150.5C121.051 169.586 102.343 178.773 81.2221 186.752C80.2848 187.106 79.2796 187.372 78.2063 187.549C77.1331 187.727 76.1064 187.815 75.1262 187.815Z" fill="#526FFF" fill-opacity="0.2"/>
<path d="M41.3322 53.1935H108.122L106.5 60.3001H39.7106L41.3322 53.1935Z" fill="#526FFF" fill-opacity="0.2"/>
</svg>
