<svg width="40" height="40" viewBox="0 0 40 40" fill="none" xmlns="http://www.w3.org/2000/svg">
<rect width="40" height="40" rx="20" fill="#526FFF"/>
<path d="M20 11.75C20.2608 11.75 20.4727 11.9619 20.4727 12.2227C20.4729 16.2571 23.7429 19.5271 27.7773 19.5273C28.0381 19.5273 28.25 19.7392 28.25 20C28.25 20.2608 28.0381 20.4727 27.7773 20.4727C23.7429 20.4729 20.4729 23.7429 20.4727 27.7773C20.4727 28.0381 20.2608 28.25 20 28.25C19.7392 28.25 19.5273 28.0381 19.5273 27.7773C19.5271 23.7429 16.2571 20.4729 12.2227 20.4727C11.9619 20.4727 11.75 20.2608 11.75 20C11.75 19.7392 11.9619 19.5273 12.2227 19.5273C16.2571 19.5271 19.5271 16.2571 19.5273 12.2227C19.5273 11.9619 19.7392 11.75 20 11.75Z" fill="white" stroke="white" stroke-linecap="round" stroke-linejoin="round"/>
</svg>
