<svg width="17" height="19" viewBox="0 0 17 19" fill="none" xmlns="http://www.w3.org/2000/svg">
<path d="M5.8776 16.6331C6.46521 17.1518 7.23708 17.4665 8.08245 17.4665C8.92783 17.4665 9.6997 17.1518 10.2873 16.6331M13.0825 5.7998C13.0825 4.47372 12.5557 3.20195 11.618 2.26427C10.6803 1.32659 9.40854 0.799805 8.08245 0.799805C6.75637 0.799805 5.4846 1.32659 4.54692 2.26427C3.60924 3.20195 3.08245 4.47372 3.08245 5.7998C3.08245 8.37496 2.43285 10.1381 1.70717 11.3043C1.09506 12.288 0.789002 12.7799 0.800225 12.9171C0.812651 13.069 0.844837 13.127 0.967267 13.2178C1.07784 13.2998 1.57628 13.2998 2.57317 13.2998H13.5917C14.5886 13.2998 15.0871 13.2998 15.1976 13.2178C15.3201 13.127 15.3523 13.069 15.3647 12.9171C15.3759 12.7799 15.0698 12.288 14.4577 11.3043C13.7321 10.1381 13.0825 8.37496 13.0825 5.7998Z" stroke="#111A2D" stroke-width="1.6" stroke-linecap="round" stroke-linejoin="round"/>
</svg>
