<svg width="48" height="48" viewBox="0 0 48 48" fill="none" xmlns="http://www.w3.org/2000/svg">
<path fill-rule="evenodd" clip-rule="evenodd" d="M11.9986 28.0206C11.0458 24.2262 13.1559 20.3256 16.7122 19.3088C20.2685 18.292 23.9234 20.5442 24.8762 24.3385C25.829 28.133 23.7191 32.0335 20.1628 33.0504C16.6069 34.067 12.9515 31.8155 11.9986 28.0206ZM20.4595 28.2338C20.6134 28.1898 20.7522 28.0865 20.843 27.931C21.0328 27.6052 20.9399 27.1772 20.6355 26.9742L19.0725 25.9344L19.8595 24.4182C20.0333 24.0833 19.9194 23.6613 19.6055 23.4753C19.2923 23.2903 18.8962 23.4113 18.7219 23.7464L17.9675 25.1998L16.4927 24.2185C16.1879 24.0157 15.7868 24.1149 15.5967 24.4403C15.4066 24.7656 15.4997 25.1935 15.8046 25.3963L17.3362 26.4154L16.3563 28.3035C16.1827 28.6384 16.2959 29.0606 16.6104 29.2464C16.7633 29.337 16.9366 29.3546 17.0935 29.3097C17.2577 29.2628 17.4052 29.1475 17.4941 28.9759L18.4412 27.1507L19.9469 28.1522C20.1059 28.2582 20.2917 28.2818 20.4595 28.2338Z" fill="#E87117"/>
<path fill-rule="evenodd" clip-rule="evenodd" d="M32.2832 14.8567C28.7269 15.8735 26.6169 19.7741 27.5696 23.5684C28.5226 27.3634 32.178 29.6149 35.7338 28.5982C39.2901 27.5814 41.4001 23.6808 40.4473 19.8864C39.4945 16.0921 35.8396 13.8398 32.2832 14.8567ZM36.4139 23.4783C36.3231 23.6338 36.1843 23.7371 36.0304 23.7811C35.8626 23.8291 35.6768 23.8055 35.5178 23.6995L34.0123 22.6985L33.0651 24.5238C32.9762 24.6954 32.8287 24.8107 32.6646 24.8576C32.5077 24.9025 32.3344 24.8848 32.1814 24.7943C31.8669 24.6085 31.7537 24.1863 31.9274 23.8514L32.9073 21.9633L31.3756 20.9442C31.0707 20.7414 30.9777 20.3135 31.1677 19.9881C31.3578 19.6628 31.759 19.5635 32.0637 19.7664L33.5386 20.7476L34.2929 19.2943C34.4672 18.9591 34.8633 18.8382 35.1765 19.0232C35.4905 19.2091 35.6043 19.6312 35.4305 19.9661L34.6436 21.4823L36.2065 22.5221C36.5109 22.7251 36.6039 23.1531 36.4139 23.4783Z" fill="#E87117"/>
<path d="M30.0042 30.9353C30.2303 31.8358 29.4853 32.8312 28.3401 33.1586C27.1949 33.486 26.0833 33.0215 25.8572 32.121C25.631 31.2205 26.3761 30.225 27.5212 29.8976C28.6664 29.5702 29.7781 30.0348 30.0042 30.9353Z" fill="#E87117"/>
<path fill-rule="evenodd" clip-rule="evenodd" d="M10.1426 13.153C9.0396 10.7564 6.47404 9.44395 3.96532 10.1613C1.11233 10.977 -0.580888 14.1066 0.183533 17.1508C0.893301 19.9774 3.47164 21.7327 6.1202 21.3173C5.21101 24.7999 5.13135 28.5346 6.0562 32.2177C8.94489 43.7217 20.5556 50.4334 31.9385 47.1788C43.3215 43.9241 50.2318 31.9167 47.3431 20.4128C46.4183 16.7296 44.5993 13.5377 42.1801 11.0068C44.6682 9.95335 46.0784 7.05775 45.3687 4.23129C44.6048 1.18691 41.6718 -0.619944 38.8185 0.195901C36.3099 0.913171 34.7031 3.41852 34.8706 6.08237C30.7654 4.45353 26.0942 4.12697 21.4607 5.4518C16.8271 6.77667 12.9348 9.55181 10.1426 13.153ZM7.61486 31.772C4.95643 21.1851 11.3553 10.1238 21.8783 7.11503C32.4015 4.10621 43.1261 10.2715 45.7845 20.8584C48.4429 31.4454 42.0445 42.5066 31.5209 45.5156C20.9974 48.5245 10.2733 42.3591 7.61486 31.772Z" fill="#E87117"/>
</svg>
