<svg width="22" height="19" viewBox="0 0 22 19" fill="none" xmlns="http://www.w3.org/2000/svg">
<path d="M14.835 1.30272C16.3167 2.03907 17.335 3.5681 17.335 5.33496C17.335 7.10182 16.3167 8.63085 14.835 9.3672M16.835 14.6013C18.3465 15.2853 19.7075 16.3999 20.835 17.835M0.835022 17.835C2.78151 15.3575 5.4242 13.835 8.33502 13.835C11.2458 13.835 13.8885 15.3575 15.835 17.835M12.835 5.33496C12.835 7.82024 10.8203 9.83496 8.33502 9.83496C5.84974 9.83496 3.83502 7.82024 3.83502 5.33496C3.83502 2.84968 5.84974 0.834961 8.33502 0.834961C10.8203 0.834961 12.835 2.84968 12.835 5.33496Z" stroke="#111A2D" stroke-width="1.67" stroke-linecap="round" stroke-linejoin="round"/>
</svg>
