<svg width="20" height="20" viewBox="0 0 20 20" fill="none" xmlns="http://www.w3.org/2000/svg">
<path d="M15.835 14.835C16.767 14.835 17.233 14.835 17.6 14.683C17.8428 14.5824 18.0634 14.4351 18.2492 14.2492C18.4351 14.0634 18.5824 13.8428 18.683 13.6C18.835 13.233 18.835 12.767 18.835 11.835V8.03196C18.835 6.91396 18.835 6.35396 18.617 5.92696C18.425 5.5505 18.1186 5.24453 17.742 5.05296C17.341 4.84796 16.823 4.83596 15.835 4.83496M15.835 4.83496H3.83496M15.835 4.83496V4.03196C15.835 2.91396 15.835 2.35396 15.617 1.92696C15.425 1.5505 15.1186 1.24453 14.742 1.05296C14.315 0.834961 13.755 0.834961 12.635 0.834961H7.03496C5.91496 0.834961 5.35496 0.834961 4.92696 1.05296C4.55065 1.2447 4.2447 1.55065 4.05296 1.92696C3.83496 2.35496 3.83496 2.91496 3.83496 4.03496V4.83496M3.83496 4.83496C2.84696 4.83496 2.32796 4.84796 1.92696 5.05296C1.55065 5.2447 1.2447 5.55065 1.05296 5.92696C0.834961 6.35496 0.834961 6.91496 0.834961 8.03496V11.835C0.834961 12.767 0.834961 13.233 0.986961 13.6C1.08736 13.8427 1.23459 14.0633 1.42024 14.2491C1.60589 14.4349 1.82633 14.5823 2.06896 14.683C2.43696 14.835 2.90296 14.835 3.83496 14.835M7.83496 8.83496H11.835M6.83496 12.835H12.835C13.767 12.835 14.233 12.835 14.6 12.987C14.8427 13.0874 15.0633 13.2346 15.2491 13.4202C15.4349 13.6059 15.5823 13.8263 15.683 14.069C15.835 14.437 15.835 14.903 15.835 15.835C15.835 16.767 15.835 17.233 15.683 17.6C15.5824 17.8428 15.4351 18.0634 15.2492 18.2492C15.0634 18.4351 14.8428 18.5824 14.6 18.683C14.233 18.835 13.767 18.835 12.835 18.835H6.83496C5.90296 18.835 5.43696 18.835 5.06896 18.683C4.57913 18.48 4.18994 18.0908 3.98696 17.601C3.83496 17.233 3.83496 16.767 3.83496 15.835C3.83496 14.903 3.83496 14.437 3.98696 14.069C4.18994 13.5791 4.57913 13.1899 5.06896 12.987C5.43696 12.835 5.90296 12.835 6.83496 12.835Z" stroke="#526FFF" stroke-width="1.67" stroke-linecap="round" stroke-linejoin="round"/>
</svg>
