<svg width="17" height="17" viewBox="0 0 17 17" fill="none" xmlns="http://www.w3.org/2000/svg">
<path fill-rule="evenodd" clip-rule="evenodd" d="M12.4991 6.87412C12.4991 7.08537 12.4866 7.29412 12.4654 7.49912H13.7216C13.8499 6.09193 13.5415 4.6794 12.8383 3.45377C12.1351 2.22813 11.0714 1.24893 9.79184 0.649436C8.5123 0.0499393 7.07911 -0.140733 5.68733 0.103369C4.29556 0.347471 3.0128 1.01449 2.01365 2.01365C1.01449 3.0128 0.347471 4.29556 0.103369 5.68733C-0.140733 7.07911 0.0499393 8.5123 0.649436 9.79184C1.24893 11.0714 2.22813 12.1351 3.45377 12.8383C4.6794 13.5415 6.09193 13.8499 7.49912 13.7216V12.4654C6.36702 12.5919 5.22316 12.3718 4.2189 11.8341C3.21465 11.2964 2.39732 10.4664 1.87507 9.45399C1.35282 8.4416 1.15027 7.2945 1.2942 6.16448C1.43813 5.03445 1.92177 3.97475 2.68113 3.1256C3.44049 2.27645 4.43977 1.67787 5.54676 1.40905C6.65374 1.14024 7.81626 1.21387 8.88049 1.62019C9.94471 2.02651 10.8605 2.74638 11.5067 3.68455C12.1528 4.62272 12.4989 5.73496 12.4991 6.87412ZM4.37412 6.24912C4.70564 6.24912 5.02358 6.11742 5.258 5.883C5.49242 5.64858 5.62412 5.33064 5.62412 4.99912C5.62412 4.6676 5.49242 4.34966 5.258 4.11524C5.02358 3.88082 4.70564 3.74912 4.37412 3.74912C4.0426 3.74912 3.72466 3.88082 3.49024 4.11524C3.25582 4.34966 3.12412 4.6676 3.12412 4.99912C3.12412 5.33064 3.25582 5.64858 3.49024 5.883C3.72466 6.11742 4.0426 6.24912 4.37412 6.24912ZM6.87412 9.37412C7.76412 9.37412 8.56787 9.00162 9.13662 8.40412L10.0204 9.28912C9.6128 9.71196 9.12405 10.0482 8.58342 10.2776C8.04279 10.507 7.46141 10.6248 6.87412 10.6241C6.27522 10.6249 5.68257 10.5023 5.13311 10.264C4.58365 10.0257 4.08913 9.67684 3.68037 9.23912L4.56412 8.35412C4.85672 8.67585 5.21339 8.93281 5.61122 9.10848C6.00905 9.28414 6.43923 9.37463 6.87412 9.37412ZM9.37412 6.24912C9.70564 6.24912 10.0236 6.11742 10.258 5.883C10.4924 5.64858 10.6241 5.33064 10.6241 4.99912C10.6241 4.6676 10.4924 4.34966 10.258 4.11524C10.0236 3.88082 9.70564 3.74912 9.37412 3.74912C9.0426 3.74912 8.72466 3.88082 8.49024 4.11524C8.25582 4.34966 8.12412 4.6676 8.12412 4.99912C8.12412 5.33064 8.25582 5.64858 8.49024 5.883C8.72466 6.11742 9.0426 6.24912 9.37412 6.24912ZM12.4991 9.99912H13.7491V12.4991H16.2491V13.7491H13.7491V16.2491H12.4991V13.7491H9.99912V12.4991H12.4991V9.99912Z" fill="#171C35"/>
</svg>
