<svg width="96" height="40" viewBox="0 0 96 40" fill="none" xmlns="http://www.w3.org/2000/svg">
<circle opacity="0.0227273" cx="58.806" cy="30.3532" r="37.1403" transform="rotate(118.254 58.806 30.3532)" stroke="#526FFF" stroke-width="0.5"/>
<circle opacity="0.0454545" cx="55.4088" cy="30.2543" r="37.1403" transform="rotate(-61.7463 55.4088 30.2543)" stroke="#526FFF" stroke-width="0.5"/>
<circle opacity="0.0681818" cx="52.0092" cy="30.152" r="37.1403" transform="rotate(118.254 52.0092 30.152)" stroke="#526FFF" stroke-width="0.5"/>
<circle opacity="0.0909091" cx="48.608" cy="30.0511" r="37.1403" transform="rotate(-61.7463 48.608 30.0511)" stroke="#526FFF" stroke-width="0.5"/>
<circle opacity="0.113636" cx="45.2084" cy="29.9489" r="37.1403" transform="rotate(118.254 45.2084 29.9489)" stroke="#526FFF" stroke-width="0.5"/>
<circle opacity="0.136364" cx="41.8112" cy="29.85" r="37.1403" transform="rotate(-61.7463 41.8112 29.85)" stroke="#526FFF" stroke-width="0.5"/>
<circle opacity="0.159091" cx="38.4115" cy="29.7497" r="37.1403" transform="rotate(118.254 38.4115 29.7497)" stroke="#526FFF" stroke-width="0.5"/>
<circle opacity="0.181818" cx="35.0143" cy="29.6488" r="37.1403" transform="rotate(-61.7463 35.0143 29.6488)" stroke="#526FFF" stroke-width="0.5"/>
<circle opacity="0.204545" cx="31.6146" cy="29.5465" r="37.1403" transform="rotate(118.254 31.6146 29.5465)" stroke="#526FFF" stroke-width="0.5"/>
<circle opacity="0.227273" cx="28.2135" cy="29.4476" r="37.1403" transform="rotate(-61.7463 28.2135 29.4476)" stroke="#526FFF" stroke-width="0.5"/>
<circle opacity="0.25" cx="24.8138" cy="29.3454" r="37.1403" transform="rotate(118.254 24.8138 29.3454)" stroke="#526FFF" stroke-width="0.5"/>
<circle opacity="0.272727" cx="21.4166" cy="29.2445" r="37.1403" transform="rotate(-61.7463 21.4166 29.2445)" stroke="#526FFF" stroke-width="0.5"/>
<circle opacity="0.295455" cx="18.017" cy="29.1442" r="37.1403" transform="rotate(118.254 18.017 29.1442)" stroke="#526FFF" stroke-width="0.5"/>
<circle opacity="0.318182" cx="14.6158" cy="29.0453" r="37.1403" transform="rotate(-61.7463 14.6158 29.0453)" stroke="#526FFF" stroke-width="0.5"/>
<circle opacity="0.340909" cx="11.2201" cy="28.943" r="37.1403" transform="rotate(118.254 11.2201 28.943)" stroke="#526FFF" stroke-width="0.5"/>
<circle opacity="0.363636" cx="7.81896" cy="28.8441" r="37.1403" transform="rotate(-61.7463 7.81896 28.8441)" stroke="#526FFF" stroke-width="0.5"/>
<circle opacity="0.386364" cx="4.41932" cy="28.7418" r="37.1403" transform="rotate(118.254 4.41932 28.7418)" stroke="#526FFF" stroke-width="0.5"/>
<circle opacity="0.409091" cx="1.02209" cy="28.641" r="37.1403" transform="rotate(-61.7463 1.02209 28.641)" stroke="#526FFF" stroke-width="0.5"/>
<circle opacity="0.431818" cx="-2.37756" cy="28.5407" r="37.1403" transform="rotate(118.254 -2.37756 28.5407)" stroke="#526FFF" stroke-width="0.5"/>
<circle opacity="0.477273" cx="-5.776" cy="28.4313" r="37.1403" transform="rotate(118.254 -5.776 28.4313)" stroke="#526FFF" stroke-width="0.5"/>
<circle opacity="0.5" cx="-9.17713" cy="28.3324" r="37.1403" transform="rotate(-61.7463 -9.17713 28.3324)" stroke="#526FFF" stroke-width="0.5"/>
<circle opacity="0.522727" cx="-12.5768" cy="28.2301" r="37.1403" transform="rotate(118.254 -12.5768 28.2301)" stroke="#526FFF" stroke-width="0.5"/>
<circle opacity="0.545455" cx="-15.974" cy="28.1312" r="37.1403" transform="rotate(-61.7463 -15.974 28.1312)" stroke="#526FFF" stroke-width="0.5"/>
<circle opacity="0.568182" cx="-19.3737" cy="28.029" r="37.1403" transform="rotate(118.254 -19.3737 28.029)" stroke="#526FFF" stroke-width="0.5"/>
<circle opacity="0.590909" cx="-22.7748" cy="27.93" r="37.1403" transform="rotate(-61.7463 -22.7748 27.93)" stroke="#526FFF" stroke-width="0.5"/>
<circle opacity="0.613636" cx="-26.1744" cy="27.8278" r="37.1403" transform="rotate(118.254 -26.1744 27.8278)" stroke="#526FFF" stroke-width="0.5"/>
<circle opacity="0.636364" cx="-29.5717" cy="27.7269" r="37.1403" transform="rotate(-61.7463 -29.5717 27.7269)" stroke="#526FFF" stroke-width="0.5"/>
<circle opacity="0.659091" cx="-32.9713" cy="27.6266" r="37.1403" transform="rotate(118.254 -32.9713 27.6266)" stroke="#526FFF" stroke-width="0.5"/>
<circle opacity="0.681818" cx="-36.3685" cy="27.5277" r="37.1403" transform="rotate(-61.7463 -36.3685 27.5277)" stroke="#526FFF" stroke-width="0.5"/>
<circle opacity="0.704545" cx="-39.7682" cy="27.4254" r="37.1403" transform="rotate(118.254 -39.7682 27.4254)" stroke="#526FFF" stroke-width="0.5"/>
<circle opacity="0.727273" cx="-43.1693" cy="27.3246" r="37.1403" transform="rotate(-61.7463 -43.1693 27.3246)" stroke="#526FFF" stroke-width="0.5"/>
<circle opacity="0.75" cx="-46.569" cy="27.2243" r="37.1403" transform="rotate(118.254 -46.569 27.2243)" stroke="#526FFF" stroke-width="0.5"/>
<circle opacity="0.772727" cx="-49.9662" cy="27.1253" r="37.1403" transform="rotate(-61.7463 -49.9662 27.1253)" stroke="#526FFF" stroke-width="0.5"/>
</svg>
