<svg width="18" height="22" viewBox="0 0 18 22" fill="none" xmlns="http://www.w3.org/2000/svg">
<path d="M8.13703 20.0539C8.35842 20.1831 8.46912 20.2476 8.62534 20.2811C8.74658 20.3071 8.92346 20.3071 9.0447 20.2811C9.20093 20.2476 9.31162 20.1831 9.53301 20.0539C11.4811 18.9174 16.835 15.3475 16.835 10.439V6.63903C16.835 5.56514 16.835 5.02819 16.6695 4.64703C16.5012 4.25963 16.3336 4.05355 15.9886 3.80994C15.6491 3.57026 14.9836 3.43186 13.6527 3.15505C12.1858 2.84997 11.0593 2.29907 10.0294 1.50235C9.53553 1.1203 9.2886 0.929274 9.09536 0.877171C8.89146 0.822193 8.77858 0.822193 8.57469 0.877171C8.38145 0.929274 8.13451 1.1203 7.64064 1.50235C6.61074 2.29907 5.48422 2.84997 4.01732 3.15505C2.6864 3.43186 2.02093 3.57026 1.68147 3.80994C1.33644 4.05355 1.16881 4.25963 1.00056 4.64703C0.835022 5.02819 0.835022 5.56514 0.835022 6.63903V10.439C0.835022 15.3475 6.18898 18.9174 8.13703 20.0539Z" stroke="#111A2D" stroke-width="1.67" stroke-linecap="round" stroke-linejoin="round"/>
</svg>
