<svg width="12" height="12" viewBox="0 0 12 12" fill="none" xmlns="http://www.w3.org/2000/svg">
<path d="M11.7283 5.55281L0.741393 0.0528059C0.655281 0.00968929 0.558556 -0.00758662 0.462864 0.00305845C0.367172 0.0137035 0.276594 0.0518157 0.202035 0.112806C0.130832 0.172552 0.0776868 0.250999 0.048573 0.339328C0.0194592 0.427656 0.0155316 0.522365 0.0372318 0.612806L1.36066 5.49781H7.00893V6.49781H1.36066L0.0172557 11.3678C-0.00310686 11.4433 -0.00548379 11.5226 0.010316 11.5992C0.0261159 11.6758 0.0596517 11.7477 0.108227 11.8089C0.156802 11.8702 0.219061 11.9192 0.289997 11.952C0.360934 11.9848 0.438569 12.0005 0.516661 11.9978C0.594839 11.9973 0.671815 11.9785 0.741393 11.9428L11.7283 6.44281C11.8101 6.40085 11.8788 6.3371 11.9267 6.25858C11.9746 6.18007 12 6.08983 12 5.99781C12 5.90578 11.9746 5.81554 11.9267 5.73703C11.8788 5.65851 11.8101 5.59476 11.7283 5.55281Z" fill="white"/>
</svg>
