<svg width="20" height="22" viewBox="0 0 20 22" fill="none" xmlns="http://www.w3.org/2000/svg">
<path d="M7.18514 18.2061L7.76959 19.5205C7.94333 19.9118 8.22686 20.2442 8.58581 20.4776C8.94476 20.7109 9.3637 20.835 9.79181 20.835C10.2199 20.835 10.6389 20.7109 10.9978 20.4776C11.3568 20.2442 11.6403 19.9118 11.814 19.5205L12.3985 18.2061C12.6065 17.7397 12.9565 17.3508 13.3985 17.095C13.8433 16.8384 14.3578 16.7291 14.8685 16.7827L16.2985 16.935C16.7241 16.98 17.1537 16.9006 17.5352 16.7063C17.9166 16.512 18.2335 16.2113 18.4474 15.8405C18.6615 15.47 18.7636 15.0452 18.7411 14.6178C18.7186 14.1904 18.5726 13.7788 18.3207 13.4327L17.474 12.2694C17.1726 11.8521 17.0115 11.3498 17.014 10.835C17.0139 10.3215 17.1765 9.82131 17.4785 9.40607L18.3251 8.24274C18.577 7.89672 18.7231 7.48503 18.7455 7.05763C18.768 6.63024 18.666 6.2055 18.4518 5.83496C18.2379 5.4642 17.921 5.16345 17.5396 4.96919C17.1582 4.77493 16.7286 4.69549 16.3029 4.74052L14.8729 4.89274C14.3623 4.94637 13.8477 4.83708 13.4029 4.58052C12.96 4.32321 12.61 3.93232 12.4029 3.46385L11.814 2.14941C11.6403 1.75813 11.3568 1.42568 10.9978 1.19236C10.6389 0.959043 10.2199 0.834891 9.79181 0.834961C9.3637 0.834891 8.94476 0.959043 8.58581 1.19236C8.22686 1.42568 7.94333 1.75813 7.76959 2.14941L7.18514 3.46385C6.97807 3.93232 6.62802 4.32321 6.18514 4.58052C5.74036 4.83708 5.22581 4.94637 4.71514 4.89274L3.2807 4.74052C2.85503 4.69549 2.42544 4.77493 2.04401 4.96919C1.66259 5.16345 1.34571 5.4642 1.13181 5.83496C0.917629 6.2055 0.815592 6.63024 0.838076 7.05763C0.86056 7.48503 1.0066 7.89672 1.25848 8.24274L2.10514 9.40607C2.40708 9.82131 2.56968 10.3215 2.56959 10.835C2.56968 11.3484 2.40708 11.8486 2.10514 12.2639L1.25848 13.4272C1.0066 13.7732 0.86056 14.1849 0.838076 14.6123C0.815592 15.0397 0.917629 15.4644 1.13181 15.835C1.34592 16.2055 1.66284 16.5061 2.04421 16.7004C2.42558 16.8946 2.85506 16.9741 3.2807 16.9294L4.7107 16.7772C5.22137 16.7236 5.73591 16.8328 6.1807 17.0894C6.62523 17.346 6.97691 17.737 7.18514 18.2061Z" stroke="#111A2D" stroke-width="1.67" stroke-linecap="round" stroke-linejoin="round"/>
<path d="M9.79002 13.835C11.4469 13.835 12.79 12.4918 12.79 10.835C12.79 9.17811 11.4469 7.83496 9.79002 7.83496C8.13317 7.83496 6.79002 9.17811 6.79002 10.835C6.79002 12.4918 8.13317 13.835 9.79002 13.835Z" stroke="#111A2D" stroke-width="1.67" stroke-linecap="round" stroke-linejoin="round"/>
</svg>
