<svg width="22" height="17" viewBox="0 0 22 17" fill="none" xmlns="http://www.w3.org/2000/svg">
<path d="M18.5838 1.12883C20.0012 3.09907 20.8359 5.51647 20.8359 8.12883C20.8359 10.7412 20.0012 13.1586 18.5838 15.1288M14.5812 4.12883C15.3721 5.26267 15.8359 6.64159 15.8359 8.12883C15.8359 9.61608 15.3721 10.995 14.5812 12.1288M8.47025 1.49452L5.30457 4.6602C5.13162 4.83316 5.04514 4.91963 4.94422 4.98147C4.85475 5.0363 4.75721 5.07671 4.65517 5.1012C4.54008 5.12883 4.41779 5.12883 4.1732 5.12883H2.43594C1.87589 5.12883 1.59586 5.12883 1.38195 5.23783C1.19378 5.3337 1.0408 5.48668 0.944931 5.67484C0.835938 5.88875 0.835938 6.16878 0.835938 6.72883V9.52883C0.835938 10.0889 0.835938 10.3689 0.944931 10.5828C1.0408 10.771 1.19378 10.924 1.38195 11.0198C1.59586 11.1288 1.87588 11.1288 2.43594 11.1288H4.1732C4.41779 11.1288 4.54008 11.1288 4.65517 11.1565C4.75721 11.181 4.85475 11.2214 4.94422 11.2762C5.04514 11.338 5.13161 11.4245 5.30457 11.5975L8.47025 14.7631C8.89863 15.1915 9.11282 15.4057 9.29671 15.4202C9.45627 15.4327 9.61219 15.3682 9.71614 15.2465C9.83594 15.1062 9.83594 14.8033 9.83594 14.1975V2.0602C9.83594 1.45439 9.83594 1.15148 9.71614 1.01122C9.61219 0.889511 9.45627 0.824924 9.29671 0.837482C9.11282 0.851954 8.89863 1.06614 8.47025 1.49452Z" stroke="white" stroke-width="1.67" stroke-linecap="round" stroke-linejoin="round"/>
</svg>
