<svg width="22" height="20" viewBox="0 0 22 20" fill="none" xmlns="http://www.w3.org/2000/svg">
<path d="M20.835 14.835V10.835C20.835 5.31211 16.3579 0.834961 10.835 0.834961C5.31218 0.834961 0.835022 5.31211 0.835022 10.835V14.835M6.33502 18.835C4.95431 18.835 3.83502 17.7157 3.83502 16.335V13.335C3.83502 11.9542 4.95431 10.835 6.33502 10.835C7.71573 10.835 8.83502 11.9542 8.83502 13.335V16.335C8.83502 17.7157 7.71573 18.835 6.33502 18.835ZM15.335 18.835C13.9543 18.835 12.835 17.7157 12.835 16.335V13.335C12.835 11.9542 13.9543 10.835 15.335 10.835C16.7157 10.835 17.835 11.9542 17.835 13.335V16.335C17.835 17.7157 16.7157 18.835 15.335 18.835Z" stroke="#667085" stroke-width="1.67" stroke-linecap="round" stroke-linejoin="round"/>
</svg>
