<svg width="16" height="18" viewBox="0 0 16 18" fill="none" xmlns="http://www.w3.org/2000/svg">
<path d="M11.15 0.75V3.95M4.75 0.75V3.95M15.15 8.75C15.15 5.7332 15.15 4.2244 14.2124 3.2876C13.2748 2.3508 11.7668 2.35 8.75 2.35H7.15C4.1332 2.35 2.6244 2.35 1.6876 3.2876C0.7508 4.2252 0.75 5.7332 0.75 8.75V10.35C0.75 13.3668 0.75 14.8756 1.6876 15.8124C2.6252 16.7492 4.1332 16.75 7.15 16.75M0.75 7.15H15.15" stroke="black" stroke-width="1.5" stroke-linecap="round" stroke-linejoin="round"/>
<path d="M12.9636 14.1104L11.95 13.5496V12.1632M15.15 13.5496C15.15 14.3983 14.8129 15.2122 14.2127 15.8124C13.6126 16.4125 12.7987 16.7496 11.95 16.7496C11.1013 16.7496 10.2874 16.4125 9.68726 15.8124C9.08714 15.2122 8.75 14.3983 8.75 13.5496C8.75 12.7009 9.08714 11.887 9.68726 11.2869C10.2874 10.6868 11.1013 10.3496 11.95 10.3496C12.7987 10.3496 13.6126 10.6868 14.2127 11.2869C14.8129 11.887 15.15 12.7009 15.15 13.5496Z" stroke="black" stroke-width="1.5" stroke-linecap="round" stroke-linejoin="round"/>
</svg>
