<svg width="18" height="22" viewBox="0 0 18 22" fill="none" xmlns="http://www.w3.org/2000/svg">
<path d="M10.835 9.83496H4.83502M6.83502 13.835H4.83502M12.835 5.83496H4.83502M16.835 5.63496V16.035C16.835 17.7151 16.835 18.5552 16.508 19.1969C16.2204 19.7614 15.7615 20.2204 15.197 20.508C14.5553 20.835 13.7152 20.835 12.035 20.835H5.63502C3.95486 20.835 3.11479 20.835 2.47305 20.508C1.90856 20.2204 1.44962 19.7614 1.162 19.1969C0.835022 18.5552 0.835022 17.7151 0.835022 16.035V5.63496C0.835022 3.9548 0.835022 3.11472 1.162 2.47299C1.44962 1.9085 1.90856 1.44956 2.47305 1.16194C3.11479 0.834961 3.95486 0.834961 5.63502 0.834961H12.035C13.7152 0.834961 14.5553 0.834961 15.197 1.16194C15.7615 1.44956 16.2204 1.9085 16.508 2.47299C16.835 3.11472 16.835 3.9548 16.835 5.63496Z" stroke="#667085" stroke-width="1.67" stroke-linecap="round" stroke-linejoin="round"/>
</svg>
