<svg width="24" height="21" viewBox="0 0 24 21" fill="none" xmlns="http://www.w3.org/2000/svg">
<path d="M22.5 6H1.5C0.671578 6 0 5.32842 0 4.5V1.5C0 0.671578 0.671578 0 1.5 0H22.5C23.3284 0 24 0.671578 24 1.5V4.5C24 5.32842 23.3284 6 22.5 6ZM20.25 1.875C19.6287 1.875 19.125 2.37867 19.125 3C19.125 3.62133 19.6287 4.125 20.25 4.125C20.8713 4.125 21.375 3.62133 21.375 3C21.375 2.37867 20.8713 1.875 20.25 1.875ZM17.25 1.875C16.6287 1.875 16.125 2.37867 16.125 3C16.125 3.62133 16.6287 4.125 17.25 4.125C17.8713 4.125 18.375 3.62133 18.375 3C18.375 2.37867 17.8713 1.875 17.25 1.875ZM22.5 13.5H1.5C0.671578 13.5 0 12.8284 0 12V9C0 8.17158 0.671578 7.5 1.5 7.5H22.5C23.3284 7.5 24 8.17158 24 9V12C24 12.8284 23.3284 13.5 22.5 13.5ZM20.25 9.375C19.6287 9.375 19.125 9.87867 19.125 10.5C19.125 11.1213 19.6287 11.625 20.25 11.625C20.8713 11.625 21.375 11.1213 21.375 10.5C21.375 9.87867 20.8713 9.375 20.25 9.375ZM17.25 9.375C16.6287 9.375 16.125 9.87867 16.125 10.5C16.125 11.1213 16.6287 11.625 17.25 11.625C17.8713 11.625 18.375 11.1213 18.375 10.5C18.375 9.87867 17.8713 9.375 17.25 9.375ZM22.5 21H1.5C0.671578 21 0 20.3284 0 19.5V16.5C0 15.6716 0.671578 15 1.5 15H22.5C23.3284 15 24 15.6716 24 16.5V19.5C24 20.3284 23.3284 21 22.5 21ZM20.25 16.875C19.6287 16.875 19.125 17.3787 19.125 18C19.125 18.6213 19.6287 19.125 20.25 19.125C20.8713 19.125 21.375 18.6213 21.375 18C21.375 17.3787 20.8713 16.875 20.25 16.875ZM17.25 16.875C16.6287 16.875 16.125 17.3787 16.125 18C16.125 18.6213 16.6287 19.125 17.25 19.125C17.8713 19.125 18.375 18.6213 18.375 18C18.375 17.3787 17.8713 16.875 17.25 16.875Z" fill="#171C35"/>
</svg>
