<svg width="102" height="25" viewBox="0 0 102 25" fill="none" xmlns="http://www.w3.org/2000/svg">
<path d="M1.71661e-05 24V1.6H7.40802C8.95468 1.6 10.4054 1.89333 11.76 2.48C13.1147 3.056 14.304 3.86133 15.328 4.896C16.352 5.92 17.152 7.10933 17.728 8.464C18.3147 9.808 18.608 11.2533 18.608 12.8C18.608 14.3467 18.3147 15.7973 17.728 17.152C17.152 18.496 16.352 19.6853 15.328 20.72C14.304 21.744 13.1147 22.5493 11.76 23.136C10.4054 23.712 8.95468 24 7.40802 24H1.71661e-05ZM3.32802 20.672H7.40802C8.49602 20.672 9.50935 20.4693 10.448 20.064C11.3974 19.6587 12.2347 19.0933 12.96 18.368C13.696 17.6427 14.2667 16.8053 14.672 15.856C15.0774 14.9067 15.28 13.888 15.28 12.8C15.28 11.712 15.0774 10.6933 14.672 9.744C14.2667 8.79467 13.696 7.95733 12.96 7.232C12.2347 6.50667 11.3974 5.94133 10.448 5.536C9.50935 5.13067 8.49602 4.928 7.40802 4.928H3.32802V20.672ZM28.1338 24.416C26.6618 24.416 25.3178 24.0373 24.1018 23.28C22.8964 22.5227 21.9311 21.5093 21.2058 20.24C20.4911 18.96 20.1338 17.5467 20.1338 16C20.1338 14.8267 20.3418 13.7333 20.7578 12.72C21.1738 11.696 21.7444 10.8 22.4698 10.032C23.2058 9.25333 24.0591 8.64533 25.0298 8.208C26.0004 7.77067 27.0351 7.552 28.1338 7.552C29.6058 7.552 30.9444 7.93067 32.1498 8.688C33.3658 9.44533 34.3311 10.464 35.0458 11.744C35.7711 13.024 36.1338 14.4427 36.1338 16C36.1338 17.1627 35.9258 18.2507 35.5098 19.264C35.0938 20.2773 34.5178 21.1733 33.7818 21.952C33.0564 22.72 32.2084 23.3227 31.2378 23.76C30.2778 24.1973 29.2431 24.416 28.1338 24.416ZM28.1338 21.088C29.0191 21.088 29.8138 20.8533 30.5178 20.384C31.2218 19.9147 31.7764 19.296 32.1818 18.528C32.5978 17.7493 32.8058 16.9067 32.8058 16C32.8058 15.072 32.5924 14.2187 32.1658 13.44C31.7498 12.6613 31.1898 12.0427 30.4858 11.584C29.7818 11.1147 28.9978 10.88 28.1338 10.88C27.2591 10.88 26.4644 11.1147 25.7498 11.584C25.0458 12.0533 24.4858 12.6773 24.0698 13.456C23.6644 14.2347 23.4618 15.0827 23.4618 16C23.4618 16.9493 23.6751 17.808 24.1018 18.576C24.5284 19.344 25.0938 19.9573 25.7978 20.416C26.5124 20.864 27.2911 21.088 28.1338 21.088ZM49.1355 19.456L52.1115 21.072C51.3862 22.0853 50.4635 22.896 49.3435 23.504C48.2342 24.112 47.0289 24.416 45.7275 24.416C44.2555 24.416 42.9115 24.0373 41.6955 23.28C40.4902 22.5227 39.5249 21.5093 38.7995 20.24C38.0849 18.96 37.7275 17.5467 37.7275 16C37.7275 14.8267 37.9355 13.7333 38.3515 12.72C38.7675 11.696 39.3382 10.8 40.0635 10.032C40.7995 9.25333 41.6529 8.64533 42.6235 8.208C43.5942 7.77067 44.6289 7.552 45.7275 7.552C47.0289 7.552 48.2342 7.856 49.3435 8.464C50.4635 9.072 51.3862 9.888 52.1115 10.912L49.1355 12.528C48.6875 11.9947 48.1649 11.5893 47.5675 11.312C46.9702 11.024 46.3569 10.88 45.7275 10.88C44.8529 10.88 44.0582 11.12 43.3435 11.6C42.6395 12.0693 42.0795 12.6933 41.6635 13.472C41.2582 14.24 41.0555 15.0827 41.0555 16C41.0555 16.9067 41.2635 17.7493 41.6795 18.528C42.0955 19.296 42.6555 19.9147 43.3595 20.384C44.0742 20.8533 44.8635 21.088 45.7275 21.088C46.3889 21.088 47.0182 20.9387 47.6155 20.64C48.2129 20.3413 48.7195 19.9467 49.1355 19.456ZM54.5938 24V-1.90735e-06H57.9218V24H54.5938ZM61.75 8H65.078V24H61.75V8ZM63.446 5.68C62.934 5.68 62.5074 5.51467 62.166 5.184C61.8247 4.85333 61.654 4.43733 61.654 3.936C61.654 3.44533 61.8247 3.03467 62.166 2.704C62.5074 2.36267 62.9287 2.192 63.43 2.192C63.9207 2.192 64.3367 2.36267 64.678 2.704C65.0194 3.03467 65.19 3.44533 65.19 3.936C65.19 4.43733 65.0194 4.85333 64.678 5.184C64.3474 5.51467 63.9367 5.68 63.446 5.68ZM83.1813 13.968V24H79.8533V14.784C79.8533 14.0693 79.6773 13.4187 79.3253 12.832C78.9839 12.2453 78.5199 11.7813 77.9333 11.44C77.3573 11.088 76.7066 10.912 75.9813 10.912C75.2773 10.912 74.6319 11.088 74.0453 11.44C73.4586 11.7813 72.9893 12.2453 72.6373 12.832C72.2853 13.4187 72.1093 14.0693 72.1093 14.784V24H68.7813V8H72.1093V9.696C72.6639 9.03467 73.3466 8.512 74.1573 8.128C74.9679 7.744 75.8426 7.552 76.7813 7.552C77.9653 7.552 79.0426 7.84 80.0133 8.416C80.9839 8.992 81.7519 9.76533 82.3173 10.736C82.8933 11.7067 83.1813 12.784 83.1813 13.968ZM93.1025 24.416C91.6305 24.416 90.2865 24.0373 89.0705 23.28C87.8652 22.5227 86.8999 21.5093 86.1745 20.24C85.4599 18.96 85.1025 17.5467 85.1025 16C85.1025 14.8267 85.3105 13.7333 85.7265 12.72C86.1425 11.696 86.7132 10.8 87.4385 10.032C88.1745 9.25333 89.0279 8.64533 89.9985 8.208C90.9692 7.77067 92.0039 7.552 93.1025 7.552C94.3292 7.552 95.4545 7.808 96.4785 8.32C97.5025 8.82133 98.3772 9.52 99.1025 10.416C99.8279 11.3013 100.361 12.3253 100.703 13.488C101.044 14.64 101.145 15.8667 101.007 17.168H88.6705C88.8092 17.904 89.0759 18.5707 89.4705 19.168C89.8759 19.7547 90.3879 20.2187 91.0065 20.56C91.6359 20.9013 92.3345 21.0773 93.1025 21.088C93.9132 21.088 94.6492 20.8853 95.3105 20.48C95.9825 20.0747 96.5319 19.5147 96.9585 18.8L100.335 19.584C99.6945 21.0027 98.7292 22.1653 97.4385 23.072C96.1479 23.968 94.7025 24.416 93.1025 24.416ZM88.5585 14.624H97.6465C97.5399 13.856 97.2679 13.1627 96.8305 12.544C96.4039 11.9147 95.8652 11.4187 95.2145 11.056C94.5745 10.6827 93.8705 10.496 93.1025 10.496C92.3452 10.496 91.6412 10.6773 90.9905 11.04C90.3505 11.4027 89.8172 11.8987 89.3905 12.528C88.9745 13.1467 88.6972 13.8453 88.5585 14.624Z" fill="#171C35"/>
</svg>
