<svg width="16" height="16" viewBox="0 0 16 16" fill="none" xmlns="http://www.w3.org/2000/svg">
<path d="M7.99772 1.33691C4.32439 1.33691 1.33105 4.33025 1.33105 8.00358C1.33105 11.6769 4.32439 14.6702 7.99772 14.6702C11.6711 14.6702 14.6644 11.6769 14.6644 8.00358C14.6644 4.33025 11.6711 1.33691 7.99772 1.33691ZM11.1844 6.47025L7.40439 10.2502C7.31105 10.3436 7.18439 10.3969 7.05105 10.3969C6.91772 10.3969 6.79106 10.3436 6.69772 10.2502L4.81105 8.36358C4.61772 8.17025 4.61772 7.85025 4.81105 7.65691C5.00439 7.46358 5.32439 7.46358 5.51772 7.65691L7.05105 9.19025L10.4777 5.76358C10.6711 5.57025 10.9911 5.57025 11.1844 5.76358C11.3777 5.95691 11.3777 6.27025 11.1844 6.47025Z" fill="#111A2D"/>
</svg>
