<svg width="16" height="16" viewBox="0 0 16 16" fill="none" xmlns="http://www.w3.org/2000/svg">
<path d="M8.00065 1.33398C4.32732 1.33398 1.33398 4.32732 1.33398 8.00065C1.33398 11.674 4.32732 14.6673 8.00065 14.6673C11.674 14.6673 14.6673 11.674 14.6673 8.00065C14.6673 4.32732 11.674 1.33398 8.00065 1.33398ZM11.1873 6.46732L7.40732 10.2473C7.31398 10.3407 7.18732 10.394 7.05398 10.394C6.92065 10.394 6.79398 10.3407 6.70065 10.2473L4.81398 8.36065C4.62065 8.16732 4.62065 7.84732 4.81398 7.65398C5.00732 7.46065 5.32732 7.46065 5.52065 7.65398L7.05398 9.18732L10.4807 5.76065C10.674 5.56732 10.994 5.56732 11.1873 5.76065C11.3807 5.95398 11.3807 6.26732 11.1873 6.46732Z" fill="white"/>
</svg>
