<svg width="16" height="15" viewBox="0 0 16 15" fill="none" xmlns="http://www.w3.org/2000/svg">
<path fill-rule="evenodd" clip-rule="evenodd" d="M12.384 9.14567C12.4777 8.98403 12.6297 8.86429 12.8088 8.81088C12.9879 8.75748 13.1806 8.77445 13.3476 8.85832C13.5146 8.94219 13.6432 9.08665 13.7073 9.26219C13.7714 9.43773 13.7661 9.63111 13.6925 9.80286L13.6543 9.87914L13.4086 10.3046C13.5552 10.4765 13.6744 10.6699 13.7621 10.8781L13.8106 11.0021H14.3027C14.4897 11.0023 14.6695 11.0739 14.8054 11.2022C14.9414 11.3306 15.0232 11.506 15.0341 11.6926C15.0451 11.8792 14.9844 12.063 14.8644 12.2063C14.7444 12.3497 14.5742 12.4418 14.3885 12.4639L14.3027 12.469H13.8106C13.7388 12.6725 13.6374 12.8643 13.5098 13.0382L13.4086 13.1658L13.6543 13.592C13.7486 13.7541 13.7773 13.9461 13.7344 14.1287C13.6915 14.3112 13.5803 14.4704 13.4237 14.5735C13.267 14.6766 13.0768 14.7158 12.8922 14.6831C12.7076 14.6503 12.5425 14.548 12.4309 14.3973L12.384 14.3255L12.1382 13.9C11.9233 13.9396 11.7055 13.9463 11.4928 13.922L11.3336 13.8986L11.0872 14.3255C10.9934 14.4871 10.8414 14.6068 10.6624 14.6602C10.4833 14.7136 10.2906 14.6967 10.1236 14.6128C9.95656 14.5289 9.82788 14.3845 9.76378 14.2089C9.69968 14.0334 9.705 13.84 9.77866 13.6683L9.8168 13.592L10.0625 13.1658C9.91605 12.9944 9.79681 12.8014 9.70898 12.5937L9.66057 12.469H9.16841C8.98146 12.4688 8.80165 12.3972 8.66571 12.2689C8.52977 12.1406 8.44796 11.9652 8.43701 11.7785C8.42605 11.5919 8.48677 11.4082 8.60676 11.2648C8.72675 11.1214 8.89695 11.0293 9.08259 11.0072L9.16841 11.0021H9.6613C9.7331 10.7986 9.83442 10.6069 9.96202 10.4329L10.0625 10.3053L9.8168 9.87914C9.72249 9.71706 9.69384 9.52501 9.73674 9.34246C9.77964 9.15991 9.89084 9.00072 10.0475 8.89761C10.2041 8.79451 10.3943 8.75531 10.5789 8.78807C10.7636 8.82084 10.9286 8.92308 11.0402 9.07379L11.0872 9.14567L11.3329 9.57108C11.5478 9.53148 11.7656 9.52488 11.9783 9.54908L12.1375 9.57182L12.384 9.14567ZM6.60125 8.0682C6.92936 8.0682 7.25111 8.08531 7.5665 8.11954C7.75996 8.14007 7.93735 8.2366 8.05963 8.38791C8.18191 8.53922 8.23908 8.7329 8.21856 8.92636C8.19804 9.11982 8.1015 9.2972 7.9502 9.41949C7.79889 9.54177 7.6052 9.59894 7.41174 9.57842C7.1472 9.54957 6.87704 9.53514 6.60125 9.53514C5.11744 9.53514 3.78252 9.96789 2.83414 10.5466C2.35958 10.8356 2.00165 11.1495 1.7706 11.4429C1.53296 11.7436 1.46695 11.971 1.46695 12.1023C1.46695 12.1918 1.49408 12.2864 1.65398 12.4148C1.83662 12.5615 2.15421 12.7133 2.63977 12.8416C3.60648 13.0984 4.99568 13.2025 6.60125 13.2025L7.08388 13.1988C7.27841 13.1962 7.46601 13.271 7.60542 13.4067C7.74483 13.5424 7.82463 13.7279 7.82725 13.9224C7.82988 14.1169 7.75512 14.3045 7.61943 14.444C7.48373 14.5834 7.29821 14.6632 7.10368 14.6658L6.60125 14.6695C4.96634 14.6695 3.42165 14.5668 2.26423 14.2602C1.68845 14.1076 1.14642 13.889 0.735673 13.559C0.300724 13.2098 0 12.7221 0 12.1023C0 11.5251 0.262583 10.9852 0.619051 10.5334C0.981386 10.075 1.48235 9.65323 2.06986 9.29383C3.24562 8.57796 4.84459 8.0682 6.60125 8.0682ZM11.7356 11.0021C11.541 11.0021 11.3545 11.0794 11.2169 11.2169C11.0794 11.3545 11.0021 11.541 11.0021 11.7356C11.0021 11.9301 11.0794 12.1167 11.2169 12.2542C11.3545 12.3918 11.541 12.469 11.7356 12.469C11.9301 12.469 12.1167 12.3918 12.2542 12.2542C12.3918 12.1167 12.469 11.9301 12.469 11.7356C12.469 11.541 12.3918 11.3545 12.2542 11.2169C12.1167 11.0794 11.9301 11.0021 11.7356 11.0021ZM6.60125 0C7.5739 0 8.50671 0.386382 9.19447 1.07415C9.88223 1.76191 10.2686 2.69472 10.2686 3.66736C10.2686 4.64001 9.88223 5.57282 9.19447 6.26058C8.50671 6.94835 7.5739 7.33473 6.60125 7.33473C5.62861 7.33473 4.6958 6.94835 4.00804 6.26058C3.32027 5.57282 2.93389 4.64001 2.93389 3.66736C2.93389 2.69472 3.32027 1.76191 4.00804 1.07415C4.6958 0.386382 5.62861 0 6.60125 0ZM6.60125 1.46695C6.31229 1.46695 6.02616 1.52386 5.75919 1.63444C5.49222 1.74502 5.24965 1.90711 5.04532 2.11143C4.84099 2.31576 4.67891 2.55833 4.56833 2.8253C4.45775 3.09227 4.40084 3.3784 4.40084 3.66736C4.40084 3.95633 4.45775 4.24246 4.56833 4.50943C4.67891 4.77639 4.84099 5.01897 5.04532 5.22329C5.24965 5.42762 5.49222 5.5897 5.75919 5.70028C6.02616 5.81087 6.31229 5.86778 6.60125 5.86778C7.18484 5.86778 7.74453 5.63595 8.15718 5.22329C8.56984 4.81064 8.80167 4.25095 8.80167 3.66736C8.80167 3.08378 8.56984 2.52409 8.15718 2.11143C7.74453 1.69877 7.18484 1.46695 6.60125 1.46695Z" fill="#171C35"/>
</svg>
